<svg xmlns="http://www.w3.org/2000/svg" fill="none" viewBox="0 0 700 698"><path fill="#38B" d="M699.966 410.55l-61.947-28.128c17.041-145.233-78.335-281.044-221.022-314.757L411.672 0l-28.208 61.738C237.857 44.78 101.664 139.854 67.856 282.14L0 287.45l61.947 28.128c-17.042 145.233 78.335 281.044 221.021 314.756L288.294 698l28.207-61.738c145.642 16.993 281.835-78.116 315.643-220.402L700 410.55h-.034zM336.36 592.716l58.202-127.417 69.299 45.91-19.55-80.651 139.973-10.963c-32.502 107.511-135.472 179.425-247.89 173.087l-.034.034zM105.615 335.45l127.776 58.038-46.039 69.104 80.877-19.494 10.995 139.579C171.41 550.266 99.294 447.586 105.649 335.484l-.034-.034zm257.991-230.132l-58.202 127.417-69.299-45.91 19.549 80.651-139.972 10.963c32.502-107.511 135.471-179.425 247.889-173.086l.035-.035zm230.779 257.267l-127.776-58.039 46.039-69.104-80.877 19.494-10.995-139.579C528.59 147.768 600.707 250.448 594.351 362.55l.034.035zm33.189 35.254l-36.487-6.407L350 349.051l46.658 66.467-95.617 210.328 6.424-36.385 42.501-240.41-66.654 46.527-175.876-79.486-35.08-15.863 36.489 6.407 241.086 42.381-46.657-66.466 95.617-210.329-6.425 36.385-42.5 240.41 66.653-46.526 210.921 95.348h.034z" opacity=".05"/></svg>