<svg width="319" height="179" fill="none" xmlns="http://www.w3.org/2000/svg"><g opacity=".15"><path d="M178.895 38.714a3396.977 3396.977 0 00-9.69 23.825 9253.471 9253.471 0 00-9.482 23.97 1915.383 1915.383 0 00-11.412 32.719 2007.4 2007.4 0 01-11.172 33.042c-.111.751-.389 1.592-.834 2.523a49.42 49.42 0 00-.897 2.169c-.369.674-.807 1.3-1.314 1.877-.529.458-1.286.653-2.274.583-.987-.069-1.838-.407-2.554-1.012a8.286 8.286 0 01-1.47-2.116l-2.793-7.55a191.998 191.998 0 01-2.231-7.466l-5.376-30.49a2690.903 2690.903 0 00-5.553-30.458 542.322 542.322 0 01-2.23-13.681c-.576-4.65-1.26-9.221-2.052-13.712.014-.612-.08-1.143-.281-1.595-.202-.452-.327-1.161-.375-2.127a27.407 27.407 0 00-1.492 1.907 4.803 4.803 0 00-.667 1.398 462.837 462.837 0 00-7.74 14.158 305.091 305.091 0 01-7.477 13.565 150.63 150.63 0 01-5.267 9.52 112.684 112.684 0 01-5.716 9.05l-7.05 11.844a775.667 775.667 0 00-7.082 11.667 2220.216 2220.216 0 01-12.275 19.528c-4.102 6.45-8.194 12.96-12.276 19.528l-4.734 6.318a125.786 125.786 0 01-4.735 6.318c-.39.557-.956 1.144-1.7 1.762-.647.48-1.411.98-2.294 1.502-.431.319-.98.66-1.648 1.021-.57.223-1.272.042-2.106-.542.07-.987.31-1.7.72-2.138 6.862-8.765 13.14-17.731 18.835-26.899l17.375-27.921a2720.42 2720.42 0 0013.986-23.303A1477.43 1477.43 0 0087.1 73.726a247.835 247.835 0 007.02-12.022 380.639 380.639 0 006.424-12.282c.487-.695.963-1.45 1.429-2.262a38.415 38.415 0 011.575-2.471 11.064 11.064 0 011.731-1.585c.646-.48 1.543-.577 2.69-.292 2.155.473 3.43 1.833 3.826 4.078a95.402 95.402 0 001.438 8.154 63.69 63.69 0 011.261 8.186 909.245 909.245 0 012.979 17.935 450.07 450.07 0 003.126 17.726c.986 6.284 1.952 12.45 2.896 18.498a963.934 963.934 0 003.397 18.227c.556 2.461 1.16 4.853 1.813 7.175a141.143 141.143 0 011.813 7.174c.237-.042.424-.014.563.083l.355-.062c.626-.598 1.025-1.095 1.199-1.491a335.614 335.614 0 014.914-15.672l5.299-15.556a1099.02 1099.02 0 006.227-17.548 452.192 452.192 0 016.728-17.82 299.014 299.014 0 004.235-12.26 639.146 639.146 0 004.371-13.566l4.017-13.502 3.557-11.96c1.147-3.858 2.583-6.426 4.307-7.705 1.704-1.397 3.122-1.647 4.255-.75 1.112.779 1.682 2.628 1.709 5.547.007 2.802-1.113 6.472-3.359 11.011zm24.986 56.459c.549-.34 1.049-.612 1.501-.813.431-.32.921-.65 1.471-.99 1.376-.487 2.454-.25 3.232.709.841 1.314.663 2.381-.532 3.201a64.576 64.576 0 01-12.743 7.548 74.662 74.662 0 01-13.806 4.627c-1.634.41-3.407.723-5.318.938-1.794.194-3.521.072-5.183-.366-1.543-.459-2.783-1.276-3.722-2.451-.959-1.293-1.351-3.173-1.177-5.641.41-2.51.887-4.3 1.429-5.37.542-1.07 1.724-2.314 3.546-3.732a26.513 26.513 0 016.215-3.106c2.28-.89 4.484-1.522 6.611-1.897 2.051-.118 3.409.678 4.076 2.388.688 1.828.289 3.361-1.199 4.598a37.512 37.512 0 01-3.379 2.607 162.617 162.617 0 01-3.827 2.137 28.992 28.992 0 01-3.274 1.125 36.268 36.268 0 01-3.514.803c-1.773.312-2.705.903-2.795 1.772.007.73.497 1.435 1.47 2.117 1.39.973 3.573 1.259 6.548.856 2.954-.521 6.044-1.31 9.27-2.366 3.323-1.195 6.368-2.585 9.135-4.17 2.885-1.605 4.873-3.113 5.965-4.524zm-18.811-1.984c.64-1.21.546-1.741-.281-1.595-.73.007-1.821.382-3.274 1.126-1.335.722-2.864 1.723-4.589 3.002-1.724 1.279-3.211 2.516-4.463 3.711 1.814-.076 4.077-.719 6.788-1.928 2.691-1.327 4.63-2.766 5.819-4.316zm66.941-9.975a255.008 255.008 0 01-8.562 11.562 100.185 100.185 0 01-4.297 5.693 76.158 76.158 0 01-4.682 5.577 10.154 10.154 0 01-1.846 1.971c-.647.479-1.412.98-2.294 1.501-1.613.528-2.955.521-4.025-.021-.953-.563-1.456-1.693-1.512-3.389.07-.987.129-2.034.178-3.139.028-1.223.136-2.339.324-3.347.132-.632.205-1.255.219-1.866.014-.612-.052-1.332-.198-2.159a788.754 788.754 0 00-2.837 3.608l-2.69 3.398c-2.594 3.26-5.298 6.235-8.114 8.925-.779 1.112-2.2 2.033-4.265 2.763-1.258.465-2.423.427-3.493-.116-1.091-.66-1.644-1.72-1.657-3.18l-.021-2.19a9.553 9.553 0 01.188-2.044 292.58 292.58 0 011.92-6.735 340.658 340.658 0 012.034-7.122 717.66 717.66 0 003.379-8.82 297.473 297.473 0 013.349-8.999c.229-.771.539-1.435.928-1.991.487-.695 1.234-.949 2.242-.76 1.501.222 1.88 1.678 1.136 4.368a882.042 882.042 0 00-7.354 20.488 183.839 183.839 0 00-1.638 5.224c-.417 1.78-.932 3.698-1.544 5.756.987.069 1.745-.125 2.273-.584.508-.577.956-1.143 1.346-1.699l6.32-7.695 6.257-8.048a510.994 510.994 0 012.545-3.19 59.828 59.828 0 002.367-3.16l.292-.417a2.83 2.83 0 00.407-.803c1.96-1.32 3.535-1.72 4.723-1.198 1.252.876 1.7 2.38 1.345 4.515a34.87 34.87 0 00-1.095 3.117 74.375 74.375 0 00-.887 3.264c-.48 1.425-.949 2.909-1.408 4.452a69.068 69.068 0 01-1.2 4.598l.312 1.773a33.192 33.192 0 011.878-1.793 22.095 22.095 0 001.491-1.908 722.992 722.992 0 007.707-11.23 723.465 723.465 0 017.707-11.228c.174-.396.338-.852.491-1.366a2.302 2.302 0 011.261-1.136 6.43 6.43 0 011.502-.813c.549-.34 1.022-.424 1.418-.25.515.153.942.504 1.283 1.053.437.41.639.862.604 1.355.167.946.285 1.96.354 3.045.049.966.549 1.731 1.501 2.294 1.967 1.481 3.869 2.243 5.704 2.285 1.953.02 3.973-.274 6.058-.886.57-.222 1.084-.069 1.543.46.459.528.633 1.167.521 1.918.007.73-.205 1.255-.636 1.574-.452.202-1.032.365-1.741.49-3.17.681-6.177.906-9.02.677-2.864-.348-5.561-1.822-8.091-4.422zm31.936-2.89a9.554 9.554 0 001.649-4.129c.319-1.64.268-2.972-.156-3.994-.445-1.14-1.23-1.793-2.357-1.96-1.147-.285-2.62.34-4.421 1.876-.841.758-1.71 1.703-2.607 2.836a13.838 13.838 0 00-2.096 3.66c-.522 1.188-.738 2.384-.647 3.586.208 1.182.917 2.093 2.126 2.733l4.379 3.066c1.509.952 3.006 1.846 4.494 2.68a141.297 141.297 0 019.385-5.859c3.101-1.765 6.187-3.954 9.26-6.567 1.273-1.078 2.489-1.78 3.65-2.106a4.813 4.813 0 011.835.042c.612.014 1.109.414 1.491 1.2-.167 1.125-.622 1.998-1.366 2.616-.765.5-1.54.942-2.326 1.324-1.529 1-3.343 2.113-5.443 3.336a78.607 78.607 0 00-6.298 3.67c-2.1 1.223-4.001 2.533-5.705 3.93-1.703 1.397-2.864 2.759-3.483 4.087-.612 2.057-1.905 4.052-3.88 5.984a50.669 50.669 0 01-7.049 5.63c-2.412 1.522-5.124 2.731-8.134 3.627-1.515.389-3.191.563-5.026.521-.493-.035-.9-.268-1.22-.699-.437-.41-.768-.9-.99-1.47-.34-.549-.295-.984.136-1.303.431-.32.851-.699 1.262-1.137a55.596 55.596 0 018.123-7.83c2.858-2.453 6.24-4.694 10.147-6.724a4.806 4.806 0 00-1.397-.667A11.766 11.766 0 01276 91.23l-2.856-1.69a18.582 18.582 0 01-2.357-1.96c-1.591-1.426-2.543-3.025-2.856-4.797-.333-1.891.063-3.789 1.19-5.694 1.633-2.48 3.507-4.64 5.621-6.474 2.231-1.856 4.793-3.221 7.685-4.097 3.559-1.237 6.1-.649 7.622 1.763.938 1.175 1.345 2.444 1.219 3.806-.125 1.363-.566 2.66-1.324 3.89-.737 1.348-1.467 2.39-2.19 3.127-.744.62-1.714 1.338-2.91 2.159a2.1 2.1 0 00-.448-.47 2.097 2.097 0 01-.449-.469zm-17.25 25.523c-.577 1.564-.441 2.332.407 2.305.848-.028 2.037-.542 3.566-1.543 1.411-.98 3.007-2.297 4.787-3.951a53.648 53.648 0 004.713-5.4c-2.245.395-4.751 1.385-7.518 2.97-2.788 1.466-4.773 3.339-5.955 5.619z" fill="#fff"/><path d="M178.895 38.714l-.896-.444-.016.032-.013.032.925.38zm-9.69 23.825l-.928-.374-.002.005.93.369zm-9.482 23.97l-.93-.366-.006.014-.005.014.941.338zm-11.412 32.719l-.947-.321-.003.009.95.312zm-11.172 33.042l-.944-.328-.031.088-.014.093.989.147zm-.834 2.523l-.903-.431-.006.015-.007.014.916.402zm-.897 2.169l.877.48.032-.06.025-.062-.934-.358zm-1.314 1.877l.655.755.051-.044.044-.051-.75-.66zm-2.274.583l-.07.998.07-.998zm-2.554-1.012l-.723.691.037.039.041.034.645-.764zm-1.47-2.116l-.938.347.017.046.022.044.899-.437zm-2.793-7.55l-.953.305.007.021.008.021.938-.347zm-2.231-7.466l-.985.173.009.047.012.046.964-.266zM111.843 80.33l-.985.173.002.012.983-.185zm-2.23-13.681l-.992.123.001.013.002.012.989-.148zm-2.052-13.712l-1-.023-.002.1.017.097.985-.174zm-.281-1.595l-.914.407.914-.407zm-.375-2.127l.998-.05-.127-2.532-1.635 1.936.764.645zm-1.492 1.907l.819.574-.819-.573zm-.667 1.398l.869.494.057-.1.032-.11-.958-.284zm-7.74 14.158l-.885-.463-.002.003.888.46zM89.53 80.243l-.864-.504-.015.025-.013.027.892.452zm-5.267 9.52l-.857-.516-.007.011-.006.011.87.493zm-5.716 9.05l-.819-.574-.021.03-.019.032.86.511zm-7.05 11.844l.85.526.005-.007.004-.008-.859-.511zm-7.082 11.667l.85.527.005-.008.005-.008-.86-.511zM52.14 141.852l-.844-.537.844.537zM39.863 161.38l.8.6.027-.035.023-.037-.85-.528zm-4.734 6.318l-.8-.599-.01.013-.01.013.82.573zm-4.735 6.318l-.782-.623-.02.024-.017.026.819.573zm-1.7 1.762l.596.804.022-.017.021-.018-.639-.769zM26.4 177.28l-.509-.862-.045.027-.042.031.596.804zm-1.648 1.021l.364.932.058-.023.054-.029-.476-.88zm-2.106-.542l-.998-.071-.04.565.464.325.574-.819zm.72-2.138l.73.684.03-.032.027-.035-.787-.617zM42.2 148.722l-.85-.528.85.528zm17.375-27.921l.85.528.005-.01-.855-.518zm13.986-23.303l.86.51.005-.007-.865-.503zM87.1 73.726l-.85-.528-.012.02-.011.021.873.487zm7.02-12.022l.877.48-.878-.48zm6.424-12.282l-.82-.573-.041.06-.033.066.894.447zm1.429-2.262l-.861-.51-.007.013.868.497zm1.575-2.471l-.751-.66-.037.04-.031.046.819.574zm1.731-1.585l.596.803-.596-.803zm2.69-.292l-.241.97.013.004.014.003.214-.977zm3.826 4.078l.992-.13-.003-.022-.004-.022-.985.174zm1.438 8.154l.976-.216-.976.216zm1.261 8.186l-.997.087.004.044.008.042.985-.173zm2.979 17.935l.988-.154-.988.154zm3.126 17.726l.988-.155-.003-.019-.004-.019-.981.193zm2.896 18.498l-.988.155.002.009.001.01.985-.174zm3.397 18.227l-.982.193.003.014.003.014.976-.221zm1.813 7.175l.963-.271-.963.271zm1.813 7.174l-.975.22.21.93.939-.166-.174-.984zm.563.083l-.573.819.339.238.408-.072-.174-.985zm.355-.062l.174.984.298-.052.219-.209-.691-.723zm1.199-1.491l.916.401.027-.061.019-.065-.962-.275zm10.213-31.228l-.94-.342-.003.009-.004.01.947.323zm6.227-17.548l-.943-.334-.002.007.945.327zm6.728-17.82l.928.374.005-.013.005-.012-.938-.348zm4.235-12.26l-.948-.318-.003.01.951.307zm4.371-13.566l.955.296.004-.01-.959-.286zm4.017-13.502l.958.285-.958-.285zm3.557-11.96l-.959-.285.959.285zm4.307-7.705l.596.803.02-.014.018-.016-.634-.773zm4.255-.75l-.621.784.023.018.024.017.574-.819zm1.709 5.547l1-.002v-.007l-1 .01zm-4.284 10.63a3498.784 3498.784 0 00-9.693 23.832l1.855.747a3444.082 3444.082 0 019.688-23.818l-1.85-.76zm-9.695 23.837a9633.459 9633.459 0 00-9.482 23.973l1.861.733a9255.042 9255.042 0 019.48-23.968l-1.859-.739zm-9.493 24.001a1916.152 1916.152 0 00-11.418 32.736l1.895.642c3.683-10.88 7.485-21.78 11.405-32.702l-1.882-.676zm-11.421 32.745a2021.26 2021.26 0 01-11.166 33.026l1.889.656a2018.754 2018.754 0 0011.177-33.058l-1.9-.624zm-11.211 33.207c-.092.624-.331 1.368-.748 2.239l1.805.862c.474-.991.791-1.93.921-2.807l-1.978-.294zm-.761 2.268a50.32 50.32 0 00-.915 2.213l1.868.716c.243-.636.536-1.344.879-2.125l-1.832-.804zm-.859 2.091a9.289 9.289 0 01-1.187 1.696l1.501 1.321a11.297 11.297 0 001.441-2.057l-1.755-.96zm-1.092 1.601c-.257.224-.714.4-1.547.342l-.141 1.995c1.141.08 2.2-.132 2.999-.826l-1.311-1.511zm-1.547.342c-.788-.056-1.435-.318-1.98-.778l-1.29 1.527c.887.75 1.943 1.162 3.129 1.246l.141-1.995zm-1.902-.705a7.335 7.335 0 01-1.294-1.864l-1.798.875a9.29 9.29 0 001.646 2.37l1.446-1.381zm-1.255-1.773l-.006-.015-.005-.015-.005-.015a.196.196 0 00-.006-.014l-.005-.015-.006-.015-.005-.015-.006-.014-.005-.015-.006-.015-.005-.015-.006-.014-.005-.015-.005-.015-.006-.015-.005-.014-.006-.015-.005-.015-.006-.015-.005-.014-.006-.015a.088.088 0 00-.005-.015l-.006-.015-.005-.014-.005-.015-.006-.015-.005-.015-.006-.014-.005-.015-.006-.015-.005-.015-.006-.014-.005-.015-.006-.015-.005-.015-.006-.014-.005-.015-.005-.015a3296835787.078 3296835787.078 0 00-.017-.044l-.005-.015-.006-.015-.005-.014-.006-.015a.088.088 0 00-.005-.015l-.006-.015-.005-.014-.005-.015-.006-.015-.005-.015-.006-.014-.005-.015-.006-.015-.005-.014-.006-.015a.088.088 0 00-.005-.015l-.006-.015a.058.058 0 00-.005-.014l-.005-.015-.006-.015-.005-.015a.196.196 0 00-.006-.014l-.005-.015-.006-.015-.005-.015a.196.196 0 00-.006-.014.088.088 0 00-.005-.015l-.006-.015a.088.088 0 00-.005-.015 3296835787.094 3296835787.094 0 01-.011-.029l-.005-.015-.006-.015-.005-.014-.006-.015-.005-.015-.006-.015-.005-.014-.006-.015a.088.088 0 00-.005-.015.088.088 0 01-.005-.015l-.006-.014-.005-.015-.006-.015-.005-.015-.006-.014-.005-.015-.006-.015a.088.088 0 00-.005-.015l-.006-.014a.088.088 0 00-.005-.015.088.088 0 01-.005-.015l-.006-.015a.058.058 0 01-.005-.014l-.006-.015-.005-.015-.006-.015-.005-.014-.006-.015-.005-.015a3296835787.078 3296835787.078 0 00-.011-.029l-.006-.015a.088.088 0 00-.005-.015.088.088 0 01-.005-.015.196.196 0 01-.006-.014l-.005-.015-.006-.015-.005-.014-.006-.015-.005-.015a3296835787.078 3296835787.078 0 00-.027-.074l-.006-.014a3296835787.094 3296835787.094 0 01-.011-.03l-.005-.015-.006-.014-.005-.015-.006-.015a.196.196 0 00-.011-.029.088.088 0 00-.005-.015.088.088 0 01-.005-.015l-.006-.015-.005-.014-.006-.015-.005-.015-.006-.015-.005-.014-.006-.015-.005-.015-.006-.015-.005-.014a.088.088 0 01-.005-.015l-.006-.015-.005-.015-.006-.014-.005-.015-.006-.015-.005-.015a.196.196 0 01-.006-.014l-.005-.015-.006-.015a.088.088 0 00-.005-.015 3663185378.054 3663185378.054 0 00-.016-.044l-.006-.015-.005-.014-.006-.015-.005-.015-.006-.015-.005-.014-.006-.015-.005-.015a.088.088 0 01-.005-.015l-.006-.014a.088.088 0 01-.005-.015l-.006-.015-.005-.014-.006-.015-.005-.015-.006-.015-.005-.014-.006-.015-.005-.015-.006-.015a.058.058 0 00-.005-.014.088.088 0 01-.005-.015l-.006-.015-.005-.015a.196.196 0 00-.006-.014l-.005-.015-.006-.015-.005-.015-.006-.014-.005-.015-.006-.015-.005-.015-.005-.014-.006-.015a.088.088 0 01-.005-.015l-.006-.015-.005-.014-.006-.015-.005-.015-.006-.015-.005-.014-.006-.015-.005-.015-.005-.015-.006-.014a.088.088 0 01-.005-.015l-.006-.015-.005-.015a.196.196 0 01-.006-.014l-.005-.015a6593671574.155 6593671574.155 0 01-.011-.03l-.006-.014-.005-.015-.005-.015-.006-.015a.058.058 0 01-.005-.014l-.006-.015-.005-.015-.006-.015-.005-.014-.006-.015-.005-.015-.006-.015a.121.121 0 00-.005-.014l-.005-.015-.006-.015-.005-.014-.006-.015-.005-.015-.006-.015-.005-.014-.006-.015-.005-.015-.006-.015a.058.058 0 00-.005-.014.088.088 0 01-.005-.015l-.006-.015-.005-.015-.006-.014-.005-.015-.006-.015-.005-.015-.006-.014-.005-.015a6593671574.155 6593671574.155 0 01-.011-.03l-.006-.014a.088.088 0 00-.005-.015l-.005-.015-.006-.015-.005-.014-.006-.015-.005-.015-.006-.015-.005-.014-.006-.015a6593671574.155 6593671574.155 0 01-.011-.03l-.005-.014a.088.088 0 01-.005-.015l-.006-.015-.005-.015-.006-.014-.005-.015-.006-.015-.005-.015a.196.196 0 01-.006-.014l-.005-.015-.006-.015-.005-.015a.058.058 0 01-.005-.014l-.006-.015a.088.088 0 01-.005-.015l-.006-.015-.005-.014-.006-.015-.005-.015-.006-.015-.005-.014-.006-.015-.005-.015a.121.121 0 01-.005-.014l-.006-.015a.088.088 0 01-.005-.015l-.006-.015-.005-.014-.006-.015-.005-.015-.006-.015a.058.058 0 00-.005-.014l-.006-.015-.005-.015-.005-.015-.006-.014a.088.088 0 01-.005-.015l-.006-.015-.005-.015-.006-.014-.005-.015a6593671574.155 6593671574.155 0 01-.011-.03l-.006-.014-.005-.015-.005-.015-.006-.015-.005-.014a3663185378.054 3663185378.054 0 00-.011-.03l-.006-.015-.005-.014-.006-.015-.005-.015-.006-.015-.005-.014-.006-.015-.005-.015-.005-.015a.196.196 0 01-.011-.029l-.006-.015-.005-.015a.196.196 0 01-.006-.014l-.005-.015-.006-.015a.088.088 0 00-.005-.015l-.006-.014-.005-.015-.005-.015a6593671574.155 6593671574.155 0 01-.011-.029l-.006-.015-.005-.015a.196.196 0 00-.006-.014l-.005-.015-.006-.015a.196.196 0 00-.011-.029.088.088 0 00-.005-.015l-.005-.015-.006-.015-.005-.014-.006-.015-.005-.015-.006-.015-.005-.014-.006-.015a6593671574.155 6593671574.155 0 01-.021-.059l-.006-.015-.005-.015-.006-.014-.005-.015-.006-.015-.005-.015-.006-.014-.005-.015-.006-.015-.005-.015-.005-.014-.006-.015a.088.088 0 01-.005-.015l-.006-.015-.005-.014-.006-.015-.005-.015-.006-.015-.005-.014-.006-.015-.005-.015-.006-.015a.121.121 0 00-.005-.014l-.005-.015-.006-.015-.005-.015-.006-.014-.005-.015-.006-.015-.005-.015a.196.196 0 01-.006-.014l-.005-.015-.006-.015-.005-.015a.058.058 0 01-.005-.014l-.006-.015-.005-.015a.196.196 0 00-.006-.014l-.005-.015-.006-.015-.005-.015-.006-.014-.005-.015-.006-.015a.088.088 0 00-.005-.015 3663185378.054 3663185378.054 0 00-.016-.044l-.006-.015-.005-.014-.006-.015-.005-.015-.006-.015-.005-.014-.006-.015-.005-.015-.005-.015-.006-.014a.088.088 0 01-.005-.015l-.006-.015-.005-.015-.006-.014-.005-.015-.006-.015a.088.088 0 00-.005-.015l-.006-.014-.005-.015-.005-.015-.006-.015-.005-.014-.006-.015-.005-.015-.006-.015-.005-.014a3663185378.054 3663185378.054 0 01-.011-.03l-.006-.015-.005-.014-.005-.015-.006-.015-.005-.015-.006-.014-.005-.015-.006-.015-.005-.015a.196.196 0 01-.011-.029 6593671574.155 6593671574.155 0 01-.016-.044l-.006-.015-.005-.015-.006-.014a.088.088 0 01-.005-.015l-.006-.015-.005-.015a.196.196 0 00-.006-.014l-.005-.015-.006-.015a.196.196 0 00-.011-.029.088.088 0 00-.005-.015.088.088 0 01-.005-.015l-.006-.015-.005-.014-.006-.015-.005-.015-.006-.015-.005-.014-.006-.015-.005-.015-.006-.015-.005-.014-.005-.015-.006-.015-.005-.015-.006-.014-.005-.015-.006-.015-.005-.015-.006-.014-.005-.015-.006-.015-.005-.015a.058.058 0 01-.005-.014l-.006-.015a.088.088 0 01-.005-.015l-.006-.015-.005-.014-.006-.015-.005-.015-.006-.015-.005-.014-.006-.015a.088.088 0 00-.005-.015.088.088 0 01-.005-.015l-.006-.014a.088.088 0 01-.005-.015l-.006-.015-.005-.015-.006-.014-.005-.015-.006-.015a.058.058 0 00-.005-.014l-.006-.015-.005-.015a.088.088 0 01-.005-.015l-.006-.014a.088.088 0 01-.005-.015l-.006-.015-.005-.015a.196.196 0 00-.006-.014l-.005-.015-.006-.015a.088.088 0 00-.005-.015l-.006-.014-.005-.015-.006-.015-.005-.015a.121.121 0 01-.005-.014l-.006-.015a.088.088 0 01-.005-.015l-.006-.015-.005-.014-.006-.015-.005-.015-.006-.015-.005-.014-.006-.015-1.875.694.005.015.006.014.005.015.006.015.005.015.006.014.005.015.005.015.006.015.005.014.006.015.005.015.006.015.005.014.006.015.005.015.006.015a.121.121 0 00.005.014l.005.015.006.015.005.015a.196.196 0 01.006.014l.005.015.006.015.005.015.006.014.005.015.006.015.005.015a.058.058 0 01.005.014l.006.015.005.015.006.014.005.015.006.015.005.015.006.014.005.015.006.015.005.015.005.014.006.015.005.015.006.015.005.014.006.015.005.015.006.015.005.014.006.015.005.015.005.015.006.014.005.015.006.015.005.015.006.014.005.015.006.015.005.015.006.014.005.015.005.015.006.015.005.014.006.015.005.015.006.015.005.014.006.015.005.015.006.015.005.014a6593671574.155 6593671574.155 0 01.022.059l.005.015.006.015.005.015.006.014.005.015.006.015.005.015.006.014.005.015.005.015.006.014.005.015.006.015.005.015.006.014.005.015.006.015.005.015.006.014.005.015.005.015.006.015.005.014.006.015.005.015.006.015.005.014.006.015.005.015.006.015.005.014.005.015.006.015.005.015.006.014.005.015.006.015.005.015.006.014.005.015.006.015.005.015.005.014a6593671574.155 6593671574.155 0 01.017.045l.005.014.006.015.005.015a6593671574.155 6593671574.155 0 01.011.029l.006.015.005.015.005.015.006.014.005.015.006.015.005.015a.196.196 0 01.006.014l.005.015.006.015.005.015a.196.196 0 01.011.029 3663185378.054 3663185378.054 0 00.011.029l.005.015a3663185378.054 3663185378.054 0 01.017.044l.005.015.006.015.005.015.006.014.005.015.006.015.005.015.005.014a6593671574.155 6593671574.155 0 01.011.03l.006.015.005.014.006.015.005.015.006.015.005.014a6593671574.155 6593671574.155 0 01.016.045l.006.014.005.015.006.015.005.015.006.014.005.015.006.015.005.015.006.014.005.015.005.015.006.015a.058.058 0 01.005.014l.006.015.005.015.006.015.005.014.006.015.005.015.006.015.005.014.005.015.006.015.005.015a.196.196 0 01.006.014l.005.015.006.015.005.015.006.014.005.015.006.015.005.014.005.015.006.015.005.015.006.014.005.015.006.015.005.015.006.014.005.015.006.015.005.015.006.014.005.015.005.015.006.015.005.014.006.015.005.015.006.015.005.014.006.015.005.015.006.015.005.014.005.015.006.015.005.015.006.014.005.015.006.015.005.015.006.014.005.015.006.015.005.015a3663185378.054 3663185378.054 0 01.022.059l.005.014.006.015.005.015a3663185378.054 3663185378.054 0 01.011.029l.006.015.005.015.005.015.006.014.005.015.006.015.005.014.006.015.005.015.006.015.005.014a3663185378.054 3663185378.054 0 01.011.03l.005.015.006.014.005.015.006.015.005.015.006.014.005.015.006.015.005.015.006.014.005.015.005.015.006.015.005.014.006.015.005.015.006.015.005.014.006.015.005.015.006.015.005.014a6593671574.155 6593671574.155 0 01.016.045l.006.014.005.015.006.015.005.015.006.014.005.015.006.015.005.015a.196.196 0 01.011.029l.005.015.006.015a6593671574.155 6593671574.155 0 01.011.029l.005.015.006.015.005.014.006.015.005.015.006.015.005.014.005.015.006.015.005.014.006.015.005.015.006.015.005.014.006.015.005.015.006.015.005.014.005.015a3663185378.054 3663185378.054 0 00.017.044l.005.015.006.015.005.015.006.014.005.015.006.015.005.015.005.014a3663185378.054 3663185378.054 0 01.017.045l.005.014.006.015.005.015.006.015.005.014.006.015.005.015.005.015.006.014.005.015.006.015.005.015a.196.196 0 01.006.014l.005.015.006.015.005.015a.196.196 0 01.011.029l.006.015.005.015a6593671574.155 6593671574.155 0 01.016.044l.006.015.005.014.006.015.005.015a6593671574.155 6593671574.155 0 01.011.029l.006.015.005.015.005.014.006.015.005.015.006.015.005.014.006.015.005.015.006.015.005.014a6593671574.155 6593671574.155 0 01.022.059l.005.015.006.015.005.015.006.014.005.015.006.015.005.015.006.014.005.015.005.015.006.015.005.014.006.015.005.015.006.015.005.014.006.015.005.015.006.015.005.014.005.015.006.015.005.015a.196.196 0 01.006.014l.005.015.006.015.005.015.006.014.005.015.006.015.005.015a3663185378.054 3663185378.054 0 00.016.044l.006.015a6593671574.155 6593671574.155 0 01.011.029l.005.015.006.014.005.015.006.015.005.015.006.014.005.015.005.015.006.015.005.014.006.015.005.015.006.015.005.014.006.015.005.015.006.015.005.014.005.015.006.015.005.015.006.014.005.015.006.015.005.015.006.014.005.015.006.015.005.015.005.014a6593671574.155 6593671574.155 0 01.011.03l.006.015.005.014.006.015.005.015.006.015.005.014.006.015.005.015.005.015a.196.196 0 01.011.029l.006.015.005.015a.196.196 0 01.006.014l.005.015a6593671574.155 6593671574.155 0 01.011.03l.006.014.005.015.005.015.006.015a.058.058 0 01.005.014l.006.015.005.015.006.014.005.015.006.015.005.015.006.014.005.015.005.015.006.015.005.014.006.015.005.015.006.015.005.014.006.015.005.015a3663185378.054 3663185378.054 0 01.011.029l.006.015.005.015.005.015.006.014.005.015.006.015.005.015.006.014.005.015.006.015.005.015.006.014.005.015.005.015.006.015.005.014.006.015.005.015.006.015.005.014.006.015.005.015a6593671574.155 6593671574.155 0 01.016.044l.006.015.005.015a.196.196 0 01.006.014l.005.015.006.015.005.015 1.876-.694zm-2.779-7.508a191.019 191.019 0 01-2.219-7.427l-1.928.532a193.456 193.456 0 002.242 7.505l1.905-.61zm-2.198-7.335a1.261 1.261 0 00-.011-.06l-.01-.06-.011-.061-.01-.06-.011-.06-.011-.06-.01-.061-.011-.06a1.261 1.261 0 00-.011-.06l-.01-.06-.011-.06-.01-.061-.011-.06-.011-.06-.01-.06-.011-.06-.01-.061a1.261 1.261 0 01-.011-.06l-.011-.06-.01-.06-.011-.06a1.302 1.302 0 00-.011-.061l-.01-.06-.011-.06-.01-.06-.011-.06a1.261 1.261 0 00-.011-.06l-.01-.061-.011-.06-.01-.06-.011-.06-.011-.06-.01-.06-.011-.061-.01-.06-.011-.06-.011-.06-.01-.06-.011-.06-.01-.06a1.302 1.302 0 01-.011-.061l-.011-.06-.01-.06-.011-.06-.01-.06a1.261 1.261 0 01-.011-.06l-.011-.06-.01-.06-.011-.061-.01-.06-.011-.06-.011-.06-.01-.06-.011-.06-.01-.06-.011-.06-.011-.06-.01-.06-.011-.06-.01-.061-.011-.06-.011-.06-.01-.06-.011-.06-.01-.06-.011-.06-.011-.06-.01-.06-.011-.06-.01-.06-.011-.06-.011-.06-.01-.06-.011-.06-.01-.06-.011-.061-.01-.06-.011-.06-.011-.06-.01-.06-.011-.06-.01-.06-.011-.06a1.261 1.261 0 00-.011-.06l-.01-.06-.011-.06-.01-.06-.011-.06-.01-.06-.011-.06-.011-.06-.01-.06-.011-.06-.01-.06-.011-.06-.01-.06-.011-.06-.011-.06-.01-.06-.011-.06-.01-.06-.011-.06-.011-.06-.01-.059-.011-.06-.01-.06-.011-.06-.01-.06-.011-.06-.011-.06-.01-.06-.011-.06-.01-.06-.011-.06-.01-.06-.011-.06-.01-.06a1.261 1.261 0 01-.011-.06l-.011-.06-.01-.06-.011-.059-.01-.06-.011-.06-.01-.06-.011-.06-.011-.06-.01-.06-.011-.06-.01-.06-.011-.06-.01-.059-.011-.06-.01-.06a1.261 1.261 0 01-.011-.06l-.011-.06-.01-.06-.011-.06-.01-.06-.011-.059-.01-.06-.011-.06-.01-.06-.011-.06-.011-.06-.01-.06-.011-.059-.01-.06-.011-.06-.01-.06-.011-.06-.01-.06a1.261 1.261 0 01-.011-.06l-.011-.059-.01-.06-.011-.06-.01-.06-.011-.06-.01-.059-.011-.06-.01-.06-.011-.06-.01-.06a1.501 1.501 0 01-.011-.059l-.011-.06-.01-.06-.011-.06-.01-.06-.011-.059-.01-.06-.011-.06-.01-.06-.011-.06-.01-.059-.011-.06-.011-.06-.01-.06-.011-.059-.01-.06-.011-.06-.01-.06-.011-.059-.01-.06-.011-.06-.01-.06-.011-.059-.01-.06-.011-.06a1.261 1.261 0 00-.011-.06l-.01-.059-.011-.06-.01-.06-.011-.06-.01-.059-.011-.06-.01-.06-.011-.059-.01-.06-.011-.06-.01-.06-.011-.059-.01-.06-.011-.06-.01-.059-.011-.06-.01-.06-.011-.059-.011-.06-.01-.06-.011-.06-.01-.059-.011-.06-.01-.06-.011-.059-.01-.06-.011-.06-.01-.059-.011-.06-.01-.059-.011-.06-.01-.06-.011-.059-.01-.06-.011-.06-.01-.059-.011-.06-.01-.06-.011-.059-.01-.06-.011-.06-.01-.059-.011-.06-.01-.059-.011-.06-.011-.06-.01-.059-.011-.06-.01-.059-.011-.06-.01-.06-.011-.059-.01-.06-.011-.059-.01-.06-.011-.06-.01-.059-.011-.06-.01-.059-.011-.06-.01-.059-.011-.06-.01-.06-.011-.059-.01-.06-.011-.059-.01-.06-.011-.059-.01-.06-.011-.059-.01-.06-.011-.06-.01-.059-.011-.06-.01-.059-.011-.06-.01-.059-.011-.06-.01-.059-.011-.06-.01-.059-.011-.06-.01-.059-.011-.06-.01-.059-.011-.06-.01-.059-.011-.06-.01-.059-.011-.06-.01-.059-.01-.06-.011-.059-.01-.06-.011-.059-.01-.06-.011-.059-.01-.06-.011-.059-.01-.06-.011-.059-.01-.059-.011-.06-.01-.059-.011-.06-.01-.059-.011-.06-.01-.059-.011-.06-.01-.059-.011-.059-.01-.06-.011-.059-.01-.06-.011-.059-.01-.06-.011-.059-.01-.059-.011-.06-.01-.059-.01-.06-.011-.059-.01-.06-.011-.059-.01-.059-.011-.06-.01-.059-.011-.059-.01-.06-.011-.059-.01-.06-.011-.059-.01-.059-.011-.06-.01-.059-.011-.06-.01-.059a1.21 1.21 0 01-.01-.059l-.011-.06-.01-.059-.011-.059-.01-.06-.011-.059-.01-.059-.011-.06-.01-.059-.011-.059-.01-.06-.011-.059-.01-.059-.011-.06-.01-.059-.01-.059-.011-.06-.01-.059-.011-.059-.01-.06-.011-.059-.01-.059-.011-.06-.01-.059-.011-.059-.01-.059-.01-.06-.011-.059-.01-.059-.011-.06-.01-.059-.011-.059-.01-.059-.011-.06-.01-.059-.011-.059-.01-.059-.01-.06-.011-.059-.01-.059-.011-.059-.01-.06-.011-.059-.01-.059-.011-.059-.01-.06-.01-.059-.011-.059-.01-.059-.011-.06-.01-.059-.011-.059-.01-.059-.011-.06-.01-.059-.01-.059-.011-.059-.01-.059-.011-.06-.01-.059-.011-.059-.01-.059-.011-.059-.01-.06-.01-.059-.011-.059-.01-.059-.011-.059-.01-.06-.011-.059-.01-.059-.01-.059-.011-.059-.01-.059-.011-.06-.01-.059-.011-.059-.01-.059-.01-.059-.011-.059-.01-.059-.011-.06-.01-.059-.011-.059-.01-.059-.01-.059-.011-.059-.01-.059-.011-.06-.01-.059-.011-.059-.01-.059-.01-.059-.011-.059-.01-.059-.011-.059-.01-.059-.011-.059a1.25 1.25 0 00-.01-.06l-.01-.059-.011-.059-.01-.059-.011-.059-.01-.059a1.21 1.21 0 01-.01-.059l-.011-.059-.01-.059-.011-.059-.01-.059-.011-.059-.01-.06-.01-.059-.011-.059-.01-.059-.011-.059-.01-.059-.01-.059-.011-.059-.01-.059-.011-.059-.01-.059a1.21 1.21 0 01-.01-.059l-.011-.059-.01-.059-.011-.059-.01-.059-.011-.059-.01-.059-.01-.059-.011-.059-.01-.059-.011-.059-.01-.059-.01-.059-.011-.059-.01-.059-.011-.059-.01-.059-.01-.059-.011-.059-.01-.059-.011-.059-.01-.059-.01-.059-.011-.059-.01-.059-.011-.059a1.21 1.21 0 00-.01-.059l-.01-.059-.011-.059-.01-.059-.011-.059a1.21 1.21 0 00-.01-.059l-.01-.059-.011-.059-.01-.059-.011-.059-.01-.059-.01-.058-.011-.059-.01-.059-.01-.059-.011-.059-.01-.059-.011-.059-.01-.059-.01-.059-.011-.059-.01-.059-.011-.059-.01-.058-.01-.059-.011-.059-.01-.059-.011-.059a1.21 1.21 0 00-.01-.059l-.01-.059-.011-.059-.01-.059-.01-.058-.011-.059-.01-.059-.011-.059a1.21 1.21 0 00-.01-.059l-.01-.059-.011-.059-.01-.059-1.97.348.011.059.01.058.01.059.011.059.01.059.011.059.01.059.01.059.011.059.01.058.01.059.011.059.01.059.011.059.01.059.01.059.011.059.01.059.011.059.01.058.01.059.011.059.01.059.011.059.01.059.01.059.011.059.01.059.01.059.011.059.01.059.011.059.01.059.01.058.011.059.01.059.011.059.01.059.01.059.011.059.01.059.011.059.01.059.01.059.011.059.01.059.011.059.01.059.01.059.011.059.01.059.011.059.01.059.01.059.011.059.01.059.011.059.01.059.01.059.011.059.01.059.011.059.01.059.01.059.011.059.01.059.011.059.01.059.011.059.01.059.01.059.011.06.01.059.011.059.01.059.01.059.011.059.01.059.011.059.01.059.011.059.01.059.01.059.011.059.01.059.011.06.01.059.01.059.011.059.01.059.011.059.01.059.011.059.01.059.01.059.011.06.01.059.011.059.01.059.011.059.01.059.01.059.011.059.01.06.011.059.01.059.011.059.01.059.01.059.011.059.01.06.011.059.01.059.011.059.01.059.01.059.011.06.01.059.011.059.01.059.011.059.01.06.01.059.011.059.01.059.011.059.01.059.011.06.01.059.011.059.01.059.01.06.011.059.01.059.011.059.01.059.011.06.01.059.01.059.011.059.01.06.011.059.01.059.011.059.01.06.011.059.01.059.011.059.01.06.01.059.011.059.01.059.011.06.01.059.011.059.01.059.011.06.01.059.01.059.011.06.01.059.011.059.01.059.011.06.01.059.011.059.01.06.011.059.01.059.01.06.011.059.01.059.011.06.01.059.011.059.01.06.011.059.01.059.011.06.01.059.011.059.01.06.011.059.01.059.01.06.011.059.01.059.011.06.01.059.011.06.01.059.011.059.01.06.011.059.01.059.011.06.01.059.011.06.01.059.01.059.011.06.01.059.011.06.01.059.011.059.01.06.011.059.01.06.011.059.01.06.011.059.01.059.011.06.01.059.011.06.01.059.011.06.01.059.011.059.01.06.011.059.01.06.011.059.01.06.01.059.011.06.01.059.011.06.01.059.011.06.01.059.011.06.01.059.011.06.01.059.011.059.01.06.011.059.01.06.011.059.01.06.011.06.01.059.011.06.01.059.011.06.01.059.011.06.01.059.011.06.01.059.011.06.01.059.011.06.01.059.011.06.01.06.011.059.01.06.011.059.01.06.011.059.01.06.011.059.01.06.011.06.01.059.011.06.01.059.011.06.01.06.011.059.01.06.011.059.01.06.011.059.01.06.011.06.01.059.011.06.01.06.011.059.01.06.011.059.01.06.011.06.01.059.011.06.011.06.01.059.011.06.01.06.011.059.01.06.011.059.01.06.011.06.01.059.011.06.01.06.011.059.01.06.011.06.01.059.011.06.01.06.011.06.01.059.011.06.01.06.011.059.011.06.01.06.011.059.01.06.011.06.01.06.011.059.01.06.011.06.01.059.011.06.01.06.011.06.01.059.011.06.01.06.011.06.011.059.01.06.011.06.01.06.011.059.01.06.011.06.01.06.011.059.01.06.011.06.01.06.011.059.011.06.01.06.011.06.01.06.011.059.01.06.011.06.01.06.011.06.01.059.011.06.011.06.01.06.011.06.01.059.011.06.01.06.011.06.01.06.011.06.01.059.011.06.011.06.01.06.011.06.01.06.011.06.01.059.011.06.01.06.011.06.011.06.01.06.011.06.01.059.011.06.01.06.011.06.01.06.011.06.011.06.01.06.011.06.01.059.011.06.01.06.011.06.011.06.01.06.011.06.01.06.011.06.01.06.011.06.01.059.011.06.011.06.01.06.011.06.01.06.011.06.01.06.011.06.011.06.01.06.011.06.01.06.011.06.01.06.011.06.011.06.01.06.011.06.01.06.011.06.01.06.011.06.011.06.01.06.011.06.01.06.011.06.011.06.01.06.011.06.01.06.011.06.01.06.011.06.011.06.01.06.011.06.01.06.011.06.011.06.01.06.011.06.01.06.011.06.01.06.011.06.011.06.01.06.011.06.01.06.011.06.011.06.01.06.011.061.01.06.011.06.011.06.01.06.011.06.01.06.011.06.011.06.01.06.011.06.01.061.011.06.011.06.01.06.011.06.01.06.011.06.011.06.01.06.011.061.01.06.011.06.011.06.01.06.011.06.01.06.011.061.011.06.01.06.011.06.01.06.011.06.011.061.01.06.011.06.01.06.011.06.011.06.01.061.011.06.01.06.011.06.011.06.01.06.011.061.011.06.01.06.011.06.01.06.011.061.011.06.01.06.011.06.01.061.011.06.011.06.01.06.011.06.011.061.01.06.011.06.01.06 1.97-.347zm-5.376-30.49a2695.48 2695.48 0 00-5.556-30.47l-1.965.37a2690.18 2690.18 0 015.551 30.448l1.97-.348zm-5.553-30.458a535.523 535.523 0 01-2.226-13.655l-1.978.296a544.68 544.68 0 002.234 13.706l1.97-.347zm-2.222-13.63a272.218 272.218 0 00-2.06-13.763l-1.97.348a269.078 269.078 0 012.045 13.661l1.985-.246zm-2.045-13.566c.016-.726-.094-1.41-.368-2.026l-1.827.815c.129.288.207.667.195 1.165l2 .046zm-.368-2.026c-.123-.276-.243-.832-.29-1.77l-1.997.1c.05.995.181 1.858.46 2.485l1.827-.815zm-2.052-2.365a28.177 28.177 0 00-1.547 1.98l1.638 1.147a26.36 26.36 0 011.436-1.836l-1.527-1.29zm-1.547 1.98a5.803 5.803 0 00-.807 1.685l1.917.57a3.81 3.81 0 01.528-1.108l-1.638-1.147zm-.717 1.476a462.814 462.814 0 00-7.756 14.19l1.772.928a463.621 463.621 0 017.722-14.129l-1.738-.989zm-7.758 14.193a304.049 304.049 0 01-7.454 13.52l1.727 1.01a306.03 306.03 0 007.503-13.61l-1.776-.92zm-7.482 13.573a149.6 149.6 0 01-5.232 9.456l1.714 1.03a151.558 151.558 0 005.302-9.582l-1.784-.904zm-5.245 9.478a111.69 111.69 0 01-5.665 8.97l1.638 1.147a113.702 113.702 0 005.767-9.13l-1.74-.987zm-5.705 9.032l-7.05 11.844 1.718 1.023 7.05-11.844-1.718-1.023zm-7.041 11.829a786.177 786.177 0 00-7.091 11.682l1.719 1.023a785.537 785.537 0 017.072-11.652l-1.7-1.053zm-7.081 11.666a2203.49 2203.49 0 01-12.27 19.519l1.688 1.073a2190.747 2190.747 0 0012.28-19.537l-1.698-1.055zm-12.27 19.519a2219.91 2219.91 0 00-12.281 19.537l1.699 1.056a2222.43 2222.43 0 0112.27-19.52l-1.688-1.073zM39.063 160.78l-.01.013-.008.012-.01.012-.009.013a.96.96 0 00-.018.024l-.01.013-.009.012-.009.012a.146.146 0 01-.01.013l-.008.012a.146.146 0 00-.01.013l-.009.012-.01.012a4412937204.85 4412937204.85 0 00-.019.025l-.008.012-.01.013-.008.012-.01.012-.009.013-.01.012a.96.96 0 01-.009.012l-.009.013-.009.012a.96.96 0 00-.01.012.96.96 0 00-.019.025l-.008.012-.01.013-.008.012-.01.012-.009.013-.01.012-.008.012-.01.013-.009.012-.01.012-.008.013a.96.96 0 01-.01.012l-.009.012-.01.013-.008.012-.01.012-.009.013-.01.012-.008.012-.01.013-.009.012-.01.012-.008.013-.01.012-.009.012a.146.146 0 01-.01.013l-.008.012-.01.012a.146.146 0 01-.009.013l-.01.012-.008.013-.01.012a.96.96 0 01-.009.012l-.01.013-.008.012-.01.012-.009.013a.96.96 0 00-.01.012l-.008.012a.128.128 0 00-.01.013l-.009.012a.96.96 0 00-.018.025l-.01.012-.009.012a4412937204.85 4412937204.85 0 01-.019.025l-.009.012-.009.013-.01.012-.008.012-.01.013-.009.012a.96.96 0 01-.01.012l-.008.013-.01.012-.009.012-.01.013-.008.012-.01.012-.009.013-.01.012-.008.012a.96.96 0 00-.018.025l-.01.012a.146.146 0 01-.01.013l-.009.012-.009.012-.01.013-.008.012a4412937204.85 4412937204.85 0 00-.019.025l-.01.012-.008.012a.96.96 0 01-.019.025l-.01.012a.96.96 0 00-.028.038l-.008.012-.01.012a3336533169.511 3336533169.511 0 00-.037.05l-.008.012-.01.012a4412937204.85 4412937204.85 0 01-.019.025l-.009.012a.146.146 0 00-.009.013l-.009.012-.01.012-.008.013-.01.012-.009.012-.01.013-.008.012-.01.012-.009.013-.01.012-.008.012-.01.013-.009.012a.96.96 0 00-.01.012l-.008.013-.01.012-.009.012-.01.013-.008.012-.01.012a.146.146 0 01-.009.013l-.01.012a4412937204.85 4412937204.85 0 01-.018.025l-.009.012-.01.012a.96.96 0 01-.028.037l-.008.013a.96.96 0 00-.019.024l-.009.013-.01.012a4412937204.85 4412937204.85 0 01-.019.025l-.008.012-.01.013-.008.012-.01.012a.146.146 0 00-.009.013l-.01.012-.008.012a.146.146 0 00-.01.013l-.009.012-.01.012-.008.013-.01.012-.009.012-.01.013a.96.96 0 01-.008.012l-.01.012-.009.013a.96.96 0 00-.01.012l-.008.012-.01.013-.009.012a.96.96 0 00-.01.012l-.008.013-.01.012-.009.012-.01.013-.008.012-.01.012-.009.013a.96.96 0 01-.01.012l-.008.012a.128.128 0 01-.01.013l-.009.012a.96.96 0 01-.01.012l-.008.013-.01.012-.009.012-.01.013a.96.96 0 00-.018.024l-.009.013-.01.012-.008.012a.146.146 0 01-.01.013l-.009.012-.01.012a.146.146 0 01-.008.013l-.01.012a4412937204.85 4412937204.85 0 00-.019.025l-.008.012-.01.013-.009.012-.01.012-.008.013-.01.012-.009.012-.009.013-.01.012a.96.96 0 00-.027.037l-.01.012-.008.013-.01.012-.009.012-.01.013-.008.012-.01.012-.009.013-.01.012-.008.012-.01.013a.96.96 0 01-.009.012l-.01.012a.05.05 0 01-.009.013l-.009.012-.009.012-.01.013-.009.012-.009.012-.009.013-.01.012-.009.012-.009.013-.009.012-.01.012a.146.146 0 01-.008.013l-.01.012-.009.012a.146.146 0 01-.01.013l-.008.012-.01.012a.96.96 0 01-.019.025l-.008.013-.01.012-.009.012-.01.013a.96.96 0 00-.008.012l-.01.012a.128.128 0 00-.009.013l-.01.012a.96.96 0 00-.008.012l-.01.013a.96.96 0 00-.037.049l-.009.012-.01.013-.008.012-.01.012-.009.013-.01.012a.96.96 0 01-.008.012l-.01.013-.009.012-.01.012-.008.013a.96.96 0 00-.019.024l-.01.013-.008.012-.01.012-.009.013a.96.96 0 00-.01.012l-.008.012a.146.146 0 01-.01.013l-.009.012-.01.012-.008.013-.01.012-.009.012a.146.146 0 01-.01.013l-.008.012-.01.012a.96.96 0 01-.019.025l-.008.012a.96.96 0 00-.018.025l-.01.012-.01.013-.009.012a4412937204.85 4412937204.85 0 00-.019.025l-.008.012-.01.013-.009.012a4412937204.85 4412937204.85 0 01-.028.037l-.009.012-.01.013-.008.012-.01.012-.009.013-.01.012-.008.012-.01.013-.009.012-.009.012-.01.013-.008.012-.01.012-.009.013-.01.012a.96.96 0 00-.009.012l-.009.013-.009.012-.01.012a.05.05 0 01-.009.013l-.009.012-.009.012-.01.013-.008.012-.01.012-.009.013-.01.012a.96.96 0 01-.027.037l-.01.012a.96.96 0 00-.028.037l-.008.013-.01.012a.96.96 0 00-.018.025l-.01.012-.008.013-.01.012a4412937204.85 4412937204.85 0 01-.018.025l-.01.012-.009.012a.146.146 0 00-.009.013l-.01.012-.009.012-.009.013-.009.012-.01.012a.96.96 0 01-.019.025l-.008.012-.01.013a.96.96 0 00-.008.012l-.01.012-.009.013-.01.012-.008.012-.01.013-.009.012-.01.012-.008.013-.01.012-.009.012-.01.013a.96.96 0 01-.008.012l-.01.012-.009.013-.01.012a.96.96 0 01-.008.012l-.01.013-.009.012-.01.012-.008.013a.96.96 0 00-.019.024l-.01.013-.008.012-.01.012a.146.146 0 01-.009.013l-.01.012-.008.012a.146.146 0 01-.01.013l-.009.012-.01.012-.008.013-.01.012-.009.013-.01.012-.008.012-.01.013-.009.012-.01.012-.008.013-.01.012a.96.96 0 00-.027.037l-.01.012a.146.146 0 00-.009.013l-.01.012-.008.012-.01.013-.009.012-.01.012-.008.013-.01.012-.009.012-.01.013a.96.96 0 01-.008.012l-.01.012-.009.013-.01.012-.008.012-.01.013-.009.012a.96.96 0 00-.009.012l-.01.013-.008.012-.01.012-.009.013-.01.012-.008.012a.146.146 0 01-.01.013l-.009.012-.01.012a4412937204.85 4412937204.85 0 00-.019.025l-.008.012-.01.013-.008.012-.01.012-.009.013-.01.012a.96.96 0 01-.009.012l-.009.013-.009.012a.128.128 0 00-.01.013l-.009.012a.96.96 0 00-.046.062l-.009.012-.01.012-.008.013-.01.012-.009.012-.01.013-.008.012a.96.96 0 01-.01.012l-.009.013-.01.012-.008.012-.01.013a.96.96 0 00-.018.024l-.01.013-.009.012-.009.012-.01.013a.96.96 0 00-.008.012l-.01.012-.009.013-.01.012-.008.012-.01.013-.009.012-.01.012a.146.146 0 01-.008.013l-.01.012a.96.96 0 01-.009.012l-.01.013-.008.012a4412937204.85 4412937204.85 0 01-.028.037l-.01.012c-.002.005-.006.009-.009.013l-.009.012a.96.96 0 00-.01.012l-.008.013-.01.012-.009.013-.01.012a4412937204.85 4412937204.85 0 01-.018.025l-.009.012-.01.012-.008.013-.01.012-.009.012-.01.013-.008.012-.01.012a.146.146 0 00-.009.013l-.01.012-.008.012-.01.013 1.6 1.199.01-.012.01-.013a.96.96 0 01.009-.012l.009-.012.01-.013.008-.012.01-.012.009-.013.01-.012.008-.012.01-.013.009-.012.01-.012.008-.013.01-.012.009-.012.01-.013.008-.012.01-.012a4412937204.85 4412937204.85 0 00.019-.025l.008-.012.01-.013.009-.012.01-.013a.96.96 0 01.008-.012l.01-.012.009-.013.01-.012a.96.96 0 01.027-.037l.009-.012.01-.013a.96.96 0 00.027-.037l.01-.012.008-.012.01-.013.009-.012.01-.012a.05.05 0 01.009-.013l.009-.012.009-.012.01-.013.009-.012.009-.012.009-.013.01-.012a.96.96 0 01.008-.012l.01-.013.009-.012.01-.012.008-.013a.96.96 0 00.01-.012l.009-.012.01-.013.008-.012.01-.012.009-.013.01-.012.008-.012a.146.146 0 01.01-.013l.009-.012a.96.96 0 01.028-.037l.009-.012a.128.128 0 01.01-.013l.009-.012.009-.013.009-.012.01-.012a4412937204.85 4412937204.85 0 01.019-.025l.008-.012.01-.013.008-.012a4412937204.85 4412937204.85 0 01.019-.025l.01-.012.008-.012a.146.146 0 00.01-.013l.009-.012.01-.012.008-.013.01-.012.009-.012.01-.013a.96.96 0 01.008-.012l.01-.012.009-.013.01-.012.008-.012.01-.013.009-.012a.96.96 0 00.01-.012l.008-.013.01-.012.009-.012.01-.013.008-.012.01-.012a.146.146 0 01.009-.013l.01-.012.008-.012a.146.146 0 01.01-.013l.009-.012a.96.96 0 01.028-.037l.009-.012.01-.013.008-.012.01-.012.009-.013.01-.012.008-.012a.146.146 0 01.01-.013l.009-.012.01-.013.008-.012.01-.012a.146.146 0 00.009-.013l.01-.012.008-.012a.146.146 0 00.01-.013l.009-.012.01-.012.008-.013.01-.012.009-.012.01-.013a.96.96 0 01.008-.012l.01-.012.009-.013a.96.96 0 00.009-.012l.01-.012.008-.013.01-.012a.96.96 0 00.009-.012l.01-.013.008-.012.01-.012.009-.013.01-.012.008-.012.01-.013.009-.012.01-.012.008-.013.01-.012a.96.96 0 01.009-.012l.01-.013.008-.012a.96.96 0 00.019-.025l.01-.012.008-.012.01-.013.009-.012.01-.012a.146.146 0 01.009-.013l.009-.012.009-.012a4412937204.85 4412937204.85 0 00.019-.025l.009-.012.009-.013.01-.012a.96.96 0 01.019-.025l.008-.012.01-.013.008-.012a.96.96 0 01.037-.049.96.96 0 00.028-.037l.01-.013.009-.012.009-.012.01-.013.008-.012.01-.012.009-.013.01-.012.008-.012.01-.013a.96.96 0 01.009-.012l.01-.012.008-.013.01-.012.009-.012.01-.013.008-.012.01-.012a.146.146 0 01.009-.013l.01-.012.008-.012.01-.013.009-.012.01-.012.008-.013.01-.012.009-.012a4412937204.85 4412937204.85 0 00.019-.025l.009-.012.009-.013.01-.012a4412937204.85 4412937204.85 0 01.018-.025l.009-.012.01-.013.008-.012a.96.96 0 01.028-.037l.01-.012.009-.013a.96.96 0 00.009-.012l.01-.012.008-.013.01-.012.009-.012.01-.013.008-.012.01-.012.009-.013.01-.012a.96.96 0 01.008-.012l.01-.013.009-.012.01-.012.008-.013.01-.012a.96.96 0 01.009-.012l.009-.013.01-.012.008-.012.01-.013a.96.96 0 00.009-.012l.01-.012.008-.013.01-.012.009-.012.01-.013.009-.012.009-.012a.146.146 0 01.009-.013l.01-.012a.96.96 0 01.027-.037l.01-.012a.128.128 0 01.008-.013l.01-.012a.96.96 0 01.009-.012l.01-.013.008-.012.01-.012.009-.013.01-.012.008-.013.01-.012a4412937204.85 4412937204.85 0 01.018-.025l.01-.012.009-.012a.146.146 0 00.009-.013l.01-.012.008-.012a4412937204.85 4412937204.85 0 00.019-.025l.01-.012.009-.013a.96.96 0 01.009-.012l.009-.012.01-.013.008-.012.01-.012.009-.013.01-.012a.96.96 0 00.008-.012l.01-.013.009-.012.01-.012.008-.013.01-.012.009-.012.01-.013.008-.012.01-.012.009-.013.01-.012a.96.96 0 01.027-.037l.01-.012.008-.013.01-.012.009-.012.01-.013.008-.012.01-.012.009-.013.01-.012.008-.012a.146.146 0 01.01-.013l.009-.012a.146.146 0 00.01-.013l.008-.012.01-.012a.146.146 0 00.009-.013l.01-.012.008-.012.01-.013.009-.012a.96.96 0 01.01-.012l.008-.013.01-.012.009-.012.01-.013a.96.96 0 00.008-.012l.01-.012a.128.128 0 00.009-.013l.01-.012a.96.96 0 00.008-.012l.01-.013.009-.012.01-.012.008-.013.01-.012.009-.012.01-.013.008-.012.01-.012.009-.013.01-.012a.96.96 0 01.008-.012l.01-.013.009-.012a.96.96 0 00.018-.025l.01-.012.009-.012.009-.013.01-.012.008-.012a.146.146 0 01.01-.013l.009-.012.01-.012a4412937204.85 4412937204.85 0 00.019-.025l.008-.012.01-.013.008-.012a4412937204.85 4412937204.85 0 00.019-.025l.01-.012.008-.013.01-.012a.96.96 0 01.009-.012l.01-.013a.96.96 0 01.036-.049l.01-.012.009-.013.009-.012.01-.012a.146.146 0 00.009-.013l.009-.012.009-.012.01-.013.008-.012.01-.012.009-.013a.96.96 0 01.01-.012l.008-.012.01-.013.009-.012.01-.012.008-.013.01-.012.009-.012.01-.013.008-.012.01-.012.009-.013.01-.012.008-.012a.146.146 0 01.01-.013l.009-.012a4412937204.85 4412937204.85 0 00.028-.037l.009-.012.01-.013.008-.012a4412937204.85 4412937204.85 0 01.019-.025l.01-.012a.96.96 0 01.027-.037.128.128 0 00.01-.013l.008-.012a.96.96 0 00.047-.062l.009-.012.01-.012.008-.013.01-.012.009-.012a.146.146 0 00.01-.013l.008-.012a.96.96 0 01.019-.025l.01-.012.008-.012.01-.013.009-.012a.96.96 0 01.01-.012l.008-.013.01-.012.009-.012.01-.013a.96.96 0 00.008-.012l.01-.012.009-.013.01-.012.008-.012.01-.013.009-.012a4412937204.85 4412937204.85 0 00.018-.025l.01-.012a.96.96 0 01.009-.012l.01-.013.008-.012.01-.012a.128.128 0 01.009-.013l.01-.012a.96.96 0 01.008-.012l.01-.013.009-.012.009-.012.01-.013a.96.96 0 00.008-.012l.01-.012.009-.013.01-.012a.146.146 0 00.009-.013l.009-.012.009-.012a.146.146 0 00.01-.013l.009-.012.009-.012.009-.013.01-.012.008-.012.01-.013.009-.012.01-.012.008-.013.01-.012.009-.012.01-.013.008-.012a.96.96 0 00.01-.012l.009-.013.01-.012.008-.012.01-.013.009-.012.01-.012.008-.013.01-.012.009-.012.01-.013.008-.012a.96.96 0 01.01-.012l.009-.013a.96.96 0 01.01-.012l.009-.012.009-.013.009-.012.01-.012.008-.013.01-.012.009-.012.01-.013.008-.012a4412937204.85 4412937204.85 0 01.019-.025l.01-.012.008-.012a.146.146 0 01.01-.013l.009-.012a.146.146 0 00.01-.013l.008-.012.01-.012-1.6-1.2zm-4.754 6.345a125.78 125.78 0 01-4.697 6.268l1.564 1.247a127.69 127.69 0 004.772-6.368l-1.639-1.147zm-4.734 6.318c-.322.46-.818.983-1.52 1.567l1.278 1.537c.786-.653 1.423-1.304 1.88-1.957l-1.638-1.147zm-1.477 1.532c-.612.454-1.346.935-2.207 1.443l1.017 1.723c.905-.535 1.7-1.054 2.382-1.559l-1.192-1.607zm-2.294 1.501c-.381.283-.887.599-1.528.946l.952 1.759a14.976 14.976 0 001.767-1.098l-1.19-1.607zm-1.415.894c-.096.037-.425.091-1.17-.43l-1.147 1.638c.924.647 1.999 1.062 3.044.655l-.727-1.863zm-.745.459c.063-.895.272-1.332.452-1.524l-1.46-1.367c-.64.684-.911 1.671-.988 2.75l1.995.141zm.51-1.591c6.883-8.793 13.182-17.789 18.896-26.988l-1.699-1.056c-5.674 9.137-11.932 18.074-18.773 26.811l1.575 1.233zM43.05 149.25l17.375-27.921-1.698-1.057-17.375 27.922 1.698 1.056zm17.381-27.931c4.723-7.78 9.387-15.551 13.991-23.31l-1.72-1.022a2725.12 2725.12 0 01-13.98 23.295l1.71 1.037zm13.996-23.318c4.585-7.88 9.1-15.81 13.547-23.788l-1.748-.974a1474.67 1474.67 0 01-13.528 23.756l1.729 1.006zm13.522-23.747a248.783 248.783 0 007.048-12.07l-1.755-.96a246.842 246.842 0 01-6.991 11.974l1.698 1.056zm7.048-12.07a380.82 380.82 0 006.441-12.314l-1.788-.895a379.244 379.244 0 01-6.408 12.25l1.755.959zm6.366-12.188c.506-.723.998-1.503 1.478-2.34l-1.736-.993c-.452.79-.912 1.518-1.38 2.186l1.638 1.147zm1.471-2.327a37.092 37.092 0 011.533-2.407l-1.638-1.147a39.832 39.832 0 00-1.617 2.536l1.722 1.018zm1.464-2.32a10.11 10.11 0 011.577-1.442l-1.192-1.606c-.7.52-1.33 1.095-1.886 1.727l1.501 1.321zm1.577-1.442c.31-.23.856-.372 1.853-.124l.482-1.941c-1.297-.323-2.545-.27-3.527.459l1.192 1.606zm1.88-.118c.917.201 1.582.575 2.058 1.082.477.509.826 1.218.997 2.193l1.97-.348c-.224-1.27-.711-2.364-1.509-3.214-.8-.852-1.85-1.395-3.088-1.666l-.428 1.953zm3.049 3.232a96.195 96.195 0 001.453 8.24l1.952-.433a94.217 94.217 0 01-1.422-8.069l-1.983.262zm1.453 8.24a62.576 62.576 0 011.24 8.056l1.993-.175a64.62 64.62 0 00-1.281-8.314l-1.952.432zm1.252 8.142a914.953 914.953 0 012.976 17.916l1.976-.308a903.681 903.681 0 00-2.983-17.955l-1.969.347zm2.976 17.915a449.84 449.84 0 003.133 17.766l1.962-.386a450.276 450.276 0 01-3.119-17.687l-1.976.307zm3.126 17.728c.986 6.284 1.952 12.45 2.896 18.498l1.976-.309a30344.4 30344.4 0 00-2.896-18.499l-1.976.31zm2.899 18.517a975.475 975.475 0 003.4 18.246l1.963-.385a963.377 963.377 0 01-3.393-18.208l-1.97.347zm3.406 18.274a143.66 143.66 0 001.826 7.224l1.926-.541a141.296 141.296 0 01-1.801-7.124l-1.951.441zm1.826 7.224a140.229 140.229 0 011.801 7.124l1.951-.441a143.66 143.66 0 00-1.826-7.224l-1.926.541zm2.95 7.888c.039-.006.034 0-.002-.006a.426.426 0 01-.182-.076l1.147-1.638c-.433-.303-.922-.318-1.31-.249l.347 1.969zm.563.084h.002l.001-.001h.005v-.001h.005l.001-.001h.005l.001-.001h.005l.001-.001h.005v-.001h.005l.001-.001h.005v-.001h.006l.001-.001h.004l.001-.001h.005l.001-.001h.005v-.001h.005l.001-.001h.005v-.001h.006l.001-.001h.004l.001-.001h.005l.001-.001h.004l.001-.001h.005l.001-.001h.005l.001-.001h.005v-.001h.005l.001-.001h.005l.001-.001h.004l.001-.001h.006v-.001h.005l.001-.001h.005v-.001h.005l.001-.001h.005v-.001h.006l.001-.001h.005v-.001h.005l.001-.001h.005V151h.005l.001-.001h.005v-.001h.006l.001-.001h.004l.001-.001h.005l.001-.001h.005v-.001h.005l.001-.001h.005l.001-.001h.005l.001-.001h.004l.001-.001h.005l.001-.001h.004l.001-.001h.006v-.001h.005l.001-.001h.005v-.001h.005l.001-.001h.005l.001-.001h.005l.001-.001h.005v-.001h.005l.001-.001h.005v-.001h.005l.001-.001h.005v-.001h.006l.001-.001h.005v-.001h.005l.001-.001h.005v-.001h.005l.001-.001h.005l.001-.001h.005l.001-.001-.348-1.969h-.003l-.001.001h-.005v.001h-.006l-.001.001h-.004l-.001.001h-.005l-.001.001h-.005v.001h-.005l-.001.001h-.005l-.001.001h-.005l-.001.001h-.004l-.001.001h-.005l-.001.001h-.004l-.001.001h-.006v.001h-.005l-.001.001h-.005v.001h-.005l-.001.001h-.005l-.001.001h-.004l-.001.001h-.006v.001h-.005l-.001.001h-.005v.001h-.005l-.001.001h-.005v.001h-.006l-.001.001h-.005v.001h-.005l-.001.001h-.005v.001h-.005l-.001.001h-.005l-.001.001h-.005l-.001.001h-.004l-.001.001h-.005l-.001.001h-.005v.001h-.006v.001h-.005l-.001.001h-.005l-.001.001h-.004l-.001.001h-.005l-.001.001h-.004l-.001.001h-.006v.001h-.005l-.001.001h-.005v.001h-.005l-.001.001h-.005l-.001.001h-.005l-.001.001h-.005v.001h-.005l-.001.001h-.005v.001h-.005l-.001.001h-.005l-.001.001h-.005l-.001.001h-.005v.001h-.005l-.001.001h-.005v.001h-.006l-.001.001h-.004l-.001.001h-.005l-.001.001h-.004l-.001.001h-.005l-.001.001h-.005v.001h-.006v.001h-.005l-.001.001h-.004l.347 1.97zm.872-.324c.645-.616 1.167-1.226 1.424-1.813l-1.831-.803c-.091.206-.368.59-.975 1.17l1.382 1.446zm1.47-1.939a333.55 333.55 0 014.898-15.624l-1.893-.645a336.01 336.01 0 00-4.928 15.718l1.923.551zm4.898-15.624l5.299-15.557-1.893-.645-5.299 15.557 1.893.645zm5.292-15.537a1097.896 1097.896 0 006.233-17.564l-1.89-.653a1108.815 1108.815 0 01-6.222 17.533l1.879.684zm6.231-17.557a450.596 450.596 0 016.713-17.78l-1.856-.745a454.016 454.016 0 00-6.743 17.858l1.886.667zm6.723-17.804a302.818 302.818 0 004.249-12.303l-1.903-.614a299.716 299.716 0 01-4.221 12.22l1.875.697zm4.246-12.293a640.733 640.733 0 004.377-13.586l-1.91-.592a637.873 637.873 0 01-4.364 13.544l1.897.634zm4.381-13.597l4.016-13.502-1.917-.57-4.016 13.502 1.917.57zm4.016-13.502l3.557-11.96-1.917-.57-3.557 11.96 1.917.57zm3.557-11.96c1.133-3.807 2.491-6.108 3.945-7.187l-1.191-1.606c-1.995 1.48-3.508 4.314-4.671 8.223l1.917.57zm3.983-7.217c.784-.642 1.408-.94 1.881-1.023.427-.076.776.012 1.119.284l1.241-1.568a3.306 3.306 0 00-2.707-.686c-.945.167-1.882.692-2.802 1.447l1.268 1.546zm3.047-.704c.311.218.633.646.879 1.446.246.798.391 1.885.404 3.292l2-.019c-.014-1.513-.168-2.81-.492-3.862-.324-1.049-.842-1.934-1.644-2.495l-1.147 1.638zm1.283 4.73c.006 2.568-1.031 6.07-3.255 10.566l1.792.886c2.268-4.582 3.47-8.42 3.463-11.456l-2 .005zm22.627 67.468l-.527-.85-.154.095-.11.143.791.612zm1.501-.813l.408.913.1-.044.088-.066-.596-.803zm1.471-.99l-.334-.943-.101.036-.092.057.527.85zm3.232.709l.842-.539-.03-.047-.036-.044-.776.63zm-.532 3.201l-.566-.825-.02.014-.019.014.605.797zm-12.743 7.548l.407.913-.407-.913zm-13.806 4.627l-.223-.975-.01.003-.011.002.244.97zm-5.318.938l.107.994h.004l-.111-.994zm-5.183-.366l-.285.959.015.004.015.004.255-.967zm-3.722-2.451l-.803.596.011.014.011.014.781-.624zm-1.177-5.641l-.987-.161-.008.045-.003.046.998.07zm1.429-5.37l.892.452-.892-.452zm3.546-3.732l-.559-.83-.028.02-.027.02.614.79zm6.215-3.106l.325.945.019-.006.019-.008-.363-.931zm6.611-1.897l-.058-.999-.058.004-.058.01.174.985zm4.076 2.388l.936-.352-.004-.011-.932.363zm-1.199 4.598l-.64-.769-.008.007-.008.007.656.755zm-3.379 2.607l.5.866.033-.02.033-.022-.566-.824zm-3.827 2.137l.383.923.048-.019.045-.025-.476-.88zm-9.583 3.7l-.995-.104-.006.057.001.056 1-.009zm1.47 2.117l-.574.819.574-.819zm6.548.856l.134.991.02-.003.02-.003-.174-.985zm9.27-2.366l.311.95.014-.004.013-.005-.338-.941zm9.135-4.17l-.487-.873-.01.006.497.868zM185.07 93.19l.794.609.051-.067.039-.074-.884-.468zm-.281-1.595l.009 1 .083-.001.082-.014-.174-.985zm-3.274 1.126l-.456-.89-.01.005-.01.005.476.88zm-4.589 3.002l.596.803-.596-.803zm-4.463 3.711l-.691-.723-1.919 1.834 2.652-.112-.042-.999zm6.788-1.928l.408.913.018-.007.017-.009-.443-.897zm25.157-1.482c.521-.324.981-.571 1.382-.75l-.815-1.826c-.503.224-1.045.519-1.621.876l1.054 1.7zm1.57-.86c.405-.3.871-.615 1.402-.944l-1.054-1.7a22.24 22.24 0 00-1.539 1.038l1.191 1.606zm1.208-.85c.568-.201.986-.222 1.293-.154.291.064.565.224.829.55l1.553-1.26c-.513-.633-1.167-1.071-1.954-1.244-.77-.169-1.579-.064-2.388.222l.667 1.885zm2.057.305c.345.54.386.882.353 1.083-.03.183-.156.444-.609.754l1.131 1.65c.743-.51 1.304-1.193 1.451-2.076.144-.867-.146-1.715-.642-2.489l-1.684 1.078zm-.295 1.865a63.465 63.465 0 01-12.546 7.431l.815 1.827a65.505 65.505 0 0012.94-7.664l-1.209-1.594zm-12.546 7.431a73.586 73.586 0 01-13.621 4.566l.445 1.95a75.617 75.617 0 0013.991-4.689l-.815-1.827zm-13.642 4.571a39.47 39.47 0 01-5.186.914l.223 1.988a41.62 41.62 0 005.45-.962l-.487-1.94zm-5.182.914c-1.678.182-3.282.067-4.82-.339l-.51 1.934c1.786.471 3.636.6 5.545.393l-.215-1.988zm-4.79-.33c-1.362-.405-2.424-1.113-3.225-2.117L168 108.2c1.075 1.346 2.494 2.273 4.218 2.786l.57-1.917zm-3.204-2.088c-.757-1.022-1.149-2.624-.983-4.975l-1.995-.141c-.182 2.583.212 4.743 1.372 6.307l1.606-1.191zm-.993-4.884c.408-2.496.866-4.155 1.334-5.08l-1.784-.904c-.616 1.217-1.111 3.137-1.524 5.661l1.974.323zm1.334-5.08c.439-.866 1.475-2 3.268-3.395l-1.228-1.578c-1.85 1.44-3.178 2.795-3.824 4.07l1.784.903zm3.212-3.355a25.537 25.537 0 015.982-2.99l-.65-1.891a27.511 27.511 0 00-6.449 3.223l1.117 1.658zm6.02-3.004c2.227-.868 4.367-1.481 6.421-1.844l-.347-1.97c-2.2.389-4.467 1.04-6.801 1.95l.727 1.864zm6.305-1.83c.888-.05 1.53.101 1.995.373.454.266.827.699 1.093 1.38l1.863-.726c-.401-1.029-1.041-1.85-1.946-2.38-.894-.523-1.956-.71-3.12-.644l.115 1.997zm3.084 1.742c.288.767.321 1.393.184 1.916-.137.523-.468 1.046-1.088 1.561l1.279 1.538c.868-.722 1.481-1.584 1.744-2.594.263-1.008.152-2.063-.248-3.125l-1.871.704zm-.92 3.491a36.429 36.429 0 01-3.289 2.537l1.132 1.65a38.42 38.42 0 003.468-2.677l-1.311-1.51zm-3.223 2.495a161.79 161.79 0 01-3.803 2.124l.952 1.759a163.439 163.439 0 003.851-2.15l-1-1.733zm-3.71 2.08c-.982.407-2.036.77-3.162 1.087l.541 1.925a29.946 29.946 0 003.387-1.165l-.766-1.847zm-3.162 1.087a35.358 35.358 0 01-3.417.78l.347 1.97a37.476 37.476 0 003.611-.825l-.541-1.925zm-3.417.78c-.944.166-1.766.422-2.39.818-.65.412-1.141 1.019-1.226 1.835l1.99.208c.005-.053.025-.176.307-.354.308-.195.837-.391 1.666-.537l-.347-1.97zm-3.621 2.766c.011 1.214.826 2.178 1.896 2.927l1.147-1.638c-.876-.614-1.041-1.062-1.043-1.307l-2 .018zm1.896 2.927c1.705 1.194 4.206 1.441 7.256 1.028l-.268-1.982c-2.901.392-4.765.069-5.841-.684l-1.147 1.638zm7.296 1.022c3.006-.531 6.142-1.332 9.407-2.401l-.622-1.9c-3.187 1.043-6.23 1.819-9.133 2.331l.348 1.97zm9.434-2.41c3.372-1.213 6.471-2.626 9.294-4.243l-.994-1.735c-2.711 1.552-5.703 2.919-8.976 4.096l.676 1.882zm9.283-4.237c2.92-1.624 5.052-3.212 6.27-4.786l-1.582-1.224c-.966 1.248-2.81 2.677-5.661 4.263l.973 1.747zm-12.448-6.914c.176-.333.32-.652.413-.949.087-.278.162-.634.098-.998a1.336 1.336 0 00-.807-1.02c-.375-.158-.762-.13-1.043-.081l.348 1.97c.133-.024.068.016-.077-.045a.668.668 0 01-.391-.477c-.017-.098.013-.104-.037.053-.043.139-.128.34-.272.612l1.768.935zm-1.174-3.063c-.985.01-2.26.488-3.721 1.235l.911 1.78c1.446-.739 2.353-1.01 2.828-1.015l-.018-2zm-3.741 1.246c-1.39.752-2.96 1.782-4.708 3.079l1.191 1.606c1.701-1.261 3.189-2.233 4.469-2.926l-.952-1.759zm-4.708 3.079c-1.75 1.298-3.271 2.561-4.559 3.791l1.382 1.446c1.215-1.16 2.67-2.371 4.368-3.63l-1.191-1.607zm-3.826 5.513c1.995-.083 4.391-.781 7.154-2.014l-.815-1.826c-2.66 1.186-4.789 1.774-6.423 1.842l.084 1.998zm7.189-2.03c2.761-1.362 4.851-2.885 6.17-4.604l-1.587-1.217c-1.059 1.38-2.848 2.735-5.468 4.027l.885 1.794zm72.317-15.189l.717-.697-.843-.866-.693.99.819.573zm-8.562 11.563l-.785-.619-.018.022-.016.023.819.574zm-4.297 5.693l-.776-.63-.011.012-.01.014.797.604zm-4.682 5.577l-.737-.676-.044.049-.039.054.82.573zm-1.846 1.971l.595.803.023-.016.021-.018-.639-.769zm-2.294 1.501l.311.95.103-.033.094-.056-.508-.861zm-4.025-.021l-.509.86.028.017.029.015.452-.892zm-1.512-3.389l-.997-.071-.004.052.002.051.999-.032zm.178-3.139l.999.044v-.01l.001-.011-1-.023zm.324-3.347l-.979-.204-.002.01-.002.01.983.184zm.021-4.025l.985-.173-.387-2.193-1.382 1.746.784.62zm-2.837 3.608l.784.62.004-.005-.788-.615zm-2.69 3.398l.782.623.002-.002-.784-.621zm-8.114 8.925l-.691-.723-.071.068-.057.081.819.574zm-4.265 2.763l-.333-.943-.007.002-.007.003.347.938zm-3.493-.116l-.518.856.032.019.034.017.452-.892zm-1.657-3.18l1-.01-1 .01zm-.021-2.19l1-.009-1 .009zm.188-2.044l-.965-.262-.008.029-.006.029.979.204zm1.92-6.735l.958.285.003-.01.003-.011-.964-.264zm2.034-7.122l-.932-.363-.015.038-.012.04.959.285zm3.379-8.82l.937.351.003-.009.003-.01-.943-.332zm3.349-8.999l.931.364.015-.039.012-.04-.958-.285zm.928-1.991l.819.574-.819-.574zm2.242-.76l-.183.982.018.004.018.002.147-.989zm1.136 4.368l.937.35.015-.041.012-.042-.964-.267zm-7.354 20.488l-.945-.326-.004.012.949.314zm-1.638 5.224l-.958-.285-.009.028-.006.029.973.228zm-1.544 5.756l-.958-.285-.356 1.195 1.244.087.07-.997zm2.273-.584l.656.755.051-.044.044-.05-.751-.661zm1.346-1.699l-.773-.635-.024.03-.022.031.819.574zm6.32-7.695l.772.635.009-.01.008-.01-.789-.615zm6.257-8.048l-.784-.621-.005.007.789.614zm2.545-3.19l-.78-.628.78.627zm2.367-3.16l-.819-.573.819.573zm.292-.417l-.819-.573.819.573zm.407-.803l-.559-.83-.297.201-.103.344.959.285zm4.723-1.198l.574-.82-.081-.056-.091-.04-.402.916zm1.345 4.515l.927.375.041-.103.018-.108-.986-.164zm-1.095 3.117l.958.285-.958-.285zm-.887 3.264l.948.32.013-.04.009-.039-.97-.241zm-1.408 4.452l-.959-.285-.01.033-.007.034.976.218zm-1.2 4.598l-.959-.285-.067.227.041.232.985-.174zm.312 1.773l-.984.174.337 1.913 1.361-1.387-.714-.7zm1.878-1.793l.655.755.051-.044.044-.051-.75-.66zm1.491-1.908l-.819-.574.819.574zm7.707-11.23l.83.559-.83-.558zm7.707-11.228l.819.574.057-.082.04-.09-.916-.402zm.491-1.366l-.892-.452-.041.08-.026.087.959.285zm1.261-1.136l.364.931.125-.048.107-.08-.596-.803zm1.502-.813l.363.931.086-.033.078-.049-.527-.85zm1.418-.25l-.402.915.057.025.06.018.285-.958zm1.283 1.053l-.85.527.069.112.097.09.684-.73zm.604 1.355l-.997-.07-.009.123.021.121.985-.174zm.354 3.045l.999-.05-.001-.014-.998.064zm1.501 2.294l.602-.798-.045-.034-.048-.028-.509.86zm5.704 2.285l-.023 1h.012l.011-1zm6.058-.886l.281.96.042-.012.04-.016-.363-.932zm2.064 2.378l-.989-.147-.011.078v.078l1-.009zm-.636 1.574l.407.914.101-.045.088-.065-.596-.804zm-1.741.49l-.174-.985-.018.004-.018.004.21.977zm-9.02.677l-.121.992.02.003.02.001.081-.996zm-8.91-4.996a255.057 255.057 0 01-8.528 11.517l1.57 1.238a255.778 255.778 0 008.596-11.608l-1.638-1.147zm-8.562 11.562a98.86 98.86 0 01-4.254 5.636l1.552 1.261a100.666 100.666 0 004.34-5.75l-1.638-1.147zm-4.275 5.663a75.151 75.151 0 01-4.622 5.505l1.473 1.353a77.459 77.459 0 004.744-5.651l-1.595-1.207zm-4.705 5.608a9.136 9.136 0 01-1.666 1.775l1.279 1.538a11.166 11.166 0 002.026-2.166l-1.639-1.147zm-1.622 1.741c-.612.454-1.346.935-2.207 1.443l1.017 1.722c.905-.534 1.7-1.054 2.381-1.559l-1.191-1.606zm-2.01 1.354c-1.466.48-2.511.417-3.261.037l-.904 1.784c1.39.704 3.028.656 4.788.079l-.623-1.9zm-3.204.068c-.524-.31-.971-1.013-1.021-2.561l-1.999.065c.06 1.845.62 3.401 2.002 4.217l1.018-1.721zm-1.023-2.458c.07-.997.13-2.052.179-3.165l-1.998-.088a120.743 120.743 0 01-.176 3.112l1.995.141zm.18-3.186c.027-1.18.13-2.241.307-3.187l-1.966-.366a21.87 21.87 0 00-.341 3.507l2 .046zm.303-3.165c.143-.69.224-1.372.24-2.049l-2-.045a9.248 9.248 0 01-.198 1.685l1.958.409zm.24-2.049c.016-.696-.06-1.485-.213-2.354l-1.97.347c.139.784.195 1.435.183 1.962l2 .045zm-1.982-2.802a747.516 747.516 0 00-2.84 3.613l1.575 1.231c.993-1.27 1.938-2.47 2.833-3.602l-1.568-1.242zm-2.837 3.608l-2.69 3.399 1.568 1.241 2.69-3.399-1.568-1.241zm-2.689 3.397c-2.567 3.227-5.241 6.168-8.022 8.824l1.382 1.446c2.851-2.723 5.586-5.732 8.205-9.025l-1.565-1.245zm-8.15 8.973c-.606.866-1.8 1.694-3.779 2.394l.666 1.885c2.151-.76 3.8-1.773 4.751-3.131l-1.638-1.148zm-3.793 2.399c-1.031.381-1.903.331-2.694-.07l-.904 1.784c1.35.684 2.807.711 4.292.161l-.694-1.875zm-2.628-.033c-.748-.453-1.164-1.162-1.175-2.335l-2 .019c.016 1.747.704 3.158 2.139 4.027l1.036-1.711zm-1.175-2.335l-.021-2.189-2 .019.021 2.189 2-.019zm-.021-2.189a8.553 8.553 0 01.167-1.83l-1.958-.409a10.613 10.613 0 00-.209 2.258l2-.019zm.153-1.772a295.66 295.66 0 011.913-6.713l-1.917-.57a292.086 292.086 0 00-1.926 6.758l1.93.525zm1.919-6.734a351.41 351.41 0 012.028-7.1l-1.917-.57c-.69 2.321-1.37 4.702-2.04 7.141l1.929.529zm2.001-7.022a727.1 727.1 0 003.385-8.833l-1.873-.703a712.856 712.856 0 01-3.375 8.809l1.863.727zm3.391-8.851a298.557 298.557 0 013.337-8.968l-1.863-.727a296.144 296.144 0 00-3.359 9.028l1.885.667zm3.364-9.046c.205-.688.472-1.25.789-1.703l-1.638-1.148c-.461.66-.813 1.424-1.068 2.28l1.917.57zm.789-1.703a.835.835 0 01.428-.339c.17-.057.427-.084.812-.013l.366-1.966c-.623-.116-1.243-.11-1.821.086a2.83 2.83 0 00-1.423 1.084l1.638 1.148zm1.276-.346c.222.033.335.1.396.155.062.055.138.156.193.367.122.467.089 1.293-.27 2.592l1.928.533c.385-1.392.535-2.639.278-3.628-.135-.518-.388-.99-.796-1.355-.408-.365-.907-.564-1.435-.642l-.294 1.978zm.346 3.03a880.433 880.433 0 00-7.362 20.512l1.89.653c2.418-7 4.866-13.821 7.346-20.465l-1.874-.7zm-7.366 20.524a180.64 180.64 0 00-1.647 5.253l1.917.57a177.54 177.54 0 011.628-5.195l-1.898-.628zm-1.662 5.31a102.078 102.078 0 01-1.529 5.699l1.917.57a103.968 103.968 0 001.559-5.812l-1.947-.457zm-.641 6.981c1.141.081 2.2-.132 2.999-.826l-1.311-1.51c-.258.224-.714.4-1.547.341l-.141 1.995zm3.094-.92a20.573 20.573 0 001.414-1.787l-1.638-1.147a18.84 18.84 0 01-1.277 1.613l1.501 1.321zm1.367-1.726l6.32-7.694-1.545-1.27-6.32 7.695 1.545 1.269zm6.337-7.715l6.257-8.049-1.578-1.227-6.258 8.049 1.579 1.227zm6.252-8.042a529.093 529.093 0 012.54-3.184l-1.559-1.254a529.39 529.39 0 00-2.549 3.197l1.568 1.241zm2.54-3.184a60.184 60.184 0 002.407-3.212l-1.638-1.147a58.346 58.346 0 01-2.328 3.105l1.559 1.254zm2.407-3.212l.292-.417-1.638-1.147-.292.416 1.638 1.148zm.292-.417c.241-.344.432-.708.546-1.092l-1.917-.57a1.824 1.824 0 01-.267.514l1.638 1.148zm.146-.547c1.905-1.283 3.077-1.414 3.764-1.112l.803-1.832c-1.691-.742-3.668-.073-5.684 1.285l1.117 1.659zm3.592-1.21c.808.567 1.253 1.596.931 3.533l1.973.328c.388-2.332-.063-4.312-1.757-5.498l-1.147 1.638zm.991 3.322a35.787 35.787 0 00-1.127 3.207l1.917.57a33.94 33.94 0 011.064-3.027l-1.854-.75zm-1.127 3.207a75.965 75.965 0 00-.899 3.308l1.941.482a74.16 74.16 0 01.875-3.22l-1.917-.57zm-.876 3.23a131.288 131.288 0 00-1.419 4.486l1.917.57c.456-1.532.922-3.005 1.398-4.418l-1.896-.638zm-1.436 4.553a67.92 67.92 0 01-1.183 4.531l1.917.57a69.536 69.536 0 001.217-4.664l-1.951-.437zm-.224 4.816l-.985.174v.002h.001v.006h.001v.006h.001v.005l.001.001v.004l.001.001v.005l.001.001v.005l.001.001v.004l.001.001v.006l.001.001v.003l.001.002v.005l.001.001v.004l.001.001v.005l.001.002v.004l.001.001v.005l.001.001v.003l.001.002v.005l.001.001v.003l.001.002v.005l.001.002v.003l.001.002v.003l.001.002v.005a.003.003 0 01.001.002v.004l.001.002v.004l.001.001v.004a.003.003 0 01.001.002v.004l.001.002v.002l.001.002v.004l.001.002v.004l.001.002v.005l.001.002v.002l.001.002v.004l.001.003v.002l.001.002v.005l.001.002v.002l.001.002v.005l.001.002v.003l.001.002v.005l.001.002v.003l.001.002v.003l.001.002v.005a.003.003 0 01.001.002v.003l.001.002v.003l.001.003v.002l.001.003v.005l.001.003v.002l.001.003v.002l.001.003v.003l.001.003v.002l.001.003v.003l.001.002v.003l.001.003v.003l.001.003v.002l.001.003v.003l.001.003v.003l.001.003v.003l.001.003v.002l.001.003v.003l.001.003v.003l.001.003v.003l.001.003v.003l.001.003.001.003v.004l.001.003v.003l.001.003v.003l.001.003v.003l.001.003v.004l.001.003.001.003v.003l.001.004v.003l.001.003v.003l.001.004.001.003v.003l.001.004v.003l.001.003.001.004v.003l.001.003v.004l.001.003.001.004v.003l.001.004v.003l.001.004.001.003v.004l.001.003.001.004v.003l.001.004v.003a.008.008 0 01.001.004l.001.004v.003a.008.008 0 01.001.004l.001.004v.003a.008.008 0 01.001.004l.001.004v.003l.001.004.001.004v.004l.001.003.001.004v.004l.001.004.001.004v.003l.001.004.001.004v.004l.001.004.001.004v.004l.001.004.001.004v.004l.001.004.001.004.001.004v.004l.001.004.001.004v.004l.001.004.001.004.001.004v.004l.001.004.001.004v.004l.001.005.001.004.001.004v.004l.001.004.001.005.001.004v.004l.001.004.001.005.001.004v.004l.001.004.001.005.001.004v.005l.001.004.001.004.001.005.001.004v.005l.001.004.001.004.001.005v.004l.001.005.001.004.001.005.001.004v.005l.001.005.001.004.001.005.001.004.001.005v.005l.001.004.001.005.001.005.001.004v.005l.001.005.001.004.001.005.001.005.001.005v.004l.001.005.001.005.001.005.001.005.001.005.001.004v.005l.001.005.001.005.001.005.001.005.001.005.001.005.001.005v.005l.001.005.001.005.001.005.001.005.001.005.001.005.001.005.001.005v.005l.001.005.001.005a.013.013 0 01.001.006l.001.005.001.005.001.005.001.005.001.006.001.005.001.005v.005a.013.013 0 01.001.006l.001.005.001.005.001.005a.013.013 0 01.001.006l.001.005.001.005.001.006.001.005.001.006.001.005.001.005.001.006.001.005.001.006.001.005.001.006.001.005.001.006.001.005.001.006v.005a.013.013 0 01.001.006l.001.005a.013.013 0 01.001.006l.001.006.001.005a.013.013 0 01.001.006.013.013 0 01.001.006l.001.005a.013.013 0 01.001.006.013.013 0 01.001.006l.001.005a.013.013 0 01.001.006.013.013 0 01.001.006l.001.005a.013.013 0 01.001.006l.001.006a.013.013 0 01.001.006l.002.006.001.005.001.006.001.006.001.006.001.006.001.006.001.005.001.006.001.006.001.006.001.006.001.006.001.006.001.006.001.006.001.006a.013.013 0 01.001.006.013.013 0 01.001.006.013.013 0 01.001.006.013.013 0 01.001.006l.002.006.001.006.001.007.001.006.001.006.001.006.001.006.001.006.001.006.001.007a.013.013 0 01.001.006l.001.006.002.006.001.007.001.006.001.006.001.006.001.007.001.006a.013.013 0 01.001.006.02.02 0 01.001.007l.002.006.001.007.001.006.001.006.001.007.001.006.001.007.002.006.001.007.001.006.001.007.001.006.001.007a.013.013 0 01.001.006l.002.007.001.006.001.007.001.006.001.007.001.007.002.006.001.007.001.007.001.006.001.007.001.007.002.006.001.007.001.007.001.007a.013.013 0 01.001.006l.002.007.001.007.001.007.001.007a.013.013 0 01.001.006l.002.007.001.007.001.007.001.007.001.007.002.007 1.969-.348-.001-.007-.001-.006-.001-.007-.002-.007-.001-.007-.001-.007-.001-.007-.001-.007-.002-.006-.001-.007-.001-.007-.001-.007-.001-.006-.002-.007-.001-.007-.001-.007-.001-.006-.001-.007-.002-.007-.001-.006-.001-.007-.001-.007-.001-.006-.001-.007-.002-.006-.001-.007-.001-.007-.001-.006-.001-.007-.001-.006-.001-.007-.002-.006-.001-.007-.001-.006-.001-.007-.001-.006-.001-.007-.001-.006-.002-.006-.001-.007-.001-.006-.001-.007-.001-.006-.001-.006-.001-.007-.001-.006-.001-.006-.002-.006-.001-.007-.001-.006-.001-.006-.001-.006-.001-.007-.001-.006-.001-.006-.001-.006-.001-.006-.002-.006-.001-.007-.001-.006-.001-.006-.001-.006-.001-.006-.001-.006-.001-.006-.001-.006-.001-.006-.001-.006-.001-.006-.001-.006-.001-.006-.001-.006-.002-.006-.001-.006-.001-.006-.001-.006-.001-.006-.001-.006-.001-.005-.001-.006-.001-.006-.001-.006-.001-.006-.001-.006-.001-.005-.001-.006-.001-.006-.001-.006-.001-.005-.001-.006-.001-.006-.001-.005-.001-.006-.001-.006-.001-.005-.001-.006-.001-.006-.001-.005-.001-.006-.001-.005-.001-.006-.001-.006-.001-.005-.001-.006-.001-.005-.001-.006-.001-.005-.001-.006-.001-.005-.001-.005-.001-.006-.001-.005v-.006l-.001-.005-.001-.005-.001-.006-.001-.005-.001-.006-.001-.005-.001-.005-.001-.005-.001-.006-.001-.005-.001-.005-.001-.006-.001-.005-.001-.005v-.005l-.001-.005-.001-.006-.001-.005-.001-.005-.001-.005-.001-.005-.001-.005-.001-.005-.001-.005-.001-.005v-.005l-.001-.005-.001-.006-.001-.005-.001-.005-.001-.005-.001-.004-.001-.005v-.005l-.001-.005-.001-.005-.001-.005-.001-.005-.001-.005-.001-.005v-.005l-.001-.004-.001-.005-.001-.005-.001-.005-.001-.005-.001-.004v-.005l-.001-.005-.001-.005-.001-.004-.001-.005-.001-.005v-.004l-.001-.005-.001-.005-.001-.004-.001-.005v-.005l-.001-.004-.001-.005-.001-.004-.001-.005-.001-.004v-.005l-.001-.004-.001-.005-.001-.004v-.005l-.001-.004-.001-.005-.001-.004-.001-.005v-.004l-.001-.004-.001-.005-.001-.004v-.004l-.001-.005-.001-.004-.001-.004v-.005l-.001-.004-.001-.004-.001-.005-.001-.004v-.004l-.001-.004-.001-.004v-.005l-.001-.004-.001-.004-.001-.004v-.004l-.001-.004-.001-.004-.001-.005v-.004l-.001-.004-.001-.004v-.004l-.001-.004-.001-.004-.001-.004v-.004l-.001-.004-.001-.004v-.004l-.001-.004-.001-.003v-.004l-.001-.004-.001-.004v-.004l-.001-.004-.001-.004v-.004l-.001-.003-.001-.004-.001-.004v-.004l-.001-.003v-.004l-.001-.004-.001-.004v-.003l-.001-.004-.001-.004v-.003l-.001-.004-.001-.004v-.003l-.001-.004-.001-.003v-.004l-.001-.004v-.003l-.001-.004-.001-.003v-.004l-.001-.003-.001-.004v-.003l-.001-.004v-.003l-.001-.003-.001-.004v-.003l-.001-.004v-.003l-.001-.003-.001-.004v-.003l-.001-.003v-.004l-.001-.003v-.003l-.001-.004-.001-.003v-.003l-.001-.003v-.003l-.001-.004v-.003l-.001-.003-.001-.003v-.003l-.001-.003v-.004l-.001-.003v-.003l-.001-.003v-.003l-.001-.003v-.003l-.001-.003-.001-.003v-.003l-.001-.003v-.003l-.001-.003v-.003l-.001-.003v-.003l-.001-.003v-.002l-.001-.003v-.003l-.001-.003v-.003l-.001-.003v-.003l-.001-.002v-.003l-.001-.003v-.003l-.001-.002v-.003l-.001-.003v-.002l-.001-.003v-.003l-.001-.002v-.006l-.001-.002v-.003l-.001-.003v-.002l-.001-.003v-.002l-.001-.003v-.002l-.001-.003v-.005l-.001-.002v-.003l-.001-.002v-.003l-.001-.002v-.005l-.001-.002v-.003l-.001-.002v-.005l-.001-.002v-.002l-.001-.002v-.005l-.001-.002v-.002l-.001-.003v-.004l-.001-.002v-.002l-.001-.002v-.005l-.001-.002v-.004l-.001-.002v-.004l-.001-.002v-.002l-.001-.002v-.004l-.001-.002v-.004l-.001-.002v-.004l-.001-.001v-.004l-.001-.002v-.004l-.001-.001v-.006l-.001-.001v-.004l-.001-.002v-.003l-.001-.002v-.005l-.001-.001v-.003l-.001-.002v-.004l-.001-.002v-.004l-.001-.002v-.004l-.001-.002v-.004l-.001-.001v-.004l-.001-.001v-.005l-.001-.001v-.005l-.001-.001v-.005l-.001-.001v-.004l-.001-.001v-.005l-.001-.001v-.005h-.001v-.005l-.001-.001v-.005l-.001-.001v-.004l-.001-.001v-.005l-.001-.001v-.004l-.985.173zm1.026 2.473a32.658 32.658 0 011.819-1.738l-1.311-1.51c-.555.482-1.201 1.1-1.935 1.848l1.427 1.4zm1.914-1.833a22.743 22.743 0 001.56-1.995l-1.638-1.147a20.864 20.864 0 01-1.423 1.821l1.501 1.321zm1.56-1.995a724.548 724.548 0 007.718-11.244l-1.66-1.116a721.91 721.91 0 01-7.696 11.213l1.638 1.148zm7.718-11.244a721.91 721.91 0 017.696-11.213l-1.638-1.148a724.069 724.069 0 00-7.718 11.245l1.66 1.116zm7.793-11.385c.194-.442.371-.938.533-1.483l-1.917-.57c-.144.484-.294.899-.447 1.25l1.831.803zm.467-1.316c.157-.31.387-.522.733-.657l-.727-1.863a3.3 3.3 0 00-1.79 1.616l1.784.904zm.965-.785c.351-.26.771-.49 1.269-.685l-.726-1.863a7.402 7.402 0 00-1.734.942l1.191 1.606zm1.433-.766a1.25 1.25 0 01.413-.184.239.239 0 01.063-.004c.007 0 .01.002.013.003l.804-1.831c-.827-.363-1.664-.108-2.347.316l1.054 1.7zm.606-.142c.234.07.479.236.718.622l1.699-1.054c-.441-.713-1.052-1.248-1.847-1.485l-.57 1.917zm.884.825c.27.252.3.426.291.555l1.995.14c.06-.857-.313-1.587-.919-2.155l-1.367 1.46zm.303.8c.16.904.274 1.882.341 2.934l1.996-.128a28.64 28.64 0 00-.367-3.154l-1.97.347zm.341 2.92c.068 1.355.798 2.4 1.99 3.105l1.018-1.721c-.711-.421-.982-.905-1.011-1.484l-1.997.1zm1.898 3.043c2.078 1.565 4.177 2.437 6.282 2.486l.046-2c-1.566-.036-3.269-.686-5.125-2.083l-1.203 1.597zm6.294 2.486c2.063.022 4.181-.29 6.35-.926l-.562-1.92c-2.002.587-3.922.866-5.766.846l-.022 2zm6.432-.954c.109-.042.151-.03.165-.025.027.008.118.044.26.208l1.51-1.311c-.316-.365-.712-.67-1.2-.814a2.22 2.22 0 00-1.461.079l.726 1.863zm.425.183c.25.288.36.627.287 1.116l1.978.294c.151-1.012-.087-1.952-.755-2.721l-1.51 1.31zm.276 1.272c.005.535-.144.697-.232.762l1.192 1.607c.774-.575 1.049-1.462 1.04-2.387l-2 .018zm-.043.652c-.352.157-.847.302-1.508.418l.347 1.97c.757-.133 1.423-.315 1.975-.561l-.814-1.827zm-1.544.425c-3.088.664-5.996.879-8.729.658l-.162 1.993c2.953.24 6.058.003 9.311-.695l-.42-1.956zm-8.689.662c-2.584-.314-5.082-1.647-7.495-4.127l-1.433 1.395c2.647 2.72 5.543 4.335 8.686 4.717l.242-1.985zm23.724-6.319l-.819-.574-.413.59.429.58.803-.596zm1.648-4.129l-.981-.191-.004.022-.004.022.989.147zm-.155-3.994l-.932.364.004.01.004.01.924-.384zm-2.357-1.96l-.241.97.047.012.048.007.146-.99zm-4.421 1.876l-.649-.76-.01.008-.01.009.669.743zm-2.607 2.836l-.784-.62.784.62zm-2.097 3.66l.916.401.01-.021.008-.023-.934-.358zm-.646 3.586l-.998.075.004.05.009.049.985-.174zm2.126 2.733l.574-.82-.051-.035-.055-.03-.468.885zm4.379 3.066l-.573.819.019.014.02.012.534-.845zm4.494 2.68l-.489.872.539.303.511-.347-.561-.828zm9.385-5.859l-.495-.869.495.87zm9.26-6.567l-.646-.764-.001.002.647.762zm3.65-2.106l-.173-.985-.05.009-.048.013.271.963zm1.835.042l-.204.979.09.018.091.002.023-1zm1.491 1.2l.989.146.046-.306-.136-.278-.899.437zm-1.366 2.616l.547.837.048-.031.044-.037-.639-.769zm-2.326 1.324l-.437-.9-.057.029-.053.034.547.837zm-5.443 3.336l.462.887.021-.011.02-.012-.503-.864zm-6.298 3.67l.503.864.02-.012.019-.012-.542-.84zm-5.705 3.93l-.634-.773.634.773zm-3.483 4.087l-.906-.423-.031.067-.021.07.958.286zm-3.88 5.984l.691.723.009-.008-.7-.715zm-7.049 5.63l.534.846.009-.006.009-.006-.552-.834zm-8.134 3.627l.249.969.018-.005.019-.005-.286-.959zm-5.026.521l-.07.998.024.001.023.001.023-1zm-1.22-.699l.804-.595-.054-.073-.066-.062-.684.73zm-.99-1.47l.932-.363-.034-.086-.048-.078-.85.527zm1.398-2.44l.729.684.018-.019.017-.019-.764-.646zm8.123-7.83l.619.787.017-.014.016-.014-.652-.759zm10.147-6.724l.461.888 1.464-.76-1.351-.947-.574.82zm-1.397-.667l-.574.82.133.092.156.046.285-.958zM276 91.23l.684-.73-.08-.075-.094-.056-.51.86zm-2.856-1.69l-.574.82.032.021.033.02.509-.861zm-2.357-1.96l.701-.714-.016-.016-.018-.016-.667.745zm-1.666-10.49l-.836-.55-.013.02-.012.02.861.51zm5.621-6.475l-.64-.769-.008.007-.008.007.656.755zm7.685-4.097l.29.957.019-.005.019-.007-.328-.945zm7.622 1.763l-.846.534.03.047.035.044.781-.625zm1.219 3.806l-.995-.091.995.092zm-1.324 3.89l-.852-.525-.013.022-.013.023.878.48zm-2.191 3.127l.64.77.039-.033.035-.036-.714-.7zm-2.909 2.159l-.803.595.574.774.795-.545-.566-.825zm-.448-.47l.573-.819-.573.82zm-17.699 25.054l-.887-.46-.029.055-.022.059.938.346zm.407 2.305l-.033-1 .033 1zm3.566-1.543l.548.837.011-.008.011-.008-.57-.821zm4.787-3.951l.68.732.015-.014.014-.014-.709-.704zm4.713-5.4l.798.603 1.537-2.03-2.508.441.173.985zm-7.518 2.97l.466.885.015-.009.016-.008-.497-.868zm12.115-19.33a10.559 10.559 0 001.818-4.556l-1.979-.294a8.533 8.533 0 01-1.478 3.702l1.639 1.147zm1.81-4.511c.34-1.742.315-3.294-.214-4.569l-1.847.767c.319.769.398 1.879.098 3.419l1.963.382zm-.206-4.549c-.563-1.444-1.628-2.362-3.141-2.586l-.293 1.978c.739.11 1.245.498 1.571 1.335l1.863-.727zm-3.046-2.568c-.848-.21-1.731-.062-2.598.306-.864.366-1.77.975-2.714 1.78l1.298 1.522c.856-.73 1.588-1.203 2.197-1.462.608-.257 1.035-.28 1.334-.205l.483-1.94zm-5.332 2.104c-.893.804-1.8 1.793-2.722 2.958l1.568 1.242c.871-1.1 1.702-2.002 2.492-2.714l-1.338-1.486zm-2.722 2.958a14.853 14.853 0 00-2.246 3.923l1.867.715a12.885 12.885 0 011.947-3.396l-1.568-1.242zm-2.228 3.879c-.582 1.326-.832 2.685-.729 4.063l1.995-.15c-.077-1.027.104-2.06.565-3.11l-1.831-.803zm-.716 4.162c.27 1.53 1.205 2.681 2.644 3.442l.935-1.767c-.98-.519-1.463-1.19-1.61-2.022l-1.969.347zm2.538 3.378l4.379 3.066 1.147-1.638-4.379-3.067-1.147 1.639zm4.418 3.092c1.523.962 3.035 1.864 4.539 2.707l.978-1.744a99.696 99.696 0 01-4.449-2.654l-1.068 1.691zm5.589 2.663a140.3 140.3 0 019.319-5.818l-.99-1.738a142.337 142.337 0 00-9.451 5.9l1.122 1.656zm9.319-5.818c3.161-1.8 6.299-4.026 9.413-6.675l-1.295-1.523c-3.032 2.578-6.068 4.73-9.108 6.46l.99 1.738zm9.412-6.673c1.202-1.018 2.293-1.63 3.274-1.906l-.542-1.926c-1.341.377-2.682 1.169-4.025 2.305l1.293 1.527zm3.177-1.884c.456-.08.939-.073 1.457.036l.409-1.958a5.815 5.815 0 00-2.213-.048l.347 1.97zm1.638.056c.086.002.317.026.615.638l1.798-.875c-.466-.96-1.229-1.736-2.367-1.762l-.046 2zm.525.053c-.138.929-.494 1.561-1.016 1.995l1.278 1.538c.966-.803 1.52-1.915 1.716-3.24l-1.978-.293zm-.925 1.927c-.731.479-1.469.899-2.215 1.262l.875 1.798a22.104 22.104 0 002.435-1.386l-1.095-1.674zm-2.325 1.324c-1.511.99-3.31 2.092-5.399 3.309l1.006 1.728c2.11-1.23 3.94-2.35 5.488-3.363l-1.095-1.674zm-5.358 3.286a79.671 79.671 0 00-6.379 3.716l1.085 1.68a77.559 77.559 0 016.218-3.622l-.924-1.774zm-6.34 3.692c-2.141 1.248-4.086 2.588-5.835 4.022l1.269 1.546c1.658-1.36 3.515-2.64 5.573-3.84l-1.007-1.728zm-5.835 4.022c-1.766 1.448-3.049 2.923-3.755 4.437l1.813.845c.531-1.14 1.57-2.39 3.211-3.736l-1.269-1.547zm-3.807 4.575c-.552 1.854-1.734 3.708-3.621 5.555l1.399 1.429c2.062-2.018 3.466-4.154 4.139-6.414l-1.917-.57zm-3.612 5.546a49.667 49.667 0 01-6.911 5.519l1.104 1.668a51.664 51.664 0 007.188-5.741l-1.381-1.446zm-6.893 5.507c-2.327 1.469-4.954 2.642-7.885 3.515l.571 1.917c3.088-.92 5.885-2.165 8.382-3.74l-1.068-1.692zM266 110.624c-1.413.363-2.996.53-4.755.489l-.046 2c1.912.044 3.68-.137 5.298-.552l-.497-1.937zm-4.707.492c-.176-.013-.325-.078-.487-.297l-1.607 1.191c.477.643 1.141 1.043 1.953 1.101l.141-1.995zm-.607-.432a2.954 2.954 0 01-.742-1.103l-1.864.726c.276.707.69 1.323 1.239 1.837l1.367-1.46zm-.824-1.267a.69.69 0 01-.075-.151c-.006-.018.003 0-.002.044a.298.298 0 01-.043.126c-.018.029-.027.029.002.008l-1.192-1.607c-.385.286-.698.708-.756 1.266-.054.521.133.992.366 1.368l1.7-1.054zm-.118.027c.484-.36.949-.78 1.395-1.256l-1.459-1.367c-.374.399-.75.736-1.128 1.016l1.192 1.607zm1.43-1.294a54.508 54.508 0 017.978-7.689l-1.237-1.573a56.616 56.616 0 00-8.269 7.971l1.528 1.291zm8.011-7.717c2.79-2.396 6.106-4.596 9.956-6.595l-.922-1.775c-3.964 2.059-7.412 4.342-10.337 6.853l1.303 1.517zm10.069-8.302a5.809 5.809 0 00-1.686-.807l-.57 1.917a3.8 3.8 0 011.108.529l1.148-1.639zm-1.398-.667c-.372-.26-.763-.58-1.172-.964l-1.367 1.46c.466.436.93.819 1.392 1.142l1.147-1.638zm-1.346-1.095l-2.857-1.69-1.018 1.722 2.856 1.69 1.019-1.722zm-2.793-1.648a17.573 17.573 0 01-2.229-1.855l-1.401 1.427c.775.761 1.603 1.45 2.483 2.066l1.147-1.638zm-2.263-1.887c-1.457-1.304-2.271-2.712-2.538-4.225l-1.97.347c.359 2.033 1.448 3.823 3.174 5.368l1.334-1.49zm-2.538-4.225c-.286-1.62.041-3.278 1.065-5.01l-1.721-1.019c-1.228 2.077-1.695 4.215-1.314 6.376l1.97-.347zm1.04-4.97c1.587-2.41 3.401-4.497 5.441-6.269l-1.311-1.51c-2.186 1.898-4.12 4.127-5.801 6.68l1.671 1.1zm5.425-6.255c2.125-1.767 4.566-3.07 7.336-3.909l-.58-1.914c-3.014.913-5.696 2.34-8.035 4.285l1.279 1.538zm7.374-3.921c1.677-.583 2.999-.694 4.022-.457.988.228 1.791.803 2.426 1.81l1.692-1.068c-.887-1.406-2.115-2.332-3.668-2.69-1.518-.352-3.246-.139-5.128.516l.656 1.889zm6.513 1.443c.794.994 1.104 2.011 1.005 3.09l1.991.183c.152-1.646-.352-3.167-1.434-4.522l-1.562 1.249zm1.005 3.09c-.111 1.2-.499 2.35-1.181 3.456l1.703 1.05c.834-1.355 1.329-2.798 1.469-4.323l-1.991-.183zm-1.207 3.501c-.712 1.303-1.391 2.26-2.026 2.907l1.427 1.401c.811-.826 1.592-1.955 2.354-3.349l-1.755-.959zm-1.952 2.839c-.711.591-1.654 1.291-2.836 2.102l1.132 1.65c1.21-.83 2.207-1.57 2.983-2.215l-1.279-1.537zm-1.467 2.33a3.06 3.06 0 00-.678-.692l-1.147 1.638c.015.011.09.073.219.246l1.606-1.191zm-.678-.692a1.236 1.236 0 01-.218-.246l-1.607 1.192c.191.257.415.508.678.692l1.147-1.638zm-19.21 25.527c-.295.799-.495 1.602-.378 2.269.066.372.244.769.619 1.052.363.274.782.341 1.136.329l-.065-1.999c-.069.002.014-.016.132.072.129.098.15.211.148.199-.005-.028-.014-.138.03-.366.041-.22.122-.506.255-.864l-1.877-.692zm1.377 3.65c1.147-.037 2.539-.696 4.082-1.705l-1.095-1.674c-1.516.992-2.503 1.362-3.052 1.38l.065 1.999zm4.104-1.721c1.463-1.015 3.096-2.365 4.897-4.04l-1.361-1.465c-1.758 1.634-3.316 2.918-4.676 3.862l1.14 1.643zm4.926-4.068a54.632 54.632 0 004.802-5.501l-1.595-1.207a52.59 52.59 0 01-4.626 5.299l1.419 1.409zm3.831-7.09c-2.395.422-5.012 1.467-7.842 3.088l.994 1.736c2.704-1.549 5.099-2.484 7.195-2.854l-.347-1.97zm-7.81 3.07c-2.927 1.54-5.082 3.546-6.377 6.045l1.775.92c1.069-2.06 2.884-3.801 5.533-5.194l-.931-1.77z" fill="#3182B2"/></g></svg>