<svg width="232" height="205" fill="none" xmlns="http://www.w3.org/2000/svg"><g opacity=".15"><mask id="path-1-inside-1_2348_2254" fill="#fff"><path d="M123.88 44.138c-2.128 3.482-3.869 7.08-5.403 10.822-.261.595-.344 1.158-.813 1.606-.47.448-1.116.928-1.502.813-.417-.292-.897-.938-.959-1.293-.156-.886.282-1.512.511-2.283 1.763-4.515 3.557-8.853 5.56-13.044.667-1.397 1.397-2.44 2.513-3.368 1.846-1.97 4.338-1.313 4.984 1.315.427 1.387.323 2.867.218 4.348-.345 7.372-.898 14.598-1.243 21.97-.022 4.025.196 8.373.238 12.752.177-.031.385.115.74.052.761-.865 1.168-1.668 1.961-2.356 10.606-14.482 21.932-27.994 35.197-39.837 6.163-5.473 12.566-10.623 20.376-14.011 7.247-3.471 19.457-1.603 5.766 2.639-7.612 2.439-14.109 7.057-20.126 12.322A215.052 215.052 0 00140.226 70.5c-3.598 4.472-6.664 8.852-10.085 13.293-.907 1.074-1.22 2.408-.97 3.827 2.396 15.661 7.034 30.562 16.834 43.639 9.32 12.431 21.529 20.514 36.595 24.071 3.796.793 20.156 3.392 12.179 4.798-10.344 1.459-19.78-1.264-28.612-5.738-14.513-7.677-25.095-18.971-32.1-33.82-3.836-8.28-6.848-17.07-8.411-25.933-.125-.71-.25-1.419-.49-1.742-.062-.354-.062-.354-.511-.824-.73 1.043-1.314 1.877-2.075 2.742-7.269 10.604-14.507 21.384-21.954 32.019-9.344 13.345-19.377 25.898-30.212 38.044-7.405 8.8-15.018 17.453-22.662 25.929-3.369 3.702-7.363 6.965-11.002 10.165-2.086 1.648-4.62 2.825-7.133 3.086-1.063.187-2.513.26-2.585-1.189-.094-.532.573-1.929 1.282-2.054 8.52-3.513 14.224-10.551 20.169-17.265 10.919-12.709 22.161-25.658 32.986-38.899 12.463-15.357 23.612-31.945 34.615-48.325 2.159-3.305 4.672-6.672 6.8-10.155.761-.865 1.074-2.2 1.032-3.472-1.208-12.033-.403-24.055.548-36.286.083-.563-.011-1.095-.104-1.627.146-.208-.063-.354-.48-.646z"/></mask><path d="M123.88 44.138c-2.128 3.482-3.869 7.08-5.403 10.822-.261.595-.344 1.158-.813 1.606-.47.448-1.116.928-1.502.813-.417-.292-.897-.938-.959-1.293-.156-.886.282-1.512.511-2.283 1.763-4.515 3.557-8.853 5.56-13.044.667-1.397 1.397-2.44 2.513-3.368 1.846-1.97 4.338-1.313 4.984 1.315.427 1.387.323 2.867.218 4.348-.345 7.372-.898 14.598-1.243 21.97-.022 4.025.196 8.373.238 12.752.177-.031.385.115.74.052.761-.865 1.168-1.668 1.961-2.356 10.606-14.482 21.932-27.994 35.197-39.837 6.163-5.473 12.566-10.623 20.376-14.011 7.247-3.471 19.457-1.603 5.766 2.639-7.612 2.439-14.109 7.057-20.126 12.322A215.052 215.052 0 00140.226 70.5c-3.598 4.472-6.664 8.852-10.085 13.293-.907 1.074-1.22 2.408-.97 3.827 2.396 15.661 7.034 30.562 16.834 43.639 9.32 12.431 21.529 20.514 36.595 24.071 3.796.793 20.156 3.392 12.179 4.798-10.344 1.459-19.78-1.264-28.612-5.738-14.513-7.677-25.095-18.971-32.1-33.82-3.836-8.28-6.848-17.07-8.411-25.933-.125-.71-.25-1.419-.49-1.742-.062-.354-.062-.354-.511-.824-.73 1.043-1.314 1.877-2.075 2.742-7.269 10.604-14.507 21.384-21.954 32.019-9.344 13.345-19.377 25.898-30.212 38.044-7.405 8.8-15.018 17.453-22.662 25.929-3.369 3.702-7.363 6.965-11.002 10.165-2.086 1.648-4.62 2.825-7.133 3.086-1.063.187-2.513.26-2.585-1.189-.094-.532.573-1.929 1.282-2.054 8.52-3.513 14.224-10.551 20.169-17.265 10.919-12.709 22.161-25.658 32.986-38.899 12.463-15.357 23.612-31.945 34.615-48.325 2.159-3.305 4.672-6.672 6.8-10.155.761-.865 1.074-2.2 1.032-3.472-1.208-12.033-.403-24.055.548-36.286.083-.563-.011-1.095-.104-1.627.146-.208-.063-.354-.48-.646z" fill="#fff"/><path d="M123.88 44.138l.574-.82-.872-.61-.555.908.853.522zm-5.403 10.822l.916.402.005-.011.005-.012-.926-.379zm-2.315 2.42l-.574.818.133.093.156.047.285-.959zm-.448-3.578l-.931-.363-.015.039-.012.04.958.285zm5.56-13.043l.902.431-.902-.431zm2.513-3.368l.639.77.048-.04.043-.046-.73-.684zm4.984 1.315l-.971.239.007.028.008.027.956-.294zm.218 4.348l-.997-.07-.001.011v.012l.998.047zm-1.243 21.97l-.999-.047-.001.02v.022l1 .005zm.238 12.752l-1 .01.011 1.18 1.162-.205-.173-.985zm.74.052l.174.985.345-.06.232-.264-.751-.66zm1.961-2.356l.655.755.085-.073.066-.091-.806-.59zm35.197-39.837l-.664-.748-.002.002.666.746zm20.376-14.011l.398.917.017-.007.017-.008-.432-.902zm5.766 2.639l-.296-.956-.009.003.305.953zm-20.126 12.322l.653.758.005-.006-.658-.752zM140.226 70.5l.779.627.011-.014.01-.013-.8-.6zm-10.085 13.293l.764.645.015-.017.013-.018-.792-.61zm-.97 3.827l.988-.152-.001-.01-.002-.012-.985.174zm16.834 43.639l-.801.6h.001l.8-.6zM182.6 155.33l-.229.974.012.003.013.002.204-.979zm12.179 4.798l.139.991.017-.003.017-.003-.173-.985zm-28.612-5.738l-.467.884.008.004.007.004.452-.892zm-32.1-33.82l-.907.42.003.007.904-.427zm-8.901-27.675l-.985.174.041.232.141.19.803-.596zm-.511-.824l.723-.69-.842-.882-.7.999.819.573zm-2.075 2.742l-.751-.66-.04.045-.034.05.825.565zm-21.954 32.019l.82.574-.82-.574zm-30.212 38.044l-.746-.665-.01.01-.01.011.766.644zm-22.662 25.929l.74.674.003-.004-.743-.67zM36.75 200.97l.62.785.02-.016.02-.018-.66-.751zm-7.133 3.086l-.103-.995-.035.004-.035.006.173.985zm-2.585-1.189l.998-.05-.003-.063-.01-.061-.985.174zm1.282-2.054l.174.985.107-.019.1-.042-.38-.924zm20.169-17.265l.749.663.005-.005.004-.006-.758-.652zm32.986-38.899l.775.633.002-.003-.777-.63zm34.615-48.325l.83.558.007-.01-.837-.548zm6.8-10.155l-.751-.66-.058.065-.045.074.854.521zm1.032-3.472l1-.032-.001-.034-.004-.034-.995.1zm.548-36.286l-.99-.147-.005.035-.002.034.997.078zm-.104-1.627l-.82-.573-.237.339.072.408.985-.174zm-1.333-1.168c-2.161 3.538-3.926 7.184-5.475 10.965l1.851.758c1.517-3.705 3.236-7.252 5.33-10.68l-1.706-1.043zm-5.466 10.943a7.999 7.999 0 00-.195.5c-.056.154-.096.268-.141.377-.084.202-.156.316-.252.407l1.381 1.446a3.09 3.09 0 00.719-1.089c.067-.162.126-.329.174-.461.051-.142.095-.261.146-.377l-1.832-.803zm-.588 1.284a3.744 3.744 0 01-.607.484.79.79 0 01-.154.077c-.019.005.079-.03.235.017l-.57 1.917c.349.103.672.051.898-.015a2.72 2.72 0 00.622-.282c.356-.214.694-.5.957-.752l-1.381-1.446zm-.237.717a1.93 1.93 0 01-.383-.4 1.874 1.874 0 01-.147-.227c-.037-.072-.028-.076-.018-.02l-1.97.347c.074.416.328.822.528 1.092.222.298.519.62.842.846l1.148-1.638zm-.548-.648c-.04-.226-.012-.429.077-.7.048-.148.106-.294.182-.487.071-.182.155-.4.226-.637l-1.917-.57a6.203 6.203 0 01-.172.477c-.066.17-.15.38-.221.596-.148.456-.261 1.008-.145 1.669l1.97-.348zm.458-1.746c1.758-4.504 3.542-8.816 5.53-12.976l-1.805-.862c-2.017 4.223-3.821 8.585-5.588 13.11l1.863.728zm5.53-12.976c.622-1.302 1.272-2.216 2.25-3.03l-1.278-1.537c-1.254 1.042-2.064 2.213-2.777 3.705l1.805.862zm2.341-3.115c.731-.78 1.455-.916 1.957-.784.503.133 1.069.61 1.326 1.654l1.942-.478c-.389-1.584-1.392-2.75-2.758-3.11-1.367-.36-2.812.16-3.927 1.35l1.46 1.368zm3.298.925c.363 1.178.284 2.466.177 3.984l1.995.14c.102-1.443.232-3.116-.26-4.713l-1.912.59zm.176 4.007c-.173 3.678-.397 7.32-.622 10.97-.224 3.649-.449 7.306-.622 11l1.997.094c.173-3.678.397-7.32.622-10.97.224-3.649.449-7.306.622-11l-1.997-.094zm-1.245 22.012c-.022 4.007.197 8.47.238 12.767l2-.02c-.042-4.462-.26-8.695-.238-12.737l-2-.01zm1.411 13.742a.677.677 0 01-.143.01.217.217 0 01-.054-.005l.029.006.094.02c.176.038.459.084.815.021l-.348-1.97-.005.001a.388.388 0 01-.053-.009l-.076-.016a2.688 2.688 0 00-.128-.026 1.408 1.408 0 00-.478-.002l.347 1.97zm1.318-.272c.415-.472.744-.94 1.018-1.306.284-.379.533-.683.847-.956l-1.311-1.51c-.478.415-.829.857-1.137 1.267-.318.425-.572.79-.919 1.184l1.502 1.321zm2.016-2.426c10.583-14.449 21.862-27.901 35.057-39.682l-1.332-1.492c-13.336 11.906-24.708 25.478-35.338 39.992l1.613 1.182zm35.055-39.68c6.146-5.46 12.452-10.52 20.11-13.842l-.796-1.835c-7.962 3.454-14.463 8.694-20.642 14.181l1.328 1.496zm20.144-13.857c1.692-.81 3.705-1.322 5.577-1.559 1.891-.239 3.529-.185 4.483.054.232.058.392.12.493.172.109.057.097.076.058.019a.47.47 0 01-.066-.345c.018-.087.047-.078-.049.024-.2.215-.675.557-1.605.992-.907.425-2.167.902-3.853 1.425l.592 1.91c1.737-.538 3.09-1.047 4.108-1.523.995-.466 1.755-.939 2.222-1.441.238-.256.459-.581.542-.977a1.527 1.527 0 00-.239-1.192c-.213-.313-.511-.522-.785-.665a4.285 4.285 0 00-.932-.34c-1.293-.323-3.21-.351-5.22-.097-2.027.257-4.258.814-6.19 1.739l.864 1.804zm5.029.784c-7.802 2.5-14.42 7.22-20.48 12.522l1.317 1.505c5.975-5.227 12.35-9.744 19.773-12.122l-.61-1.905zm-20.474 12.517A216.041 216.041 0 00139.426 69.9l1.6 1.2a214.07 214.07 0 0131.524-33.757l-1.305-1.516zm-31.798 34.046c-3.596 4.47-6.723 8.928-10.098 13.31l1.584 1.22c3.467-4.501 6.472-8.801 10.072-13.276l-1.558-1.254zm-10.07 13.275c-1.117 1.322-1.487 2.964-1.191 4.645l1.97-.347c-.204-1.155.052-2.182.749-3.008l-1.528-1.29zm-1.195 4.623c2.411 15.756 7.09 30.834 17.022 44.088l1.601-1.199c-9.667-12.9-14.264-27.624-16.646-43.192l-1.977.303zm17.023 44.088c9.458 12.615 21.867 20.832 37.166 24.445l.459-1.947c-14.834-3.503-26.843-11.451-36.025-23.697l-1.6 1.199zm37.191 24.45c1.971.412 6.915 1.24 10.457 2.158a24.57 24.57 0 012.232.672c.64.237.927.412.996.478.03.029-.163-.137-.135-.47.028-.335.249-.461.198-.426-.114.076-.537.246-1.539.423l.347 1.969c.993-.175 1.804-.394 2.307-.732.257-.173.633-.512.68-1.065.046-.552-.265-.942-.471-1.139-.402-.388-1.059-.681-1.69-.914a26.478 26.478 0 00-2.423-.732c-3.592-.931-8.726-1.798-10.55-2.18l-.409 1.958zm12.243 2.829c-10.073 1.42-19.297-1.221-28.02-5.64l-.904 1.784c8.941 4.529 18.588 7.333 29.203 5.837l-.279-1.981zm-28.004-5.632c-14.316-7.572-24.748-18.703-31.664-33.363l-1.808.854c7.094 15.038 17.826 26.496 32.537 34.277l.935-1.768zm-31.661-33.356c-3.807-8.219-6.788-16.926-8.333-25.687l-1.97.347c1.581 8.966 4.624 17.84 8.489 26.18l1.814-.84zm-8.333-25.687c-.061-.345-.13-.737-.217-1.085-.08-.318-.208-.746-.455-1.079l-1.606 1.192c-.007-.01.047.078.121.374.067.264.123.581.187.945l1.97-.347zm-.49-1.741c-.025-.144-.064-.429-.246-.723-.133-.215-.343-.426-.527-.618l-1.446 1.381c.117.122.188.197.238.253.051.057.05.061.036.038a.452.452 0 01-.047-.104l.004.021.018.099 1.97-.347zm-2.315-1.224c-.734 1.048-1.288 1.837-2.007 2.655l1.502 1.32c.803-.912 1.418-1.792 2.143-2.828l-1.638-1.147zm-2.081 2.75c-7.277 10.615-14.505 21.381-21.948 32.01l1.639 1.148c7.449-10.64 14.697-21.435 21.959-32.027l-1.65-1.131zm-21.948 32.01c-9.32 13.311-19.328 25.833-30.14 37.953l1.493 1.331c10.86-12.173 20.917-24.756 30.286-38.136l-1.639-1.148zM69.65 164.232c-7.396 8.789-15 17.433-22.64 25.904l1.486 1.339c7.65-8.482 15.27-17.144 22.684-25.955l-1.53-1.288zm-22.637 25.9c-3.319 3.647-7.245 6.853-10.922 10.087l1.32 1.502c3.601-3.167 7.664-6.487 11.082-10.242l-1.48-1.347zM36.13 200.186c-1.97 1.556-4.33 2.638-6.616 2.875l.206 1.989c2.74-.283 5.45-1.557 7.65-3.295l-1.24-1.569zm-6.686 2.885c-.52.092-.954.115-1.224.04-.112-.031-.137-.063-.137-.063a.137.137 0 01-.021-.043.66.66 0 01-.032-.188l-1.997.1c.027.534.188 1.023.517 1.416a2.24 2.24 0 001.136.706c.738.204 1.562.097 2.105.002l-.347-1.97zm-1.428-.378c.011.061.004.086.008.056a.866.866 0 01.029-.13c.037-.128.102-.285.19-.44.088-.156.18-.277.257-.351.087-.085.087-.048-.012-.03l-.347-1.97c-.454.08-.803.339-1.038.568a3.582 3.582 0 00-.602.799 4.162 4.162 0 00-.368.864c-.076.259-.15.623-.086.981l1.97-.347zm.68-.956c8.78-3.62 14.649-10.877 20.536-17.526l-1.498-1.326c-6.002 6.78-11.543 13.598-19.8 17.003l.762 1.849zM49.24 184.2c10.914-12.703 22.167-25.665 33.002-38.918l-1.548-1.266c-10.815 13.229-22.047 26.166-32.97 38.881l1.516 1.303zm33.005-38.921c12.496-15.398 23.669-32.024 34.668-48.397l-1.66-1.115c-11.008 16.385-22.132 32.936-34.561 48.252l1.553 1.26zm34.675-48.408c2.098-3.211 4.692-6.703 6.816-10.18l-1.707-1.043c-2.131 3.488-4.563 6.73-6.784 10.13l1.675 1.093zm6.713-10.041c.991-1.126 1.328-2.75 1.282-4.165l-1.999.065c.037 1.13-.253 2.174-.784 2.779l1.501 1.32zm1.277-4.233c-1.198-11.933-.401-23.873.55-36.109l-1.994-.155c-.951 12.227-1.764 24.331-.546 36.464l1.99-.2zm.542-36.04c.111-.748-.019-1.437-.109-1.946l-1.969.347c.097.554.155.928.099 1.306l1.979.294zm-.274-1.2c.135-.193.26-.482.219-.836a1.266 1.266 0 00-.312-.684c-.187-.216-.475-.408-.632-.518l-1.148 1.638c.11.077.182.127.238.17.061.046.057.05.032.02a.738.738 0 01-.164-.395.792.792 0 01.128-.541l1.639 1.147z" fill="#3184B5" mask="url(#path-1-inside-1_2348_2254)"/></g></svg>