<svg xmlns="http://www.w3.org/2000/svg" fill="none" viewBox="0 0 16 18"><path fill="#fff" d="M8.142.015C9.115 0 10.082.01 11.048 0c.059 1.148.468 2.318 1.3 3.13.832.831 2.008 1.212 3.152 1.341v3.02c-1.072-.035-2.15-.26-3.122-.726a9.018 9.018 0 01-1.205-.698c-.005 2.192.009 4.38-.014 6.563a5.744 5.744 0 01-1.005 2.957c-.973 1.438-2.66 2.376-4.394 2.405-1.063.061-2.125-.231-3.031-.77-1.501-.893-2.558-2.529-2.712-4.284-.02-.372-.022-.744-.009-1.116a5.639 5.639 0 011.92-3.721c1.23-1.082 2.955-1.597 4.57-1.292.015 1.11-.029 2.22-.029 3.332-.738-.241-1.6-.174-2.244.278a2.594 2.594 0 00-1.014 1.313c-.154.38-.11.802-.101 1.206.177 1.231 1.35 2.265 2.602 2.154.83-.01 1.626-.495 2.058-1.207.14-.25.297-.504.305-.797.073-1.342.044-2.678.053-4.02.006-3.023-.009-6.038.014-9.052z"/></svg>