<svg xmlns="http://www.w3.org/2000/svg" fill="none" viewBox="0 0 25 16"><path fill="#fff" d="M24.477 2.51a2.765 2.765 0 00-.798-1.269A3.216 3.216 0 0022.285.5C20.33.005 12.493.005 12.493.005a83.14 83.14 0 00-9.78.47 3.32 3.32 0 00-1.394.76 2.877 2.877 0 00-.81 1.274A28.06 28.06 0 000 8c-.013 1.84.157 3.678.508 5.49.143.48.42.916.807 1.269.386.353.868.607 1.397.742 1.982.494 9.78.494 9.78.494a83.324 83.324 0 009.792-.47 3.215 3.215 0 001.394-.741 2.76 2.76 0 00.797-1.27c.359-1.81.534-3.649.521-5.491a25.52 25.52 0 00-.52-5.514v.001zM10 11.422V4.579l6.52 3.422-6.52 3.42z"/></svg>