<svg xmlns="http://www.w3.org/2000/svg" fill="none" viewBox="0 0 19 17"><path fill="#fff" d="M13.86 2.5h.64c1.133.04 2.077.433 2.83 1.18.753.746 1.143 1.687 1.17 2.82v5.52c-.027 1.133-.417 2.077-1.17 2.83-.753.753-1.696 1.143-2.83 1.17h-10c-1.133-.027-2.077-.417-2.83-1.17C.917 14.097.527 13.153.5 12.02V6.5c.027-1.133.417-2.074 1.17-2.82.753-.747 1.696-1.14 2.83-1.18h.58l-.88-.84a.925.925 0 01-.28-.68c0-.267.093-.493.28-.68l.02-.02A.98.98 0 014.91 0c.26 0 .49.093.69.28l2.14 2.06c.053.053.1.107.14.16h3.2a.63.63 0 01.12-.16L13.34.28a.98.98 0 01.69-.28c.26 0 .497.113.697.3.2.187.293.413.293.68a.925.925 0 01-.28.68l-.88.84zM4.5 4.44c-.56.013-1.03.207-1.41.58-.38.373-.577.847-.59 1.42v5.64c.013.573.21 1.046.59 1.42.38.373.85.567 1.41.58h10c.56-.013 1.03-.207 1.41-.58.38-.373.577-.847.59-1.42V6.44c-.013-.574-.21-1.047-.59-1.42s-.85-.566-1.41-.58h-10zm2 2.9a.95.95 0 01.7.28c.187.187.287.427.3.72v.88a1.04 1.04 0 01-.3.72.947.947 0 01-.7.28.95.95 0 01-.7-.28 1.04 1.04 0 01-.3-.72v-.88c0-.28.097-.517.29-.71a.969.969 0 01.71-.29zm6 0a.95.95 0 01.7.28c.187.187.287.427.3.72v.88a1.04 1.04 0 01-.3.72.947.947 0 01-.7.28.95.95 0 01-.7-.28 1.04 1.04 0 01-.3-.72v-.88a1.04 1.04 0 01.3-.72.95.95 0 01.7-.28z"/></svg>