<svg xmlns="http://www.w3.org/2000/svg" fill="none" viewBox="0 0 20 16"><path fill="#fff" d="M20 1.898a8.32 8.32 0 01-2.356.635A4.06 4.06 0 0019.448.3a8.272 8.272 0 01-2.606.98A4.125 4.125 0 0014.514.053a4.162 4.162 0 00-2.605.424 4.066 4.066 0 00-1.803 1.898 3.98 3.98 0 00-.256 2.586 11.8 11.8 0 01-4.684-1.225A11.62 11.62 0 011.393.742a3.987 3.987 0 00-.071 3.936 4.063 4.063 0 001.34 1.456 4.144 4.144 0 01-1.858-.505v.052a4 4 0 00.928 2.558A4.117 4.117 0 004.096 9.64a4.198 4.198 0 01-1.853.07 4.043 4.043 0 001.46 2.006 4.149 4.149 0 002.373.797 8.319 8.319 0 01-5.097 1.73c-.327 0-.654-.02-.979-.057A11.742 11.742 0 006.29 16c7.548 0 11.674-6.153 11.674-11.489a11.5 11.5 0 00-.012-.522A8.269 8.269 0 0019.998 1.9L20 1.898z"/></svg>