<svg xmlns="http://www.w3.org/2000/svg" fill="none" viewBox="0 0 298 204"><g opacity=".05"><path fill="#fff" d="M53.66 112.618a50.77 50.77 0 00-5.95.159 109.24 109.24 0 01-5.965-.02c-2.412-.03-4.939.01-7.58.121-2.52.1-5.026.379-7.515.838-3.435.662-6.556 2.139-9.364 4.433-3.373 2.704-4.162 6.026-2.366 9.964.617 1.512 1.397 2.829 2.34 3.951a79.06 79.06 0 003.563 3.483 57.554 57.554 0 0010.97 7.532 105.706 105.706 0 0012.589 5.404c11.673 3.917 23.455 4.995 35.346 3.231a40.865 40.865 0 006.734-1.492 37.513 37.513 0 006.622-2.748c.359-.031.593-.112.702-.242 4.35-2.549 6.931-5.364 7.741-8.447.93-3.092.92-6.585-.029-10.477-1.132-4.599-3.14-8.88-6.022-12.844a618.662 618.662 0 00-6.552-8.642 613.75 613.75 0 01-6.552-8.642 193.378 193.378 0 01-7.396-10.013 45.877 45.877 0 01-5.536-11.441c-2.474-7.493-1.266-14.224 3.624-20.193a38.285 38.285 0 014.98-4.953 42.103 42.103 0 015.615-3.924c5.395-3.002 10.903-5.41 16.524-7.228 5.621-1.816 11.556-2.818 17.804-3.003a34.404 34.404 0 013.423-.119c1.206.015 2.368.215 3.487.599 5.778 1.301 9.107 4.864 9.987 10.69.752 4.391.103 8.604-1.948 12.638a84.911 84.911 0 01-2.797 5.123 44.135 44.135 0 01-3.382 4.633 152.697 152.697 0 01-6.845 8.368 446.476 446.476 0 01-7.236 8.041 18.525 18.525 0 01-2.156 2.176c-.664.66-1.594 1.043-2.789 1.148-.292-.577-.335-1.055-.128-1.435l.817-.975 6.861-8.189a224.405 224.405 0 006.666-8.352 62.593 62.593 0 003.972-6.13l3.403-6.44c1.538-3.026 1.978-6.197 1.322-9.512-.311-2.141-1.068-3.882-2.272-5.222-1.214-1.46-2.973-2.27-5.276-2.43-2.813-.476-5.535-.6-8.165-.37-11.922 1.405-22.654 5.355-32.196 11.852-1.817 1.243-3.553 2.72-5.208 4.43-4.856 5.003-6.144 10.837-3.864 17.504a45.994 45.994 0 002.97 6.968 56.343 56.343 0 003.981 6.156c2.19 2.94 4.373 5.821 6.552 8.642 2.179 2.821 4.422 5.696 6.731 8.626a83.753 83.753 0 015.998 8.51 56.255 56.255 0 014.627 9.352c.596 1.273 1.001 2.442 1.216 3.507.335 1.055.615 2.175.841 3.36.742 4.271.354 8.039-1.162 11.304-1.517 3.265-4.038 6.075-7.563 8.431-2.84 1.935-5.846 3.343-9.02 4.223a67.449 67.449 0 01-9.767 1.938c-18.944 2.38-36.691-1.427-53.243-11.423a87.361 87.361 0 01-6.559-4.666c-2.072-1.626-3.992-3.566-5.759-5.82-3.512-4.27-4.792-8.495-3.838-12.674.834-4.168 3.73-7.494 8.69-9.975 2.871-1.576 5.856-2.56 8.953-2.952a63.36 63.36 0 019.504-.831c5.292-.102 10.38.898 15.266 3.001.38.207.695.36.944.459.25.099.505.257.766.475l.016.179c.01.12-.039.245-.148.375zm78.778-56.762c-2.718.599-4.413.506-5.085-.278-.791-.774-1.084-1.35-.877-1.73.306-.63.915-1.225 1.829-1.786.784-.671 2.442-.997 4.973-.978 3.977.014 8.057-.163 12.242-.529a90.234 90.234 0 0012.651-2.01 3.2 3.2 0 00.817-.975c1.471-2.417 2.567-4.32 3.287-5.708a177.135 177.135 0 014.04-7.4 1033.41 1033.41 0 013.466-5.724c.295-.749.78-1.393 1.454-1.934.784-.671 1.561-.739 2.331-.204.261.218.477.62.65 1.208.173.587.28 1.12.323 1.598-.077.488-.274.987-.59 1.497-.316.51-.577.954-.785 1.333a461.794 461.794 0 00-2.518 4.196l-1.211 2.635c-.403.879-.911 1.947-1.522 3.205s-1.701 3.22-3.271 5.888c2.553.258 5.813.334 9.779.228a447.89 447.89 0 0013.106-.966 623.196 623.196 0 0014.297-1.793 431.12 431.12 0 0014.234-2.51 681.23 681.23 0 008.005-1.423c2.489-.459 4.576-.701 6.26-.728 3.01-.023 4.438.455 4.284 1.432-.154.977-1.459 1.874-3.917 2.692-2.12.546-5.081 1.107-8.886 1.68-3.684.564-7.727 1.158-12.129 1.784-4.413.507-9.064 1.034-13.955 1.583-4.782.418-9.384.82-13.807 1.208-4.314.257-8.265.542-11.851.856-3.467.303-6.162.479-8.085.526a401.807 401.807 0 00-5.689 9.171 644.896 644.896 0 00-5.61 10.067 288.809 288.809 0 00-4.893 10.005c-1.527 3.145-2.836 6.03-3.928 8.655a105.441 105.441 0 00-2.589 7.454c-.853 2.604-1.368 4.938-1.546 7.001-.068 1.934.418 3.337 1.459 4.209 1.031.753 2.928.407 5.69-1.04 1.273-.593 2.703-1.441 4.292-2.543a294.103 294.103 0 004.929-3.503 195.12 195.12 0 004.881-4.04 210.855 210.855 0 004.327-4.174c.566-.41 1.012-.811 1.339-1.201.316-.51.762-.91 1.338-1.201.675-.541 1.246-.892 1.714-1.054.576-.291 1.195-.104 1.857.56.542.676.665 1.388.371 2.136-.186.619-.552 1.253-1.096 1.903-.654.78-1.818 1.906-3.494 3.377-1.677 1.472-3.646 3.03-5.909 4.673a133.75 133.75 0 01-6.969 4.946c-2.394 1.535-4.689 2.82-6.886 3.855-3.937 1.79-6.73 2.215-8.38 1.275-1.78-1.048-2.831-2.703-3.152-4.964-.441-2.25-.366-4.786.226-7.608.592-2.823 1.216-5.287 1.872-7.392a98.536 98.536 0 014.128-10.48 268.132 268.132 0 015.039-10.378c1.865-3.416 3.68-6.706 5.447-9.872a269.965 269.965 0 004.972-9.108c-3.934.464-7.988.94-12.162 1.425l-11.117.973zm56.337 34.46a56.104 56.104 0 014.076-.898l3.882-1.062c.935-.323 2.114-.607 3.538-.852s2.663-.534 3.718-.867l1.255-.11c.359-.031.847.046 1.466.233.38.208.711.54.993.997.39.328.547.736.47 1.224.021.24-.191.559-.637.96-.447.4-.789.61-1.029.631-1.174.344-2.288.682-3.343 1.016-.945.203-2.011.416-3.195.64a136.49 136.49 0 01-6.703 1.852c-2.13.427-4.25.974-6.359 1.64-1.294.354-2.317 1.046-3.068 2.076a706.944 706.944 0 01-5.75 6.465c-1.416 1.69-3.227 2.993-5.435 3.909-1.631.624-3.174.88-4.63.766-1.467-.233-2.617-.975-3.451-2.228-.834-1.252-1.114-3.034-.837-5.347.265-2.432 1.319-5.476 3.163-9.13a35.118 35.118 0 014.805-6.925 110.023 110.023 0 016.287-6.513 15.725 15.725 0 012.889-2.06c1.023-.692 2.246-1.16 3.67-1.405 2.011-.417 3.597-.194 4.758.668 1.15.742 1.756 2.135 1.817 4.177.085.957-.004 1.988-.267 3.095a22.78 22.78 0 00-.625 3.127 12.522 12.522 0 01-.737 1.871c-.196.5-.437 1.183-.721 2.05zm-17.134 2.403c-1.809 2.688-2.634 4.929-2.474 6.722.149 1.673.788 2.761 1.917 3.265 1.238.373 2.602.134 4.092-.72 1.599-.983 2.885-2.782 3.857-5.396-1.913.167-3.494.004-4.742-.489-1.259-.612-2.143-1.74-2.65-3.382zm14.188-13.166c-4.067 1.68-6.957 4.403-8.67 8.166a3.206 3.206 0 00-.231 1.466c.043.478.384.93 1.024 1.356.781.654 1.764.87 2.949.645 1.304-.234 2.153-.85 2.546-1.849a14.076 14.076 0 001.506-3.384 26.16 26.16 0 001.132-3.532c.217-.26.245-.624.083-1.091-.162-.468-.275-1.06-.339-1.777zm50.08 12.422c-1.445.006-2.613-.253-3.503-.778-.89-.524-1.676-1.238-2.359-2.142a23.35 23.35 0 01-1.526-2.938l-1.005-3.165c-.866-1.61-1.957-2.358-3.272-2.243-1.315.115-2.652.653-4.012 1.616-1.251.832-2.421 1.898-3.511 3.198-1.089 1.3-1.965 2.28-2.629 2.94-3.876 3.833-6.758 8-8.646 12.501-.274.988-.742 1.812-1.406 2.472-.784.671-1.524 1.157-2.22 1.459-.707.183-1.315.115-1.825-.201-.63-.307-.992-.998-1.088-2.073-.053-.598.024-1.087.231-1.466.207-.38.409-.819.606-1.318a615.868 615.868 0 005.549-12.772c1.79-4.252 3.64-8.51 5.55-12.772a12.343 12.343 0 012.044-3.432c.218-.26.5-.465.848-.616.468-.161.832-.133 1.092.085.88.405 1.237 1.036 1.072 1.894.075.837-.074 1.873-.446 3.11a85.297 85.297 0 00-1.916 4.866 58.689 58.689 0 00-1.542 5.014c.893-.801 1.448-1.332 1.666-1.592a96.48 96.48 0 002.988-2.971 29.635 29.635 0 013.005-2.793c1.328-1.32 2.878-2.179 4.65-2.575 3.511-1.15 5.96-.04 7.344 3.333.324.935.583 1.816.777 2.642.194.826.448 1.647.762 2.463.356 1.294.854 2.154 1.494 2.58.63.306 1.656.336 3.08.091l1.794-.156a12.09 12.09 0 011.956-.352c1.663-.266 2.82-.127 3.471.419.651.545.774 1.257.371 2.136-.415.759-1.432 1.51-3.053 2.254-1.5.734-3.631 1.161-6.391 1.282zm32.046.99a38.486 38.486 0 001.892-1.068 9.46 9.46 0 001.355-1.022 336.18 336.18 0 006.316-4.166 332.832 332.832 0 016.315-4.167c1.132-.821 2.355-1.29 3.67-1.405.478-.042.972.096 1.483.412.51.317.895.585 1.155.803.694 1.023.306 2.081-1.163 3.173a37.444 37.444 0 01-3.59 2.302 32.181 32.181 0 00-3.754 2.497l-8.781 6.911a402.11 402.11 0 00-8.798 6.733c-1.796 1.482-3.212 3.172-4.248 5.069a146.09 146.09 0 01-3.287 5.708 286.946 286.946 0 01-10.008 17.499 175.567 175.567 0 01-11.913 16.401 48.254 48.254 0 01-5.829 5.569 11.306 11.306 0 01-2.024 1.623c-.794.551-1.659.988-2.594 1.311-1.294.354-2.451.214-3.471-.419-1.02-.634-1.48-1.738-1.379-3.313-.128-1.434.163-2.905.872-4.413a46.134 46.134 0 015.251-10.035 80.943 80.943 0 016.798-8.907c3.724-4.18 7.453-8.301 11.188-12.362a1180.54 1180.54 0 0111.351-12.557l1.602-2.308a36.18 36.18 0 001.749-2.683 254.437 254.437 0 005.072-10.02 438.842 438.842 0 015.024-10.558c-.957.084-1.713.39-2.268.92l-1.339 1.202a318.142 318.142 0 01-6.219 5.242c-2.024 1.623-4.309 3.027-6.854 4.214-.783.67-1.534 1.037-2.251 1.1-2.359.568-4.249.311-5.671-.769-1.432-1.2-1.955-3.02-1.57-5.464.252-1.226.57-2.398.952-3.516a40.53 40.53 0 011.327-3.368c.807-1.758 1.62-3.455 2.438-5.092l2.813-4.944c.533-.77 1.148-1.305 1.844-1.607.686-.421 1.549-.196 2.591.677a21.189 21.189 0 00-.574 1.676c-.077.489-.333.993-.769 1.513a64.457 64.457 0 01-2.538 6.004 232.112 232.112 0 00-2.733 5.84 35.708 35.708 0 00-.541 2.035c-.056.728-.281 1.59-.674 2.589.935-.323 1.702-.51 2.299-.563a5.277 5.277 0 001.941-.531c1.589-1.103 3.117-2.2 4.586-3.292a103.28 103.28 0 004.391-3.456 120.509 120.509 0 005.323-5.164 297.207 297.207 0 015.308-5.343c.653-.78 1.382-1.385 2.187-1.817.794-.551 1.816-.58 3.064-.088 1.759.81 1.994 2.777.706 5.901a248.843 248.843 0 01-3.422 8.25 170.709 170.709 0 00-3.406 8.429c-.218.26-.43.58-.638.96-.087.368-.273.987-.557 1.855zm-23.089 30.931c-1.884 1.851-3.805 3.947-5.766 6.286a105.282 105.282 0 00-5.701 7.004c-1.722 2.319-3.214 4.497-4.479 6.535-1.264 2.038-2.082 3.676-2.454 4.913 1.132-.822 2.634-2.218 4.507-4.189 1.753-1.96 3.544-4.165 5.375-6.614a279.269 279.269 0 004.952-7.299c1.58-2.548 2.769-4.76 3.566-6.636z"/><path fill="#0B2636" d="M53.66 112.618l-.03.999.485.015.311-.372-.767-.642zm-5.95.159l.026.999h.032l.03-.003-.088-.996zm-5.965-.02l.028-1h-.017l-.011 1zm-7.58.121l.042.999h.002l-.044-.999zm-7.515.838l-.182-.983-.008.001.19.982zm-9.364 4.433l.627.78.007-.005-.634-.775zm-2.366 9.964l.926-.376-.007-.019-.009-.019-.91.414zm2.34 3.951l-.766.643.021.024.022.023.723-.69zm3.563 3.483l-.678.734.01.01.011.01.657-.754zm10.97 7.532l-.465.885.006.003.007.003.453-.891zm12.589 5.404l-.334.942.009.003.008.003.317-.948zm35.346 3.231l-.139-.99-.01.001.149.989zm6.734-1.492l-.292-.957-.01.003.302.954zm6.622-2.748l-.088-.996-.201.018-.179.094.468.884zm.702-.242l-.507-.863-.15.088-.11.132.767.643zm7.741-8.447l-.958-.289-.005.017-.004.017.967.255zm-.029-10.477l.972-.235v-.003l-.972.238zm-6.022-12.844l.809-.587-.007-.009-.802.596zm-6.552-8.642l-.791.61.791-.61zm-6.552-8.642l.802-.596-.008-.011-.009-.011-.785.618zm-7.396-10.013l-.831.555.008.012.823-.567zM69.44 76.726l.951-.307-.002-.005-.95.312zm3.624-20.193l-.767-.643-.007.009.774.634zm4.98-4.953l-.637-.771.638.771zm5.615-3.924l-.488-.874-.008.005-.009.005.505.864zm16.524-7.228l-.309-.951.309.951zm17.804-3.003l.031 1 .029-.001.029-.003-.089-.996zm6.91.48l-.324.945.052.018.053.012.219-.975zm9.987 10.69l-.989.148.001.01.002.01.986-.168zm-1.948 12.638l-.892-.454-.003.006.895.448zm-2.797 5.123l.844.538.009-.015.009-.015-.862-.508zm-3.382 4.633l-.767-.643-.016.018-.014.019.797.606zm-14.081 16.41l-.736-.68-.016.018-.015.019.767.642zm-2.156 2.175l-.651-.76-.028.025-.027.026.706.71zm-2.789 1.148l-.892.45.306.605.675-.06-.089-.995zm-.128-1.435l-.767-.642-.063.076-.048.087.878.48zm.817-.975l-.767-.642.767.642zm6.861-8.189l-.767-.642.767.642zm6.666-8.352l.797.605.006-.007.005-.008-.808-.59zm3.972-6.13l.871.493.007-.013.007-.012-.885-.468zm3.403-6.44l.884.467.004-.007.004-.007-.892-.454zm1.322-9.512l-.99.142.004.025.005.026.981-.193zm-2.272-5.222l-.769.639.013.014.012.014.744-.667zm-5.276-2.43l-.166.986.049.008.049.004.068-.998zm-8.165-.37l-.089-.995h-.015l-.015.003.119.993zM82.735 53.52l-.564-.827-.002.001.566.826zm-5.208 4.43l.718.697h.001l-.719-.696zm-3.864 17.504l.949-.316-.002-.006-.947.322zm2.97 6.968l-.884.466.005.01.004.008.875-.484zm3.981 6.156l-.804.594.002.002.802-.596zm13.283 17.268l-.785.618.006.007.78-.625zm10.625 17.862l-.933.357.013.033.014.032.906-.422zm1.216 3.507l-.98.197.011.053.016.051.953-.301zm.841 3.36l.986-.17-.002-.008-.001-.008-.983.186zm-1.162 11.304l.907.422-.907-.422zm-7.563 8.431l-.556-.831-.008.005.564.826zm-9.02 4.223l.268.963-.269-.963zm-9.767 1.938l-.125-.992h-.002l.127.992zm-53.243-11.423l-.541.84.012.008.013.008.516-.856zm-6.559-4.666l.617-.786-.617.786zm-5.759-5.82l.787-.616-.007-.009-.008-.01-.772.635zm-3.838-12.674l.975.224.003-.013.002-.013-.98-.198zm8.69-9.975l.448.894.017-.008.017-.01-.482-.876zm8.953-2.952l.127.992.018-.002.017-.003-.162-.987zm9.504-.831l.012 1 .009-.001-.021-.999zm15.266 3.001l.479-.877-.041-.023-.044-.019-.394.919zm.944.459l.367-.93-.367.93zm.766.475l.996-.087-.037-.413-.318-.266-.641.766zm-.103-.446a51.922 51.922 0 00-6.067.163l.178 1.992a49.831 49.831 0 015.832-.156l.057-1.999zm-6.004.159c-1.904.048-3.874.041-5.911-.02l-.057 1.999c2.07.062 4.078.069 6.02.02l-.052-1.999zm-5.928-.02c-2.432-.03-4.977.01-7.634.122l.087 1.998c2.624-.11 5.132-.15 7.525-.121l.022-1.999zm-7.632.122a53.92 53.92 0 00-7.656.854l.365 1.966c2.443-.45 4.9-.724 7.374-.822l-.083-1.998zm-7.664.855c-3.604.694-6.876 2.246-9.807 4.64l1.267 1.55c2.684-2.193 5.655-3.597 8.921-4.226l-.381-1.964zm-9.8 4.634c-1.813 1.454-3.01 3.139-3.468 5.068-.459 1.929-.147 3.974.818 6.091l1.82-.828c-.83-1.821-1.023-3.406-.692-4.799.33-1.392 1.214-2.72 2.775-3.971l-1.253-1.561zm-2.666 11.121c.652 1.598 1.483 3.007 2.5 4.218l1.531-1.285c-.869-1.034-1.597-2.259-2.179-3.685l-1.852.752zm2.543 4.265a80.213 80.213 0 003.608 3.527l1.355-1.469a78.457 78.457 0 01-3.518-3.438l-1.445 1.38zm3.63 3.547a58.572 58.572 0 0011.16 7.663l.932-1.769a56.548 56.548 0 01-10.78-7.402l-1.313 1.508zm11.174 7.669a106.683 106.683 0 0012.707 5.455l.667-1.884a104.889 104.889 0 01-12.469-5.352l-.905 1.781zm12.724 5.461c11.82 3.966 23.76 5.059 35.81 3.273l-.296-1.979c-11.73 1.74-23.353.678-34.88-3.19l-.634 1.896zm35.8 3.274a41.889 41.889 0 006.9-1.53l-.606-1.907a39.937 39.937 0 01-6.57 1.456l.277 1.981zm6.889-1.526a38.529 38.529 0 006.798-2.821l-.936-1.768a36.486 36.486 0 01-6.446 2.675l.584 1.914zm6.419-2.709a2.88 2.88 0 00.683-.135 1.56 1.56 0 00.697-.46l-1.534-1.286a.558.558 0 01.137-.12c.031-.02.05-.026.045-.024-.004.001-.022.007-.058.014a1.326 1.326 0 01-.147.019l.177 1.992zm1.12-.375c4.45-2.607 7.294-5.602 8.202-9.054l-1.935-.511c-.713 2.712-3.03 5.349-7.281 7.839l1.013 1.726zm8.192-9.021c.992-3.299.966-6.977-.015-11.001l-1.943.47c.916 3.761.91 7.067.042 9.953l1.916.578zm-.015-11.004c-1.165-4.729-3.229-9.128-6.185-13.193l-1.617 1.174c2.809 3.863 4.76 8.026 5.859 12.495l1.943-.476zm-6.192-13.202a611.758 611.758 0 00-6.563-8.656l-1.582 1.22a618.994 618.994 0 016.541 8.628l1.604-1.192zm-6.563-8.656a612.361 612.361 0 01-6.54-8.628l-1.605 1.193a608.63 608.63 0 006.563 8.655l1.583-1.22zm-6.558-8.65A192.328 192.328 0 0175.8 87.6l-1.646 1.134a194.43 194.43 0 007.435 10.065l1.57-1.238zm-7.35-9.95a44.877 44.877 0 01-5.416-11.193l-1.903.614a46.876 46.876 0 005.657 11.69l1.662-1.111zm-5.418-11.198c-2.37-7.177-1.219-13.549 3.449-19.247L72.29 55.9c-5.113 6.24-6.379 13.33-3.8 21.139l1.9-.624zm3.442-19.238a37.286 37.286 0 014.85-4.824l-1.274-1.543a39.277 39.277 0 00-5.11 5.082l1.534 1.285zm4.85-4.824a41.105 41.105 0 015.482-3.832l-1.009-1.728a43.105 43.105 0 00-5.747 4.017l1.275 1.543zm5.465-3.822c5.341-2.972 10.79-5.354 16.346-7.15l-.618-1.903c-5.686 1.838-11.253 4.273-16.703 7.305l.975 1.748zm16.346-7.15c5.526-1.786 11.367-2.773 17.526-2.955l-.062-2c-6.337.189-12.366 1.204-18.082 3.052l.618 1.903zm17.584-2.959a33.58 33.58 0 013.323-.115l.022-2a35.461 35.461 0 00-3.523.123l.178 1.992zm3.323-.115a10.09 10.09 0 013.174.544l.647-1.89a12.088 12.088 0 00-3.799-.653l-.022 2zm3.279.574c2.736.616 4.818 1.75 6.318 3.355s2.482 3.753 2.899 6.508l1.977-.296c-.463-3.07-1.585-5.617-3.415-7.576-1.829-1.957-4.299-3.256-7.342-3.942l-.437 1.951zm9.22 9.882c.715 4.176.101 8.17-1.854 12.017l1.784.908c2.146-4.222 2.83-8.652 2.041-13.26l-1.971.335zm-1.857 12.023a83.465 83.465 0 01-2.764 5.063l1.724 1.016a85.74 85.74 0 002.83-5.183l-1.79-.896zm-2.745 5.033a43.251 43.251 0 01-3.306 4.528l1.534 1.285a45.17 45.17 0 003.459-4.737l-1.687-1.076zm-3.336 4.565a151.451 151.451 0 01-6.8 8.314l1.504 1.32a153.537 153.537 0 006.889-8.423l-1.593-1.211zm-6.8 8.314a444.136 444.136 0 01-7.22 8.023l1.472 1.357a449.16 449.16 0 007.252-8.06l-1.504-1.32zm-7.251 8.058a17.498 17.498 0 01-2.04 2.06l1.302 1.52a19.49 19.49 0 002.272-2.294l-1.534-1.285zm-2.095 2.11c-.456.454-1.143.77-2.172.86l.178 1.993c1.361-.12 2.534-.567 3.406-1.434l-1.412-1.42zm-1.191 1.406a1.26 1.26 0 01-.147-.427c-.003-.036 0-.056.001-.064l.004-.013-1.756-.96c-.432.792-.25 1.648.114 2.366l1.784-.902zm-.253-.34l.817-.976-1.534-1.285-.817.975 1.534 1.285zm.817-.976l6.861-8.189-1.534-1.285-6.861 8.189 1.534 1.285zm6.861-8.189a225.049 225.049 0 006.696-8.39l-1.594-1.21a222.734 222.734 0 01-6.636 8.315l1.534 1.285zm6.707-8.405a63.582 63.582 0 004.035-6.227l-1.742-.985a61.602 61.602 0 01-3.909 6.031l1.616 1.181zm4.049-6.252l3.402-6.441-1.769-.936-3.402 6.441 1.769.936zm3.41-6.455c1.638-3.224 2.111-6.622 1.411-10.158l-1.962.386c.612 3.094.204 6.037-1.233 8.864l1.784.908zm1.42-10.108c-.334-2.296-1.158-4.232-2.518-5.746l-1.488 1.334c1.047 1.166 1.738 2.711 2.026 4.697l1.98-.285zm-2.493-5.718c-1.426-1.714-3.465-2.614-5.977-2.788l-.136 1.995c2.094.145 3.573.865 4.575 2.07l1.538-1.277zm-5.879-2.776c-2.891-.49-5.698-.618-8.42-.38l.178 1.992c2.538-.222 5.174-.104 7.91.36l.332-1.972zm-8.45-.377c-12.075 1.422-22.961 5.427-32.641 12.017l1.128 1.654c9.403-6.403 19.981-10.299 31.75-11.685l-.237-1.986zM82.169 52.693c-1.877 1.284-3.663 2.806-5.361 4.56l1.438 1.392c1.612-1.666 3.297-3.099 5.054-4.3l-1.13-1.652zm-5.36 4.56c-2.535 2.611-4.176 5.48-4.866 8.607-.69 3.126-.415 6.44.774 9.915l1.893-.644c-1.092-3.191-1.312-6.129-.714-8.837.598-2.708 2.028-5.257 4.35-7.648l-1.437-1.393zm-4.094 18.515a46.99 46.99 0 003.034 7.12l1.767-.934a44.998 44.998 0 01-2.904-6.817l-1.897.631zm3.043 7.137a57.354 57.354 0 004.052 6.266l1.608-1.188a55.356 55.356 0 01-3.91-6.047l-1.75.969zm4.054 6.268c2.193 2.945 4.38 5.83 6.563 8.656l1.582-1.22a613.494 613.494 0 01-6.54-8.628l-1.605 1.192zm6.563 8.656c2.18 2.824 4.426 5.702 6.737 8.634l1.57-1.236a1170.42 1170.42 0 01-6.725-8.618l-1.582 1.22zm6.743 8.641a82.812 82.812 0 015.926 8.408l1.703-1.047a84.86 84.86 0 00-6.07-8.611l-1.56 1.25zm5.926 8.408a55.319 55.319 0 014.545 9.186l1.867-.715a57.341 57.341 0 00-4.709-9.518l-1.703 1.047zm4.572 9.251c.571 1.221.946 2.313 1.142 3.282l1.96-.393c-.234-1.162-.67-2.408-1.29-3.733l-1.812.844zm1.169 3.386c.322 1.014.593 2.095.812 3.245l1.965-.372a30.207 30.207 0 00-.871-3.475l-1.906.602zm.809 3.228c.714 4.113.33 7.668-1.084 10.713l1.814.844c1.618-3.484 2.01-7.465 1.241-11.896l-1.971.339zm-1.084 10.713c-1.427 3.071-3.812 5.749-7.212 8.022l1.113 1.663c3.65-2.44 6.306-5.383 7.913-8.841l-1.814-.844zm-7.22 8.027c-2.753 1.876-5.66 3.235-8.725 4.085l.537 1.927c3.284-.91 6.39-2.366 9.316-4.359l-1.128-1.653zm-8.725 4.085a66.523 66.523 0 01-9.623 1.91l.249 1.984a68.382 68.382 0 009.91-1.967l-.536-1.927zm-9.625 1.91c-18.717 2.352-36.238-1.406-52.6-11.287l-1.032 1.712c16.742 10.11 34.715 13.968 53.885 11.559l-.253-1.984zm-52.574-11.271a86.468 86.468 0 01-6.484-4.612l-1.234 1.572a88.298 88.298 0 006.635 4.72l1.083-1.68zm-6.484-4.612c-2.004-1.572-3.867-3.453-5.589-5.65l-1.574 1.232c1.813 2.312 3.788 4.311 5.93 5.99l1.233-1.572zm-5.604-5.669c-3.377-4.106-4.5-8.022-3.635-11.815l-1.95-.448c-1.042 4.565.394 9.098 4.041 13.532l1.544-1.269zm-3.63-11.841c.756-3.78 3.383-6.889 8.158-9.279l-.897-1.788c-5.144 2.573-8.31 6.114-9.222 10.672l1.962.395zm8.192-9.297c2.767-1.518 5.631-2.461 8.598-2.836l-.254-1.984c-3.228.408-6.332 1.434-9.309 3.067l.965 1.753zm8.633-2.841a62.202 62.202 0 019.354-.818l-.024-2c-3.181.033-6.4.315-9.654.844l.324 1.974zm9.363-.819a35.436 35.436 0 0114.85 2.92l.79-1.837c-5.017-2.158-10.247-3.186-15.682-3.082l.042 1.999zm14.766 2.879a9.77 9.77 0 001.057.512l.733-1.86a7.874 7.874 0 01-.832-.406l-.958 1.754zm1.057.512c.127.05.291.145.49.311l1.283-1.532a3.816 3.816 0 00-1.04-.639l-.733 1.86zm.136-.368l.015.18 1.993-.175-.016-.179-1.992.174zm.015.18c-.02-.238.092-.368.082-.356l1.534 1.285c.208-.248.42-.627.377-1.104l-1.993.175zm79.628-56.475l-.089-.996-.064.005-.064.014.217.977zm-5.085-.278l.759-.65-.028-.034-.032-.03-.699.714zm-.877-1.73l.878.48.012-.021.01-.022-.9-.437zm1.829-1.786l.525.852.067-.042.059-.05-.651-.76zm4.973-.978l-.006 1h.004l.002-1zm24.893-2.539l.229.974.221-.052.176-.141-.626-.78zm.817-.975l-.855-.52-.012.02-.011.02.878.48zm3.287-5.708l.888.461-.888-.46zm2.012-3.79l.878.48-.878-.48zm2.028-3.61l-.858-.516-.005.008-.004.008.867.5zm3.466-5.724l.855.52.044-.073.032-.08-.931-.367zm1.454-1.934l.627.78.012-.01.012-.01-.651-.76zm2.331-.204l.642-.766-.035-.03-.037-.025-.57.82zm.65 1.208l.959-.28-.959.28zm.323 1.598l.988.157.019-.122-.011-.122-.996.087zm-.59 1.497l.85.528-.85-.528zm-.785 1.333l.856.52.012-.02.01-.02-.878-.48zm-2.518 4.196l-.862-.508-.025.043-.022.046.909.419zm-1.211 2.635l.909.419-.909-.419zm-1.522 3.205l.9.438-.9-.438zm-3.271 5.888l-.862-.508-.792 1.345 1.555.157.099-.994zm9.779.228l.028 1h.016l.015-.002-.059-.998zm13.106-.966l.089.996h.013l.012-.002-.114-.994zm14.297-1.793l.138.991.011-.002.011-.001-.16-.988zm14.234-2.51l-.171-.985-.011.002-.011.002.193.981zm8.005-1.423l.183.984-.183-.984zm6.26-.728l-.009-1h-.008l.017 1zm4.284 1.432l.988.157-.988-.157zm-3.917 2.692l.252.968.033-.009.032-.01-.317-.95zm-8.886 1.68l-.15-.988h-.002l.152.988zm-12.129 1.784l.115.994.014-.002.013-.002-.142-.99zM195.72 50.14l.089.996.012-.001.012-.002-.113-.993zm-13.807 1.208l.061.998.014-.001.014-.001-.089-.996zm-19.936 1.382l-.026-1-.531.014-.285.446.842.54zm-5.689 9.171l-.857-.517-.007.01-.006.012.87.495zm-5.61 10.067l-.878-.48-.006.012-.006.011.89.457zm-4.893 10.005l.9.438.004-.008.004-.008-.908-.422zm-3.928 8.655l-.923-.385-.004.009-.003.009.93.367zm-2.589 7.454l.95.312.003-.008.002-.007-.955-.297zm-1.546 7.001l-.996-.087-.002.025-.001.025.999.037zm1.459 4.209l-.641.766.025.022.027.019.589-.807zm5.69-1.04l-.423-.906-.021.01-.021.011.465.885zm4.292-2.543l-.571-.822.571.822zm4.929-3.503l.588.809.02-.014.018-.015-.626-.78zm4.881-4.04l.651.759.017-.015.017-.016-.685-.729zm4.327-4.174l-.589-.81-.062.046-.055.055.706.71zm1.339-1.201l.767.642.045-.054.038-.06-.85-.528zm1.338-1.201l.453.892.093-.047.081-.065-.627-.78zm1.714-1.054l.327.945.065-.022.06-.03-.452-.893zm1.857.56l.779-.624-.033-.042-.038-.038-.708.704zm.371 2.136l-.931-.367-.015.038-.012.04.958.29zm-1.096 1.903l-.767-.643.767.643zm-3.494 3.377l.66.752-.66-.752zm-5.909 4.673l-.589-.809-.009.007-.009.007.607.795zm-6.969 4.946l.54.842.007-.004.007-.005-.554-.833zm-6.886 3.855l.415.911.013-.006-.428-.905zm-8.38 1.275l-.507.862.007.003.006.004.494-.869zm-3.152-4.964l.99-.139-.004-.026-.005-.026-.981.191zm.226-7.608l.979.206-.979-.206zm1.872-7.392l-.95-.312-.002.007-.003.007.955.298zm9.167-20.858l-.878-.48-.006.011-.006.012.89.457zm5.447-9.872l-.87-.496-.004.008.874.488zm4.972-9.108l.888.461.869-1.676-1.876.222.119.993zm-12.162 1.425l.089.996.014-.001.014-.002-.117-.993zm-11.334-.004c-1.319.291-2.322.398-3.039.358-.743-.04-.998-.225-1.07-.309l-1.518 1.3c.6.7 1.529.954 2.481 1.006.978.053 2.181-.093 3.58-.402l-.434-1.953zm-4.169-.015c-.365-.357-.546-.605-.62-.75-.074-.147.044-.009-.078.214l-1.756-.96c-.328.602-.167 1.218.05 1.648.219.431.58.86 1.007 1.276l1.397-1.428zm-.676-.578c.189-.39.622-.861 1.454-1.373l-1.05-1.703c-.995.612-1.782 1.332-2.203 2.2l1.799.876zm1.58-1.465c.203-.173.619-.377 1.374-.526.739-.145 1.714-.22 2.942-.21l.012-2c-1.303-.01-2.423.068-3.342.248-.902.177-1.707.471-2.288.969l1.302 1.52zm4.32-.737c4.009.014 8.12-.164 12.332-.532l-.177-1.993c-4.156.364-8.206.539-12.151.526l-.004 2zm12.332-.532A91.247 91.247 0 00158.4 49.52l-.458-1.947a89.203 89.203 0 01-12.511 1.987l.177 1.993zm13.189-2.226a4.19 4.19 0 001.069-1.276l-1.756-.96a2.215 2.215 0 01-.565.675l1.252 1.56zm1.045-1.235c1.476-2.424 2.585-4.35 3.321-5.768l-1.776-.922c-.704 1.358-1.786 3.238-3.254 5.649l1.709 1.041zm3.321-5.768c.717-1.383 1.384-2.64 2.002-3.77l-1.756-.96a198.42 198.42 0 00-2.022 3.808l1.776.922zm2.002-3.77c.617-1.132 1.29-2.329 2.017-3.591l-1.734-1a179.552 179.552 0 00-2.039 3.63l1.756.96zm2.008-3.576a990.87 990.87 0 013.463-5.718l-1.71-1.042a1128.46 1128.46 0 00-3.469 5.73l1.716 1.03zm3.539-5.871c.226-.575.6-1.081 1.15-1.522l-1.253-1.56c-.8.64-1.395 1.424-1.759 2.346l1.862.735zm1.174-1.542c.285-.244.485-.307.608-.318.111-.01.269.013.503.175l1.139-1.642c-.537-.373-1.153-.584-1.819-.525-.654.057-1.234.362-1.733.79l1.302 1.52zm1.039-.198c.029.025.176.193.332.723l1.918-.562c-.189-.645-.476-1.282-.967-1.693l-1.283 1.532zm.332.723c.158.54.25 1.007.286 1.404l1.992-.174a9.325 9.325 0 00-.36-1.792l-1.918.562zm.294 1.16c-.052.332-.191.706-.452 1.126l1.7 1.056c.372-.6.626-1.223.728-1.868l-1.976-.314zm-.452 1.126a30 30 0 00-.813 1.381l1.756.96c.196-.358.448-.786.757-1.285l-1.7-1.056zm-.79 1.343a441.883 441.883 0 00-2.525 4.206l1.725 1.016c.519-.883 1.356-2.277 2.511-4.185l-1.711-1.037zm-2.572 4.295l-1.211 2.636 1.818.837 1.211-2.636-1.818-.837zm-1.211 2.636c-.399.87-.903 1.931-1.512 3.185l1.799.876a166.405 166.405 0 001.531-3.224l-1.818-.837zm-1.512 3.185c-.593 1.22-1.665 3.153-3.234 5.818l1.725 1.016c1.571-2.67 2.679-4.661 3.308-5.958l-1.799-.876zm-2.471 7.32c2.612.265 5.918.34 9.906.234l-.056-2c-3.944.106-7.157.03-9.651-.223l-.199 1.99zm9.937.232a445.69 445.69 0 0013.136-.968l-.178-1.992c-4.653.407-9.012.729-13.076.964l.118 1.996zm13.161-.97c4.66-.528 9.433-1.127 14.321-1.796l-.275-1.981a622.444 622.444 0 01-14.274 1.79l.228 1.987zm14.343-1.8a430.623 430.623 0 0014.266-2.515l-.385-1.963a429.956 429.956 0 01-14.2 2.504l.319 1.975zm14.245-2.511a697.15 697.15 0 008.017-1.425l-.365-1.967c-2.485.458-5.15.931-7.994 1.421l.342 1.97zm8.017-1.425c2.459-.454 4.486-.687 6.095-.712l-.035-2c-1.76.028-3.906.28-6.425.745l.365 1.967zm6.086-.712c1.482-.011 2.454.105 3.004.29.274.091.344.167.338.16a.266.266 0 01-.055-.175l1.976.314a1.748 1.748 0 00-.417-1.454c-.324-.37-.771-.595-1.21-.742-.878-.294-2.126-.404-3.654-.393l.018 2zm3.287.275c-.014.092-.115.354-.674.738-.542.373-1.383.767-2.572 1.162l.634 1.897c1.269-.422 2.31-.886 3.073-1.41.747-.513 1.376-1.188 1.515-2.073l-1.976-.314zm-3.18 1.88c-2.071.535-4.994 1.089-8.785 1.66l.301 1.978c3.817-.576 6.818-1.142 8.987-1.701l-.503-1.937zm-8.787 1.661c-3.681.563-7.72 1.157-12.119 1.782l.284 1.98c4.405-.626 8.451-1.221 12.14-1.785l-.305-1.977zm-12.093 1.779a5324.8 5324.8 0 01-13.952 1.582l.226 1.987c4.891-.548 9.544-1.076 13.957-1.582l-.231-1.987zm-13.928 1.58a3.08 3.08 0 01-.084.007l-.028.002-.028.003-.028.002-.028.003-.028.002-.028.003a2.461 2.461 0 00-.111.01l-.028.002-.028.002-.028.003-.028.002-.028.003-.028.002-.028.002-.028.003-.028.002-.028.003-.028.002-.028.003-.028.002a3.08 3.08 0 01-.028.003l-.027.002a3.08 3.08 0 00-.056.005l-.028.002-.028.003-.028.002-.028.003-.028.002-.027.003a3.08 3.08 0 00-.084.007l-.028.002-.028.003a3.08 3.08 0 01-.028.002l-.027.003-.028.002-.028.002-.028.003-.028.002a3.08 3.08 0 01-.028.003l-.027.002-.028.003-.028.002-.028.002-.028.003-.028.002-.027.003-.028.002-.028.003a3.08 3.08 0 01-.028.002l-.027.003-.028.002-.028.002a24.666 24.666 0 00-.056.005l-.027.003-.028.002-.028.003a3.08 3.08 0 01-.055.004l-.028.003a1.396 1.396 0 01-.055.005l-.028.002-.028.003-.028.002-.027.002-.028.003-.028.002-.027.003-.028.002-.028.002-.028.003-.027.002-.028.003-.028.002-.027.003-.028.002a1.396 1.396 0 01-.055.005l-.028.002a3.08 3.08 0 01-.028.003l-.027.002-.028.003-.027.002-.028.002a3.08 3.08 0 01-.028.003l-.027.002-.028.003-.028.002-.027.002-.028.003-.027.002a3.08 3.08 0 00-.056.005l-.027.003-.028.002-.027.002-.028.003-.028.002-.027.003-.028.002-.027.002-.028.003-.027.002-.028.003-.027.002a3.08 3.08 0 00-.056.005l-.027.002a3.08 3.08 0 01-.028.003l-.027.002-.028.003-.027.002-.028.002-.027.003-.028.002-.027.003-.028.002-.027.002-.028.003-.027.002a3.08 3.08 0 01-.028.003l-.027.002a3.08 3.08 0 01-.028.002l-.027.003a3.08 3.08 0 01-.028.002l-.027.003-.027.002-.028.002-.027.003-.028.002-.027.003-.028.002-.027.002-.028.003-.027.002-.027.003-.028.002-.027.002-.028.003-.027.002-.027.003-.028.002-.027.002a3.08 3.08 0 01-.028.003l-.027.002-.027.003-.028.002-.027.002-.027.003-.028.002-.027.003-.028.002-.027.002-.027.003-.028.002-.027.002-.027.003-.028.002-.027.003a34604785641.887 34604785641.887 0 01-.055.005l-.027.002-.027.002-.028.003-.027.002-.027.002-.027.003-.028.002-.027.003-.027.002-.028.002-.027.003-.027.002-.027.002-.028.003-.027.002-.027.003-.027.002-.028.002-.027.003-.027.002-.027.003-.028.002-.027.002-.027.003-.027.002-.027.002-.028.003-.027.002-.027.003-.027.002-.027.002-.028.003a2.457 2.457 0 01-.054.005l-.027.002-.027.002-.027.003-.028.002-.027.002-.027.003-.027.002-.027.002a34604785641.887 34604785641.887 0 00-.055.005l-.027.003-.027.002-.027.002-.027.003-.027.002-.027.002-.027.003-.027.002-.028.003-.027.002-.027.002a2.457 2.457 0 01-.054.005l-.027.002-.027.003a2.457 2.457 0 00-.054.005l-.027.002-.027.002-.027.003-.027.002-.028.002-.027.003-.027.002-.027.002-.027.003-.027.002-.027.003-.027.002-.027.002-.027.003-.027.002-.027.002-.027.003-.027.002a2.457 2.457 0 00-.054.005l-.027.002-.027.003-.027.002-.027.002-.027.003-.027.002-.027.002-.026.003-.027.002-.027.002-.027.003-.027.002-.027.002-.027.003-.027.002-.027.003-.027.002-.027.002-.027.003-.027.002a2.47 2.47 0 00-.026.002l-.027.003-.027.002-.027.002-.027.003-.027.002-.027.002-.027.003-.027.002a1.209 1.209 0 01-.053.005l-.027.002-.027.003-.027.002-.027.002-.026.003-.027.002-.027.002-.027.003-.027.002-.027.002-.026.003-.027.002-.027.002-.027.003-.027.002-.026.002-.027.003-.027.002-.027.003-.027.002-.026.002-.027.002-.027.003-.027.002-.026.002a34604785641.887 34604785641.887 0 01-.081.008l-.026.002-.027.002-.027.003a2.457 2.457 0 00-.08.007l-.027.002-.026.002-.027.003-.027.002-.027.002-.026.003-.027.002-.027.002-.026.003-.027.002-.027.002-.026.003-.027.002-.027.002-.026.003-.027.002-.027.002-.026.003-.027.002-.027.002a2.47 2.47 0 01-.026.003l-.027.002-.026.002-.027.003-.027.002-.026.002-.027.003-.026.002-.027.002-.027.002-.026.003-.027.002-.026.002-.027.003-.027.002-.026.003-.027.002-.026.002-.027.002-.026.003-.027.002-.026.002-.027.003-.027.002-.026.002-.027.003-.026.002-.027.002-.026.003-.027.002-.026.002-.027.003-.026.002-.027.002-.026.003-.027.002-.026.002-.027.002-.026.003-.027.002-.026.003-.027.002-.026.002a19.742 19.742 0 01-.079.007l-.027.002-.026.003-.027.002-.026.002-.027.003-.026.002-.026.002-.027.003-.026.002-.027.002-.026.002-.026.003-.027.002-.026.002a2.457 2.457 0 01-.053.005l-.026.002-.027.003-.026.002-.026.002-.027.003-.026.002-.027.002-.026.003-.026.002-.027.002-.026.002-.026.003-.027.002-.026.002-.026.003-.027.002-.026.002-.026.002a19.742 19.742 0 01-.053.005l-.026.002-.026.003a2.457 2.457 0 01-.053.004l-.026.003-.027.002-.026.002-.026.002-.026.003-.027.002-.026.002-.026.003-.026.002-.027.002-.026.003-.026.002-.026.002a1.209 1.209 0 00-.053.005l-.026.002-.026.002-.026.003-.027.002a1.209 1.209 0 01-.052.005l-.026.002-.026.002-.027.002-.026.003-.026.002-.026.002-.026.003-.026.002-.027.002a1.209 1.209 0 01-.052.005l-.026.002-.026.002-.026.003-.026.002-.027.002-.026.002-.026.003-.026.002-.026.002-.026.003-.026.002-.026.002-.026.002-.027.003-.026.002-.026.002-.026.003-.026.002-.026.002-.026.002-.026.003-.026.002-.026.002-.026.002-.026.003-.026.002-.026.002-.026.003-.026.002-.027.002-.026.002-.026.003-.026.002-.026.002-.026.003-.026.002-.026.002-.026.002-.026.003-.026.002-.026.002-.026.002-.026.003-.026.002a2.11 2.11 0 01-.025.002l-.026.003-.026.002-.026.002-.026.002-.026.003-.026.002-.026.002-.026.003-.026.002-.026.002-.026.002-.026.002.178 1.993.025-.003.026-.002.026-.002.026-.002.026-.003.026-.002.026-.002.026-.002.026-.003.026-.002.026-.002.026-.003.026-.002.026-.002.026-.002.026-.003.026-.002.026-.002.026-.002.026-.003.026-.002.026-.002.026-.003.026-.002.026-.002.026-.002.026-.003.026-.002.026-.002.026-.002.026-.003.026-.002.026-.002.026-.003.026-.002.026-.002a1.209 1.209 0 00.052-.005l.026-.002.026-.002.027-.003.026-.002.026-.002.026-.002.026-.003.026-.002.026-.002.026-.003a1.209 1.209 0 00.052-.004l.027-.002.026-.003.026-.002.026-.002.026-.003a1.209 1.209 0 00.052-.004l.027-.002a1.209 1.209 0 01.052-.005l.026-.002.026-.003.026-.002.027-.002.026-.003.026-.002.026-.002.026-.002.027-.003a1.209 1.209 0 01.052-.004l.026-.002.026-.003.027-.002.026-.002.026-.003.026-.002.026-.002.027-.003.026-.002.026-.002a1.209 1.209 0 00.053-.005l.026-.002a1.209 1.209 0 00.053-.005l.026-.002.026-.002a1.209 1.209 0 00.053-.005l.026-.002.026-.002.027-.003.026-.002.026-.002a1.209 1.209 0 00.053-.005l.026-.002.026-.003.027-.002.026-.002c.009 0 .018-.002.026-.003l.027-.002.026-.002.026-.002.027-.003.026-.002.026-.002.027-.003.026-.002a2.457 2.457 0 01.053-.005l.026-.002.027-.002.026-.002.026-.003.027-.002.026-.002.027-.003.026-.002.026-.002.027-.003.026-.002.027-.002.026-.003.027-.002.026-.002.026-.002.027-.003.026-.002.027-.002.026-.003.027-.002.026-.002.027-.003.026-.002.027-.002.026-.003.027-.002.026-.002.027-.003.026-.002a2.457 2.457 0 01.08-.007l.026-.002.027-.003.026-.002.027-.002.026-.002.027-.003.026-.002.027-.002.026-.003.027-.002.026-.002.027-.003.027-.002.026-.002.027-.003.026-.002.027-.002.026-.003.027-.002.027-.002.026-.003.027-.002.026-.002.027-.003.027-.002.026-.002.027-.003.027-.002.026-.002.027-.003a2.47 2.47 0 00.053-.004l.027-.003.026-.002.027-.002.027-.003.026-.002.027-.002.027-.003.026-.002.027-.002.027-.003.026-.002.027-.002.027-.003a2.47 2.47 0 00.053-.004l.027-.003.027-.002.026-.002.027-.003.027-.002.026-.002.027-.003.027-.002.027-.002.026-.003.027-.002.027-.002.027-.003.026-.002.027-.002.027-.003a34604785641.887 34604785641.887 0 01.08-.007l.027-.002.027-.002.027-.003.026-.002.027-.003.027-.002.027-.002.027-.003.026-.002.027-.002.027-.002.027-.003.027-.002.027-.003.026-.002.027-.002.027-.003.027-.002.027-.002.027-.003.027-.002.027-.002a1.209 1.209 0 01.053-.005l.027-.002.027-.003.027-.002.027-.002.027-.003a2.457 2.457 0 00.107-.01c.009 0 .018 0 .027-.002l.027-.002.027-.002.027-.003.027-.002.027-.002.027-.003.027-.002.027-.002.027-.003.027-.002.027-.003.027-.002.027-.002.027-.003.027-.002.027-.002.027-.003.027-.002.027-.002.027-.003.027-.002.027-.002.027-.003.027-.002.027-.003.027-.002.027-.002.027-.003.027-.002.027-.002.027-.003.027-.002.027-.002.027-.003.027-.002.027-.003.027-.002.027-.002.027-.003.027-.002.028-.003.027-.002.027-.002.027-.003.027-.002.027-.002.027-.003.027-.002.027-.002.028-.003.027-.002.027-.003.027-.002.027-.002.027-.003.027-.002.028-.002.027-.003.027-.002.027-.003.027-.002.027-.002.028-.003.027-.002.027-.002.027-.003.027-.002.027-.003.028-.002.027-.002.027-.003.027-.002.028-.003.027-.002.027-.002.027-.003.027-.002.028-.002.027-.003.027-.002.027-.003.028-.002.027-.002.027-.003.027-.002c.01 0 .019-.002.028-.003l.027-.002.027-.002.028-.003.027-.002.027-.002.027-.003.028-.002.027-.003.027-.002.028-.002.027-.003.027-.002.028-.003.027-.002.027-.002.028-.003.027-.002.027-.002.028-.003.027-.002.027-.003.028-.002.027-.003.028-.002.027-.002.027-.003.028-.002.027-.003.027-.002.028-.002.027-.003.028-.002.027-.003.027-.002.028-.002.027-.003.028-.002.027-.003.028-.002.027-.002.027-.003.028-.002.027-.003a3.08 3.08 0 00.055-.004l.028-.003.027-.002.028-.002.027-.003.028-.002.027-.003.028-.002.027-.002.028-.003.027-.002a3.08 3.08 0 01.083-.008l.027-.002.028-.002.027-.003.028-.002.027-.003.028-.002.027-.002.028-.003.027-.002a3.08 3.08 0 00.056-.005l.027-.002.028-.003.027-.002.028-.003.027-.002c.01 0 .019-.002.028-.003l.028-.002.027-.002.028-.003.027-.002.028-.003.027-.002.028-.002.028-.003.027-.002.028-.003.028-.002.027-.002.028-.003.027-.002.028-.003.028-.002.027-.003.028-.002.028-.002.027-.003.028-.002.028-.003.027-.002c.01 0 .019-.002.028-.003l.028-.002.027-.002.028-.003.028-.002.028-.003.027-.002.028-.002.028-.003.027-.002.028-.003.028-.002.028-.003.027-.002.028-.002.028-.003.028-.002.027-.003.028-.002.028-.003a3.08 3.08 0 01.083-.007l.028-.002.028-.003.027-.002.028-.003.028-.002.028-.002.028-.003.027-.002.028-.003.028-.002.028-.003.028-.002.027-.003.028-.002.028-.002.028-.003.028-.002.028-.003.027-.002.028-.002.028-.003.028-.002.028-.003.028-.002.028-.003.028-.002.027-.003.028-.002.028-.002.028-.003.028-.002.028-.003.028-.002a3.08 3.08 0 01.084-.008l.027-.002c.01 0 .019-.002.028-.003l.028-.002a1.396 1.396 0 00.056-.005l.028-.002.028-.003.028-.002.028-.003.028-.002.028-.002.028-.003.028-.002.028-.003.028-.002.028-.003.028-.002.028-.003a24.666 24.666 0 00.168-.014l-.178-1.992zm-13.779 1.206c-4.322.257-8.281.543-11.879.858l.178 1.992c3.575-.313 7.516-.598 11.823-.854l-.122-1.996zm-11.879.858c-3.459.302-6.13.476-8.022.523l.052 1.999c1.955-.049 4.674-.226 8.148-.53l-.178-1.992zm-8.838.982a404.78 404.78 0 00-5.704 9.194l1.713 1.034a405.64 405.64 0 015.675-9.148l-1.684-1.08zm-5.717 9.216a656.146 656.146 0 00-5.618 10.082l1.756.96a658.283 658.283 0 015.601-10.052l-1.739-.99zm-5.63 10.105a289.4 289.4 0 00-4.91 10.04l1.815.844a286.446 286.446 0 014.875-9.97l-1.78-.914zm-4.902 10.024c-1.534 3.159-2.852 6.062-3.952 8.708l1.847.77c1.083-2.604 2.384-5.471 3.904-8.602l-1.799-.876zm-3.959 8.726a106.188 106.188 0 00-2.615 7.525l1.911.593a104.184 104.184 0 012.565-7.383l-1.861-.735zm-2.61 7.509c-.869 2.655-1.405 5.066-1.591 7.226l1.993.175c.169-1.967.664-4.223 1.499-6.777l-1.901-.624zm-1.594 7.276c-.075 2.104.45 3.867 1.817 5.012l1.283-1.532c-.716-.599-1.164-1.643-1.101-3.405l-1.999-.075zm1.869 5.053c.829.606 1.885.679 2.966.482 1.089-.199 2.356-.698 3.778-1.443l-.93-1.771c-1.34.701-2.403 1.099-3.21 1.247-.816.149-1.224.019-1.425-.129l-1.179 1.614zm6.703-.94c1.339-.624 2.82-1.505 4.439-2.629l-1.142-1.643c-1.558 1.082-2.938 1.897-4.144 2.459l.847 1.813zm4.439-2.629a278.934 278.934 0 004.946-3.515l-1.177-1.618a286.281 286.281 0 01-4.911 3.49l1.142 1.643zm4.984-3.544a195.864 195.864 0 004.906-4.061l-1.302-1.52a193.853 193.853 0 01-4.857 4.02l1.253 1.561zm4.94-4.092a209.668 209.668 0 004.348-4.192l-1.412-1.42a208.713 208.713 0 01-4.306 4.154l1.37 1.458zm4.23-4.093c.61-.442 1.123-.897 1.518-1.367l-1.534-1.286c-.259.31-.638.655-1.161 1.035l1.177 1.618zm1.601-1.482a2.27 2.27 0 01.941-.837l-.905-1.785a4.263 4.263 0 00-1.736 1.566l1.7 1.056zm1.115-.949c.642-.514 1.107-.783 1.414-.889l-.655-1.89c-.628.217-1.304.65-2.012 1.218l1.253 1.561zm1.539-.941a.177.177 0 01.157-.014c.095.029.276.122.539.386l1.417-1.41c-.398-.4-.857-.732-1.381-.89a2.168 2.168 0 00-1.636.143l.904 1.785zm.625.293c.338.42.372.757.22 1.143l1.861.735c.438-1.112.225-2.199-.522-3.129l-1.559 1.25zm.193 1.221c-.137.456-.422.972-.905 1.55l1.534 1.285c.606-.723 1.051-1.475 1.286-2.257l-1.915-.578zm-.905 1.55c-.601.716-1.716 1.8-3.388 3.268l1.321 1.503c1.681-1.475 2.895-2.644 3.601-3.486l-1.534-1.286zm-3.388 3.268c-1.648 1.447-3.593 2.985-5.837 4.615l1.177 1.619c2.282-1.658 4.277-3.235 5.981-4.73l-1.321-1.504zm-5.855 4.629a133.474 133.474 0 01-6.917 4.909l1.109 1.665a134.801 134.801 0 007.021-4.983l-1.213-1.591zm-6.903 4.9c-2.363 1.514-4.621 2.777-6.772 3.792l.855 1.809c2.242-1.057 4.575-2.364 6.998-3.918l-1.081-1.683zm-6.76 3.786c-1.924.875-3.513 1.39-4.784 1.583-1.279.195-2.133.049-2.687-.266l-.988 1.737c1.096.624 2.464.736 3.978.506 1.523-.232 3.299-.824 5.311-1.74l-.83-1.82zm-7.458 1.324c-1.487-.876-2.385-2.247-2.669-4.242l-1.98.279c.359 2.525 1.563 4.464 3.635 5.686l1.014-1.723zm-2.678-4.294c-.409-2.089-.347-4.487.224-7.211l-1.958-.413c-.612 2.921-.701 5.596-.229 8.006l1.963-.382zm.224-7.211c.588-2.8 1.204-5.232 1.848-7.299l-1.91-.597c-.667 2.143-1.299 4.638-1.896 7.483l1.958.413zm1.844-7.285a97.443 97.443 0 014.086-10.374l-1.818-.837a99.416 99.416 0 00-4.169 10.586l1.901.625zm4.086-10.374a267.61 267.61 0 015.021-10.34l-1.781-.914a270.2 270.2 0 00-5.058 10.417l1.818.837zm5.008-10.317a1273.56 1273.56 0 015.442-9.864l-1.747-.976a1229.052 1229.052 0 00-5.451 9.88l1.756.96zm5.438-9.857a269.363 269.363 0 004.991-9.142l-1.776-.922a268.83 268.83 0 01-4.954 9.074l1.739.99zm3.984-10.596c-3.934.464-7.987.94-12.16 1.425l.234 1.986c4.174-.485 8.229-.96 12.164-1.425l-.238-1.986zm-12.131 1.422l-.024.002-.024.002-.024.002a1.953 1.953 0 00-.047.005c-.008 0-.016 0-.024.002-.008 0-.016 0-.024.002l-.023.002-.024.002-.024.002-.024.002-.023.002-.024.002-.024.002-.024.002-.023.002-.024.002-.024.003c-.007 0-.015 0-.023.002-.008 0-.016 0-.024.002l-.024.002-.023.002-.024.002-.023.002-.024.002-.024.002-.023.002-.024.002-.023.002-.024.002-.024.002-.023.002-.024.002-.023.003c-.008 0-.016 0-.024.002-.008 0-.015 0-.023.002l-.024.002-.023.002-.024.002-.023.002-.024.002-.023.002-.024.002-.023.002a1.94 1.94 0 00-.024.002l-.023.002a.953.953 0 00-.023.002l-.024.002a.953.953 0 00-.023.002l-.024.002-.023.002-.024.002a1.953 1.953 0 01-.046.005c-.008 0-.016 0-.024.002-.007 0-.015 0-.023.002l-.023.002-.024.002a1.953 1.953 0 01-.046.004l-.024.002-.023.002-.023.002-.024.002-.023.002-.023.002-.023.002-.024.002-.023.002-.023.002a.953.953 0 00-.023.002l-.024.002-.023.002-.023.002-.023.002a13.658 13.658 0 01-.047.004l-.023.002-.023.002-.023.002a.953.953 0 00-.023.002l-.023.003c-.008 0-.016 0-.024.002-.007 0-.015 0-.023.002-.007 0-.015 0-.023.002-.008 0-.015 0-.023.002-.008 0-.015 0-.023.002l-.023.002-.023.002a.953.953 0 00-.023.002l-.023.002-.024.002a.953.953 0 01-.023.002l-.023.002-.023.002-.023.002-.023.002-.023.002a.953.953 0 01-.069.006l-.023.002-.023.002-.023.002-.023.002-.023.002-.022.002-.023.002-.023.002-.023.002-.023.002-.023.002-.023.002-.023.002a.953.953 0 01-.068.006l-.023.002-.023.002-.023.002-.023.002a.953.953 0 01-.045.004l-.023.002-.023.002-.023.002-.023.002-.022.002a.953.953 0 00-.023.002l-.023.002-.023.002-.022.002-.023.002-.023.002-.023.002-.022.002-.023.002-.023.002-.022.002-.023.002a.953.953 0 01-.023.002l-.022.002-.023.002-.023.002-.022.002-.023.002c-.007 0-.015 0-.022.002-.008 0-.015 0-.023.002-.008 0-.015 0-.023.002-.007 0-.015 0-.022.002-.008 0-.015 0-.023.002-.007 0-.015 0-.022.002-.008 0-.015 0-.023.002l-.022.001-.023.002-.023.002-.022.002-.023.002-.022.002-.023.002-.022.002-.023.002-.022.002-.023.002-.022.002-.022.002-.023.002-.022.002-.023.002-.022.002-.023.002-.022.002-.022.002-.023.002-.022.002-.023.002-.022.002c-.007 0-.015 0-.022.002-.008 0-.015 0-.023.002-.007 0-.015 0-.022.002l-.022.001-.023.002-.022.002-.022.002-.023.002-.022.002-.022.002-.022.002-.023.002-.022.002-.022.002-.022.002-.023.002-.022.002-.022.002-.022.002-.023.002c-.007 0-.014 0-.022.002-.007 0-.015 0-.022.002l-.022.001-.022.002-.022.002-.023.002-.022.002-.022.002-.022.002-.022.002-.022.002-.022.002a.874.874 0 00-.022.002l-.023.002a.874.874 0 01-.022.002c-.007 0-.014 0-.022.002-.007 0-.014 0-.022.002a.874.874 0 01-.022.001l-.022.002-.022.002-.022.002-.022.002-.022.002-.022.002-.022.002-.022.002-.022.002-.022.002-.022.002c-.007 0-.015 0-.022.002-.007 0-.014 0-.022.002l-.022.001-.022.002-.022.002-.021.002-.022.002-.022.002a.874.874 0 00-.022.002l-.022.002-.022.002-.022.002a.874.874 0 01-.044.003l-.021.002a.874.874 0 00-.022.002l-.022.002-.022.002-.022.002-.021.002-.022.002-.022.002-.022.002a.874.874 0 01-.022.002l-.021.001-.022.002-.022.002a.874.874 0 01-.022.002l-.021.002-.022.002a.874.874 0 01-.043.004l-.022.002c-.007 0-.015 0-.022.002l-.021.001-.022.002-.022.002-.021.002-.022.002-.022.002-.021.002a.874.874 0 00-.065.005l-.022.002-.021.002-.022.002-.021.002-.022.002-.022.002-.021.002c-.007 0-.015 0-.022.002l-.021.001-.022.002-.021.002-.022.002-.021.002-.022.002-.021.002-.022.002c-.007 0-.014 0-.021.002l-.022.001-.021.002a.874.874 0 01-.022.002l-.021.002-.021.002-.022.002-.021.002c-.007 0-.014 0-.022.002l-.021.001-.021.002-.022.002-.021.002-.021.002-.022.002c-.007 0-.014 0-.021.002l-.021.001-.022.002-.021.002-.021.002-.022.002-.021.002-.021.002c-.007 0-.014 0-.022.002l-.021.001-.021.002-.021.002a.874.874 0 01-.022.002l-.021.002-.021.002c-.007 0-.014 0-.021.002l-.021.001-.022.002-.021.002-.021.002-.021.002-.021.002c-.007 0-.015 0-.022.002l-.021.001-.021.002-.021.002-.021.002-.021.002c-.007 0-.014 0-.021.002l-.021.001-.022.002-.021.002-.021.002-.021.002-.021.002c-.007 0-.014 0-.021.002l-.021.001-.021.002-.021.002-.021.002a1.488 1.488 0 00-.042.004l-.021.001-.021.002-.021.002-.021.002-.021.002c-.007 0-.014 0-.021.002l-.021.001-.021.002-.021.002-.021.002-.021.002c-.007 0-.013 0-.02.002l-.021.001-.021.002-.021.002-.021.002-.021.002-.021.001-.021.002-.02.002-.021.002-.021.002c-.007 0-.014 0-.021.002l-.021.001-.02.002-.021.002-.021.002-.021.002c-.007 0-.014 0-.021.002l-.02.001-.021.002-.021.002-.021.002c-.006 0-.013 0-.02.002l-.021.001-.021.002-.02.002-.021.002-.021.002-.02.001-.021.002-.021.002-.02.002-.021.002-.021.001-.02.002-.021.002-.021.002-.02.002c-.007 0-.014 0-.021.002l-.02.001-.021.002-.02.002-.021.002c-.007 0-.014 0-.021.002l-.02.001-.021.002-.02.002-.021.002-.02.001-.021.002-.02.002-.021.002-.02.002-.021.001-.02.002-.021.002-.02.002-.02.002-.021.001-.02.002-.021.002-.02.002c-.007 0-.014 0-.021.002l-.02.001-.02.002-.021.002-.02.002-.02.001-.021.002-.02.002-.02.002c-.007 0-.014 0-.021.002l-.02.001-.02.002-.021.002-.02.002-.02.001-.02.002-.021.002-.02.002c-.007 0-.014 0-.02.002a1.484 1.484 0 01-.061.005l-.02.002a.728.728 0 00-.041.003l-.02.002-.02.002-.02.001a1.497 1.497 0 00-.04.004l-.021.002a.728.728 0 01-.02.001l-.02.002-.02.002-.02.002c-.007 0-.014 0-.02.002l-.02.001-.02.002-.021.002a8.973 8.973 0 00-.04.003l-.02.002-.02.002c-.006 0-.013 0-.02.002l-.02.001-.02.002-.02.002-.02.002-.02.001-.02.002-.02.002-.02.002-.02.001-.02.002-.02.002c-.006 0-.013 0-.02.002l-.02.001-.02.002-.019.002c-.007 0-.014 0-.02.002l-.02.001-.02.002-.02.002c-.007 0-.013 0-.02.002l-.02.001a.728.728 0 01-.02.002l-.02.002-.019.001-.02.002-.02.002-.02.002a.728.728 0 01-.04.003l-.019.002-.02.002-.02.001-.02.002-.019.002c-.007 0-.014 0-.02.002l-.02.001-.02.002-.019.002-.02.001-.02.002-.02.002-.019.002-.02.001-.02.002-.019.002-.02.001a.728.728 0 01-.02.002l-.019.002-.02.002-.02.001-.019.002-.02.002.178 1.992.019-.002.02-.002.019-.001.02-.002.02-.002c.006 0 .013 0 .019-.002l.02-.001.02-.002.019-.002.02-.001.02-.002.019-.002c.007 0 .014 0 .02-.002l.02-.001.02-.002.019-.002.02-.001.02-.002.02-.002.019-.002.02-.001.02-.002.02-.002a.728.728 0 01.02-.002l.019-.001a.728.728 0 00.02-.002l.02-.002c.007 0 .013 0 .02-.002l.02-.001a.728.728 0 01.02-.002l.019-.002.02-.001.02-.002.02-.002.02-.002.02-.001.02-.002.02-.002.02-.002.02-.001.02-.002.019-.002.02-.002.02-.001.02-.002.02-.002.02-.002.02-.001.02-.002.02-.002.02-.002.02-.001.021-.002a.728.728 0 01.04-.004l.02-.001.02-.002.02-.002.02-.002.02-.001.02-.002a.728.728 0 00.02-.002l.02-.002.021-.001.02-.002.02-.002.02-.002c.007 0 .013 0 .02-.002l.02-.001.021-.002.02-.002a.728.728 0 01.02-.002l.02-.001.02-.002.021-.002.02-.002.02-.001.02-.002.021-.002.02-.002c.007 0 .013 0 .02-.002l.02-.001.021-.002.02-.002.02-.002.021-.001a.728.728 0 01.02-.002l.02-.002.021-.002c.006 0 .013 0 .02-.002l.02-.001.021-.002.02-.002.02-.002.021-.001.02-.002.021-.002a.728.728 0 01.02-.002c.007 0 .014 0 .02-.002l.021-.001.02-.002.021-.002.02-.002c.007 0 .014 0 .021-.002l.02-.001.021-.002.02-.002.021-.002.02-.001.021-.002.02-.002.021-.002.02-.002.021-.001.02-.002.021-.002.02-.002.021-.002.021-.001.02-.002.021-.002.02-.002.021-.002.021-.001.02-.002.021-.002.021-.002.02-.002c.007 0 .014 0 .021-.002l.021-.001.02-.002.021-.002.021-.002c.006 0 .013 0 .02-.002l.021-.001.021-.002.02-.002.021-.002.021-.002.021-.001.02-.002.021-.002.021-.002.021-.002c.007 0 .014 0 .021-.002l.02-.001.021-.002.021-.002.021-.002.021-.002.021-.001a.692.692 0 00.02-.002l.021-.002.021-.002.021-.002.021-.002.021-.001.021-.002.021-.002.021-.002.021-.002c.007 0 .013 0 .02-.002l.021-.001.021-.002.021-.002a1.488 1.488 0 01.042-.004c.007 0 .014 0 .021-.002l.021-.001.021-.002.021-.002.021-.002.021-.002.021-.002.021-.001.021-.002.022-.002.021-.002.021-.002.021-.002a1.488 1.488 0 01.042-.003l.021-.002.021-.002.021-.002.021-.002.022-.002.021-.001.021-.002.021-.002.021-.002.021-.002.022-.002c.007 0 .014 0 .021-.002a1.488 1.488 0 01.042-.003l.021-.002a.874.874 0 00.022-.002l.021-.002.021-.002c.007 0 .014 0 .021-.002l.022-.001.021-.002.021-.002.022-.002.021-.002.021-.002.022-.002.021-.001.021-.002.021-.002.022-.002.021-.002.022-.002.021-.002c.007 0 .014 0 .021-.002l.022-.001a1.488 1.488 0 00.064-.006l.021-.002a.874.874 0 00.022-.002l.021-.002c.007 0 .015 0 .022-.002l.021-.001.022-.002.021-.002.022-.002.021-.002.022-.002.021-.002c.007 0 .014 0 .022-.002l.021-.001a.874.874 0 01.022-.002l.021-.002.022-.002.021-.002.022-.002.021-.002.022-.002a.874.874 0 01.022-.002l.021-.001.022-.002.021-.002.022-.002.022-.002.021-.002.022-.002.022-.002c.007 0 .014 0 .021-.002.007 0 .015 0 .022-.002l.022-.001.021-.002.022-.002a.874.874 0 01.065-.006l.022-.002a1.488 1.488 0 01.043-.003l.022-.002.022-.002a11.95 11.95 0 00.065-.006l.022-.002.022-.002.021-.002.022-.002.022-.002c.007 0 .015 0 .022-.002a.874.874 0 01.044-.003l.021-.002a.874.874 0 00.044-.004l.022-.002.022-.002.022-.002.022-.002.022-.002c.007 0 .014 0 .022-.002.007 0 .014 0 .022-.002l.022-.001.021-.002.022-.002a.874.874 0 00.022-.002l.022-.002.022-.002.022-.002.022-.002.022-.002.022-.002.022-.002a.874.874 0 00.022-.002c.008 0 .015 0 .022-.002l.022-.001.023-.002.022-.002.022-.002.022-.002.022-.002.022-.002.022-.002.022-.002.022-.002.022-.002.023-.002.022-.002c.007 0 .014 0 .022-.002.007 0 .015 0 .022-.002.007 0 .015 0 .022-.002a.874.874 0 00.022-.001l.023-.002.022-.002.022-.002.022-.002.022-.002.023-.002.022-.002.022-.002.022-.002.023-.002.022-.002.022-.002.022-.002.023-.002c.007 0 .015 0 .022-.002.007 0 .015 0 .022-.002.008 0 .015 0 .023-.002l.022-.001.022-.002.023-.002.022-.002.022-.002.023-.002.022-.002.022-.002.023-.002.022-.002.023-.002.022-.002.022-.002.023-.002.022-.002.023-.002.022-.002.023-.002.022-.002.023-.002.022-.002.023-.002c.007 0 .015 0 .022-.002.008 0 .015 0 .023-.002.007 0 .015 0 .022-.002.008 0 .015 0 .023-.002.007 0 .015 0 .022-.002l.023-.001.022-.002.023-.002.023-.002.022-.002.023-.002.022-.002.023-.002.023-.002.022-.002.023-.002.022-.002.023-.002.023-.002.022-.002.023-.002.023-.002.022-.002.023-.002.023-.002.022-.002.023-.002.023-.002.023-.002.022-.002.023-.002.023-.002.023-.002a1.633 1.633 0 00.045-.004l.023-.002.023-.002.023-.002.022-.002.023-.002.023-.002.023-.002.023-.002a.953.953 0 01.068-.006l.023-.002.023-.002.023-.002.023-.002.023-.002.023-.002.023-.002.023-.002.023-.002.023-.002.023-.002.023-.002a.953.953 0 01.069-.006 1.953 1.953 0 01.069-.006l.023-.002.023-.002a.953.953 0 01.046-.004l.023-.002.023-.002.023-.002.023-.002.023-.002a.953.953 0 00.046-.004l.024-.002a.953.953 0 01.046-.004l.023-.002.023-.002.023-.002.023-.003a1.94 1.94 0 00.047-.004c.008 0 .015 0 .023-.002.008 0 .015 0 .023-.002.008 0 .016 0 .023-.002l.024-.002.023-.002.023-.002.023-.002.024-.002.023-.002.023-.002a.953.953 0 00.023-.002l.024-.002.023-.002a.953.953 0 00.023-.002l.024-.002.023-.002.023-.002.024-.002.023-.002.023-.002.024-.002a.953.953 0 01.046-.004l.024-.002.023-.003c.008 0 .016 0 .024-.002.007 0 .015 0 .023-.002.008 0 .016 0 .023-.002l.024-.002.023-.002.024-.002.023-.002.024-.002.023-.002.024-.002.023-.002.023-.002.024-.002a20246227002.207 20246227002.207 0 01.047-.004l.024-.002.023-.002.024-.002.023-.002.024-.003c.008 0 .015 0 .023-.002l.024-.002.023-.002.024-.002.024-.002.023-.002.024-.002.023-.002.024-.002.024-.002.023-.002.024-.002.024-.002.023-.003c.008 0 .016 0 .024-.002.008 0 .016 0 .024-.002l.023-.002.024-.002.024-.002.024-.002.023-.002.024-.002.024-.002.024-.002.023-.002.024-.002.024-.002.024-.003a.953.953 0 00.023-.002l.024-.002.024-.002-.177-1.992zm45.308 36.43l-.951-.313-.568 1.738 1.77-.457-.251-.968zm4.076-.899l.179.984.044-.008.043-.012-.266-.964zm3.882-1.062l.265.964.031-.008.031-.011-.327-.945zm3.538-.852l.171.986-.171-.986zm3.718-.867l-.089-.996-.109.01-.105.032.303.954zm2.721.123l.479-.877-.091-.05-.1-.03-.288.957zm.993.997l-.852.524.085.138.125.104.642-.766zm.47 1.224l-.988-.157-.019.122.011.122.996-.087zm-.637.96l.668.744-.668-.745zm-1.029.631l-.088-.996-.099.009-.095.028.282.96zm-3.343 1.016l.212.977.046-.01.045-.014-.303-.953zm-3.195.64l-.188-.982-.053.01-.051.016.292.956zm-6.703 1.852l.198.98.023-.005.022-.005-.243-.97zm-6.359 1.64l.265.965.019-.005.018-.006-.302-.954zm-3.068 2.076l.751.66.03-.034.027-.036-.808-.59zm-5.75 6.465l-.743-.67-.012.013-.012.014.767.643zm-5.435 3.909l.359.934.013-.005.013-.006-.385-.923zm-4.63.766l-.156.988.04.006.04.003.076-.997zm-3.451-2.228l.832-.553-.832.553zm-.837-5.347l.993.12.001-.01-.994-.11zm3.163-9.13l-.884-.47-.005.01-.005.008.894.452zm4.805-6.925l.747.665.001-.001-.748-.664zm6.287-6.513l-.669-.745-.011.01-.011.011.691.724zm2.889-2.06l.485.875.039-.022.037-.024-.561-.829zm3.67-1.405l.171.985.017-.002.016-.004-.204-.979zm4.758.668l-.596.802.026.02.028.018.542-.84zm1.817 4.177l-1 .029.001.03.003.028.996-.087zm-.267 3.095l.964.269.005-.018.005-.018-.974-.233zm-.625 3.127l.958.289.023-.078.011-.08-.992-.131zm-.737 1.871l-.9-.438-.017.035-.014.036.931.367zm-17.855 4.453l.955-.294-.618-2-1.167 1.735.83.56zm-.557 9.987l-.407.913.058.026.061.018.288-.957zm4.092-.72l.498.868.013-.007.014-.009-.525-.852zm3.857-5.396l.937.35.552-1.484-1.578.138.089.996zm-4.742-.489l-.437.9.035.016.036.014.366-.93zm11.538-16.548l.996-.088-.12-1.357-1.259.52.383.925zm-8.67 8.166l-.91-.415-.011.024-.01.024.931.367zm.793 2.822l.642-.766-.042-.036-.047-.03-.553.832zm2.949.645l-.178-.984-.009.002.187.982zm2.546-1.849l-.85-.528-.047.077-.033.084.93.367zm1.506-3.384l-.93-.367-.016.038-.012.04.958.29zm1.132-3.532l-.768-.643-.151.181-.055.23.974.232zm.083-1.091l-.945.326.945-.326zm2.858 9.955a55.072 55.072 0 014.004-.883l-.357-1.968c-1.331.24-2.714.544-4.149.915l.502 1.936zm4.091-.903l3.881-1.062-.531-1.929-3.881 1.063.531 1.928zm3.943-1.081c.867-.3 1.989-.572 3.382-.811l-.342-1.971c-1.455.25-2.692.545-3.695.892l.655 1.89zm3.382-.811c1.456-.251 2.741-.55 3.849-.9l-.605-1.907c-1.001.317-2.194.596-3.586.836l.342 1.97zm3.635-.857a.07.07 0 00.004 0h.003l.004-.001h.007l.003-.001h.011l.003-.001h.007a.07.07 0 01.004-.001h.006l.004-.001h.01a.07.07 0 01.004-.001h.006a.07.07 0 00.007-.001h.004l.003-.001h.01l.004-.001h.006l.004-.001h.006a.07.07 0 00.004 0l.003-.001h.003a.07.07 0 00.007-.001h.007l.003-.001h.01l.003-.001a.07.07 0 00.007 0l.003-.001h.01a.03.03 0 00.003-.001h.007l.003-.001h.01l.003-.001h.007l.003-.001h.01l.003-.001h.006a.07.07 0 00.004-.001h.009l.003-.001h.01l.003-.001h.007l.003-.001h.009l.003-.001h.007l.003-.001h.009l.003-.001h.01l.003-.001h.006l.003-.001h.009l.003-.001h.01l.003-.001h.006a.03.03 0 00.003 0l.003-.001h.006l.003-.001h.009l.003-.001h.009l.003-.001h.009l.003-.001h.009l.003-.001h.006l.003-.001h.009l.003-.001h.008a.03.03 0 00.003-.001h.003a.03.03 0 00.003 0h.003l.003-.001h.009l.003-.001h.002a.03.03 0 01.003 0h.003l.003-.001h.009l.002-.001h.009l.003-.001h.003a.03.03 0 01.003 0h.002l.003-.001h.009l.002-.001h.009l.003-.001h.008l.003-.001h.011l.003-.001h.005a.03.03 0 00.003 0 .03.03 0 01.003-.001h.008l.002-.001h.009l.002-.001h.008l.003-.001h.011l.002-.001h.008l.003-.001h.008l.003-.001h.01l.003-.001h.005a.03.03 0 01.003 0l.002-.001a.03.03 0 00.003 0h.005l.002-.001a.03.03 0 00.003 0h.008l.002-.001h.008l.003-.001h.007a.03.03 0 00.003 0l.002-.001h.008l.002-.001h.005a.03.03 0 01.003 0h.002l.003-.001h.01l.002-.001h.007l.003-.001h.01l.002-.001h.01l.002-.001a.03.03 0 01.003 0h.004a.03.03 0 00.003-.001h.002a.03.03 0 00.003 0h.004l.003-.001h.004a.03.03 0 01.003 0h.002l.002-.001h.01l.002-.001h.009l.003-.001h.004a.03.03 0 00.003 0h.002l.002-.001h.009l.003-.001h.006a.03.03 0 00.003 0l.002-.001h.004a.03.03 0 00.003 0h.002l.002-.001h.009l.002-.001h.009l.002-.001h.011l.002-.001h.009l.002-.001h.008l.003-.001h.01l.002-.001h.009l.002-.001h.01l.002-.001h.008l.002-.001h.01l.002-.001h.01l.002-.001h.01l.002-.001h.008l.002-.001h.009l.002-.001h.01l.002-.001h.009l.002-.001h.011l.002-.001h.009l.002-.001h.009l.002-.001h.01l.002-.001h.009l.001-.001h.011l.001-.001h.01l.002-.001h.01l.002-.001h.01l.001-.001h.01l.001-.001h.01l.001-.001h.01l.001-.001h.011l.001-.001h.011l.001-.001h.01l.002-.001h.01l-.178-1.993h-.011l-.002.001h-.01l-.001.001h-.009l-.002.001h-.01l-.002.001h-.009l-.001.001h-.01l-.002.001h-.011l-.001.001h-.01l-.002.001h-.008l-.002.001h-.01l-.002.001h-.01l-.002.001h-.008l-.002.001h-.011l-.002.001h-.009l-.001.001h-.011l-.002.001h-.009l-.002.001h-.01l-.001.001h-.01l-.002.001h-.01l-.001.001h-.01l-.002.001h-.008l-.002.001h-.01l-.002.001h-.01l-.002.001h-.008l-.002.001h-.011l-.002.001h-.008l-.002.001h-.011l-.002.001h-.008l-.003.001h-.01l-.002.001h-.009l-.002.001h-.009l-.002.001h-.009l-.002.001a.03.03 0 01-.003 0h-.006l-.003.001h-.009l-.002.001h-.009l-.002.001h-.01l-.002.001h-.009l-.002.001h-.007a.03.03 0 01-.003 0l-.002.001a.03.03 0 01-.003 0h-.007l-.002.001h-.01l-.002.001h-.002a.03.03 0 01-.003 0h-.002l-.003.001h-.009l-.003.001h-.009l-.003.001h-.01l-.002.001h-.008l-.002.001a.03.03 0 01-.003 0h-.007l-.003.001h-.007l-.003.001h-.01l-.002.001a.03.03 0 01-.003 0h-.005l-.003.001h-.01l-.002.001h-.008a.03.03 0 01-.003.001h-.01l-.003.001h-.008l-.002.001h-.008l-.003.001h-.008l-.003.001h-.01l-.003.001h-.008l-.003.001h-.008l-.003.001h-.005a.03.03 0 01-.003 0l-.003.001h-.005a.03.03 0 00-.003 0h-.003l-.002.001h-.009l-.002.001h-.009l-.002.001h-.009a.03.03 0 00-.003.001h-.008l-.003.001a.03.03 0 01-.003 0h-.005l-.003.001h-.009l-.003.001h-.008l-.003.001h-.009l-.003.001h-.008l-.003.001h-.009l-.003.001h-.009a.03.03 0 01-.003.001h-.008a178567208.238 178567208.238 0 00-.006.001h-.003l-.003.001a.03.03 0 00-.003 0h-.003a.03.03 0 01-.003 0l-.003.001h-.006a178567208.238 178567208.238 0 00-.006.001h-.009l-.003.001h-.009l-.003.001a.03.03 0 00-.003 0h-.003l-.003.001h-.01a.03.03 0 00-.003.001h-.009l-.003.001h-.009l-.003.001h-.007l-.003.001h-.009l-.003.001h-.009l-.004.001h-.006l-.003.001h-.01l-.003.001h-.006a.03.03 0 01-.003 0l-.003.001h-.007l-.003.001a.03.03 0 01-.003 0h-.007l-.003.001h-.006l-.003.001a.07.07 0 00-.004 0h-.006l-.003.001h-.007l-.003.001h-.01a267850812.357 267850812.357 0 00-.007.001h-.003l-.003.001h-.01l-.003.001h-.007l-.003.001h-.003a.07.07 0 00-.004 0h-.003l-.003.001h-.007l-.003.001a.07.07 0 00-.004 0h-.003a.07.07 0 01-.004.001h-.003a.03.03 0 00-.003 0h-.004l-.003.001h-.007l-.003.001h-.003a.07.07 0 00-.004 0h-.003l-.004.001h-.006a.07.07 0 00-.004.001h-.007l-.003.001h-.01l-.004.001h-.007l-.003.001h-.007l-.004.001h-.003a.07.07 0 01-.004 0h-.003l-.003.001a.07.07 0 00-.007 0 .07.07 0 00-.004.001h-.007l.177 1.993zm1.256-.11c.168-.015.511.02 1.09.194l.575-1.914c-.66-.2-1.294-.32-1.843-.272l.178 1.992zm.899.114c.194.106.407.3.619.644l1.703-1.047c-.351-.57-.799-1.042-1.365-1.351l-.957 1.754zm.829.886a.37.37 0 01.119.143c.007.02.02.064.005.158l1.976.314c.134-.848-.166-1.602-.817-2.147l-1.283 1.532zm.116.545a.531.531 0 01.022-.217c.01-.031.016-.034-.003-.005a2.075 2.075 0 01-.329.35l1.337 1.489c.255-.229.488-.473.659-.73.161-.244.346-.615.306-1.061l-1.992.174zm-.31.128a3.33 3.33 0 01-.448.35.61.61 0 01-.084.046c-.008.003.022-.01.084-.016l.177 1.992c.345-.03.647-.179.873-.317a5.26 5.26 0 00.735-.566l-1.337-1.49zm-.642.417c-1.18.345-2.301.686-3.363 1.021l.605 1.907a176.63 176.63 0 013.323-1.01l-.565-1.918zm-3.272.997c-.936.201-1.993.413-3.172.636l.375 1.965c1.191-.225 2.264-.44 3.22-.646l-.423-1.955zm-3.276.662a135.581 135.581 0 01-6.654 1.837l.486 1.94a137.593 137.593 0 006.752-1.864l-.584-1.913zm-6.609 1.827c-2.166.435-4.321.99-6.464 1.668l.605 1.907a59.836 59.836 0 016.255-1.614l-.396-1.96zm-6.427 1.657c-1.499.41-2.718 1.227-3.611 2.45l1.617 1.18c.611-.837 1.437-1.404 2.525-1.701l-.531-1.93zm-3.554 2.378a696.97 696.97 0 01-5.741 6.457l1.486 1.341a707.085 707.085 0 005.758-6.475l-1.503-1.323zm-5.765 6.484c-1.304 1.557-2.98 2.769-5.052 3.628l.769 1.847c2.343-.972 4.29-2.366 5.817-4.189l-1.534-1.286zm-5.027 3.618c-1.519.582-2.913.803-4.195.703l-.152 1.994c1.63.127 3.322-.162 5.065-.829l-.718-1.868zm-4.115.713c-1.187-.189-2.094-.771-2.775-1.794l-1.664 1.107c.987 1.481 2.381 2.384 4.127 2.662l.312-1.975zm-2.775-1.794c-.646-.97-.939-2.474-.676-4.674l-1.987-.24c-.289 2.426-.023 4.487.999 6.021l1.664-1.107zm-.675-4.684c.246-2.26 1.241-5.18 3.062-8.789l-1.787-.903c-1.865 3.7-2.979 6.867-3.264 9.472l1.989.22zm3.052-8.77a34.135 34.135 0 014.669-6.73l-1.495-1.331a36.14 36.14 0 00-4.941 7.121l1.767.94zm4.67-6.731a108.91 108.91 0 016.231-6.454L177.3 78.07c-2.24 2.14-4.355 4.33-6.345 6.572l1.497 1.329zm6.208-6.433a14.712 14.712 0 012.705-1.929l-.971-1.75c-1.1.61-2.124 1.34-3.072 2.19l1.338 1.49zm2.781-1.975c.887-.6 1.972-1.024 3.28-1.249l-.342-1.97c-1.541.265-2.902.778-4.06 1.562l1.122 1.657zm3.313-1.255c1.853-.384 3.11-.139 3.958.491l1.191-1.605c-1.474-1.094-3.388-1.294-5.558-.844l.409 1.958zm4.012.529c.755.487 1.303 1.481 1.359 3.366l2-.057c-.066-2.2-.73-3.991-2.276-4.989l-1.083 1.68zm1.363 3.424c.074.832-.001 1.755-.244 2.776l1.947.465c.283-1.193.386-2.334.289-3.415l-1.992.174zm-.234 2.74a23.752 23.752 0 00-.654 3.264l1.984.262a21.81 21.81 0 01.597-2.99L189.895 83zm-.62 3.106a11.543 11.543 0 01-.679 1.722l1.8.876c.327-.673.593-1.347.795-2.02l-1.916-.578zm-.71 1.793c-.207.525-.454 1.23-.741 2.105l1.902.625c.281-.86.515-1.523.701-1.995l-1.862-.735zm-17.754 4.261c-1.846 2.743-2.831 5.225-2.641 7.368l1.993-.175c-.129-1.443.536-3.442 2.308-6.075l-1.66-1.118zm-2.641 7.368c.168 1.887.93 3.387 2.507 4.091l.813-1.826c-.681-.304-1.197-.98-1.327-2.44l-1.993.175zm2.626 4.135c1.58.477 3.231.134 4.878-.809l-.996-1.735c-1.334.763-2.41.9-3.307.63l-.575 1.914zm4.905-.825c1.861-1.144 3.256-3.172 4.269-5.899l-1.875-.699c-.93 2.503-2.107 4.073-3.444 4.894l1.05 1.704zm3.243-7.244c-1.82.159-3.231-.006-4.287-.423l-.732 1.86c1.441.57 3.191.73 5.196.555l-.177-1.992zm-4.217-.392c-.955-.464-1.685-1.335-2.131-2.777l-1.911.588c.569 1.842 1.606 3.227 3.169 3.987l.873-1.798zm10.719-16.573c-4.285 1.77-7.372 4.665-9.197 8.675l1.82.83c1.602-3.517 4.294-6.066 8.144-7.657l-.767-1.849zm-9.218 8.723a4.195 4.195 0 00-.296 1.92l1.992-.174c-.027-.306.019-.64.166-1.011l-1.862-.735zm-.296 1.92c.082.925.726 1.608 1.467 2.101l1.106-1.664c-.538-.359-.578-.58-.581-.611l-1.992.174zm1.379 2.035c1.054.883 2.358 1.13 3.777.862l-.374-1.965c-.951.18-1.612-.004-2.12-.43l-1.283 1.533zm3.769.863c1.552-.279 2.747-1.066 3.298-2.465l-1.861-.735c-.236.597-.738 1.042-1.794 1.232l.357 1.968zm3.217-2.305a15.047 15.047 0 001.614-3.623l-1.916-.578a13.025 13.025 0 01-1.398 3.145l1.7 1.056zm1.587-3.544a27.253 27.253 0 001.174-3.668l-1.947-.464a25.187 25.187 0 01-1.088 3.397l1.861.735zm.968-3.257c.536-.64.481-1.427.261-2.06l-1.89.652c.051.147.049.214.049.22 0 0 .001-.014.01-.037a.24.24 0 01.035-.06l1.535 1.285zm.261-2.06c-.126-.364-.228-.87-.288-1.539l-1.992.175c.068.765.192 1.445.39 2.016l1.89-.652zm48.796 10.971l.006 1h.019l.02-.001-.045-.999zm-5.862-2.92l-.851.523.025.04.028.039.798-.602zm-1.526-2.938l-.954.3.016.05.021.047.917-.397zm-1.005-3.165l.953-.3-.028-.09-.044-.082-.881.472zm-7.284-.627l.555.832.012-.007.011-.009-.578-.816zm-3.511 3.198l-.767-.643.767.643zm-2.629 2.94l.704.712.002-.002-.706-.71zm-8.646 12.501l-.922-.388-.025.059-.017.061.964.268zm-1.406 2.472l.651.76.028-.024.026-.026-.705-.71zm-2.22 1.459l.251.968.076-.019.072-.031-.399-.918zm-1.825-.201l.527-.85-.044-.027-.046-.022-.437.899zm-.251-4.857l-.913-.41-.01.021-.008.022.931.367zm5.549-12.772l.922.389-.922-.39zm5.55-12.772l.913.41.009-.022.008-.021-.93-.367zm2.892-4.048l-.327-.945-.036.012-.036.016.399.917zm1.092.085l-.641.766.102.086.122.056.417-.908zm1.072 1.894l-.982-.19-.026.138.012.14.996-.088zm-.446 3.11l.919.396.023-.052.016-.054-.958-.29zm-1.916 4.866l.942.338-.942-.338zm-1.542 5.014l-.968-.253-.836 3.216 2.473-2.219-.669-.744zm1.666-1.592l-.692-.723-.04.038-.035.043.767.642zm2.988-2.971l.723.692.005-.006-.728-.686zm3.005-2.793l.626.78.042-.033.037-.038-.705-.709zm4.65-2.575l.219.976.047-.01.046-.016-.312-.95zm7.344 3.333l.945-.326-.009-.027-.011-.026-.925.379zm1.539 5.105l.964-.264-.013-.047-.018-.046-.933.357zm1.494 2.58l-.553.832.056.037.061.03.436-.9zm3.08.091l-.088-.996-.042.004-.041.007.171.985zm1.794-.156l.088.996.083-.008.08-.02-.251-.968zm1.956-.352l.089.996.035-.003.035-.006-.159-.987zm3.471.419l-.642.766.642-.766zm.371 2.136l.878.48.016-.03.015-.032-.909-.418zm-3.053 2.254l-.418-.909-.011.005-.011.006.44.898zm-6.397.282c-1.333.006-2.305-.235-2.99-.639l-1.014 1.723c1.096.645 2.459.922 4.016.916l-.012-2zm-2.99-.639c-.766-.451-1.457-1.073-2.068-1.883l-1.596 1.204c.754.998 1.637 1.804 2.65 2.402l1.014-1.723zm-2.015-1.805a22.288 22.288 0 01-1.46-2.812l-1.834.795a24.292 24.292 0 001.592 3.064l1.702-1.047zm-1.424-2.715l-1.005-3.165-1.906.602 1.004 3.165 1.907-.602zm-1.077-3.336c-.969-1.803-2.373-2.93-4.241-2.767l.177 1.992c.762-.067 1.539.3 2.302 1.72l1.762-.945zm-4.241-2.767c-1.532.134-3.036.757-4.503 1.795l1.157 1.633c1.253-.886 2.425-1.34 3.523-1.436l-.177-1.992zm-4.479 1.779c-1.34.891-2.58 2.024-3.723 3.388l1.535 1.285c1.035-1.235 2.135-2.235 3.298-3.008l-1.11-1.665zm-3.723 3.388c-1.082 1.292-1.936 2.245-2.568 2.874l1.412 1.419c.696-.693 1.595-1.7 2.691-3.008l-1.535-1.285zm-2.566 2.872c-3.958 3.914-6.92 8.188-8.864 12.824l1.844.776c1.832-4.367 4.635-8.427 8.428-12.177l-1.408-1.423zm-8.906 12.944c-.232.837-.618 1.504-1.148 2.031l1.411 1.419c.799-.794 1.349-1.775 1.665-2.914l-1.928-.536zm-1.094 1.98c-.733.628-1.389 1.051-1.967 1.302l.798 1.835c.814-.353 1.638-.903 2.472-1.617l-1.303-1.52zm-1.819 1.251c-.504.13-.818.059-1.047-.083l-1.054 1.699c.792.491 1.694.555 2.603.32l-.502-1.936zm-1.137-.132c-.166-.081-.446-.333-.529-1.262l-1.992.175c.109 1.222.554 2.353 1.648 2.885l.873-1.798zm-.529-1.262c-.042-.474.03-.747.113-.898l-1.756-.96c-.332.608-.413 1.312-.349 2.033l1.992-.175zm.113-.898c.231-.423.45-.902.658-1.43l-1.861-.736c-.185.47-.37.87-.553 1.206l1.756.96zm.64-1.388a612.362 612.362 0 005.559-12.793l-1.844-.778a614.106 614.106 0 01-5.54 12.751l1.825.82zm5.559-12.793a608.841 608.841 0 015.541-12.752l-1.826-.82a611.887 611.887 0 00-5.559 12.794l1.844.778zm5.558-12.794a11.388 11.388 0 011.881-3.156l-1.534-1.285a13.35 13.35 0 00-2.208 3.706l1.861.735zm1.881-3.156c.107-.128.258-.245.481-.342l-.799-1.834a3.247 3.247 0 00-1.216.89l1.534 1.286zm.409-.314a.642.642 0 01.22-.048s-.014-.001-.037-.01a.22.22 0 01-.06-.036l1.283-1.532c-.642-.537-1.428-.483-2.061-.264l.655 1.89zm.347.048c.312.144.429.28.475.36.038.07.079.19.032.436l1.965.38c.117-.612.062-1.236-.257-1.798-.312-.551-.813-.933-1.38-1.194l-.835 1.816zm.493 1.073c.059.66-.055 1.56-.408 2.735l1.916.578c.391-1.3.575-2.474.485-3.487l-1.993.174zm-.369 2.628a86.821 86.821 0 00-1.939 4.923l1.884.676a84.493 84.493 0 011.893-4.808l-1.838-.79zm-1.939 4.923a59.762 59.762 0 00-1.568 5.099l1.936.505c.442-1.697.947-3.34 1.516-4.928l-1.884-.676zm.069 6.096c.877-.787 1.491-1.367 1.764-1.693l-1.534-1.285c-.163.194-.659.674-1.567 1.489l1.337 1.49zm1.688-1.612a97.115 97.115 0 003.02-3.003l-1.445-1.385a94.945 94.945 0 01-2.958 2.941l1.383 1.447zm3.025-3.009a28.657 28.657 0 012.903-2.698l-1.253-1.561a30.582 30.582 0 00-3.106 2.886l1.456 1.373zm2.982-2.77c1.199-1.192 2.582-1.955 4.164-2.308l-.439-1.952c-1.962.439-3.679 1.392-5.136 2.842l1.411 1.418zm4.257-2.334c1.608-.527 2.823-.488 3.745-.07.919.418 1.731 1.296 2.362 2.831l1.85-.757c-.754-1.836-1.858-3.2-3.387-3.894-1.526-.693-3.291-.634-5.195-.01l.625 1.9zm6.087 2.709c.315.908.564 1.755.749 2.543l1.947-.454a27.745 27.745 0 00-.806-2.742l-1.89.653zm.749 2.543c.204.872.472 1.736.801 2.593l1.867-.715a17.809 17.809 0 01-.721-2.332l-1.947.454zm.77 2.5c.377 1.369.961 2.52 1.906 3.148l1.106-1.665c-.335-.223-.748-.792-1.083-2.011l-1.929.528zm2.023 3.215c.934.454 2.237.427 3.687.178l-.342-1.971c-1.397.24-2.147.153-2.472-.005l-.873 1.797zm3.605.188h.014l.004-.001h.007l.003-.001h.011l.003-.001a.07.07 0 01.004 0h.003l.004-.001h.007l.003-.001a.07.07 0 01.004 0h.003l.004-.001h.01l.004-.001h.003a.07.07 0 01.004 0l.003-.001h.007a.07.07 0 01.004-.001h.007l.003-.001h.011l.003-.001h.007a.07.07 0 01.004-.001h.003a.07.07 0 01.004 0l.003-.001h.011l.003-.001h.007l.004-.001h.003a.07.07 0 01.004 0l.003-.001a.07.07 0 01.004 0h.003l.004-.001h.003a.07.07 0 01.004 0h.003l.004-.001h.007l.003-.001h.007l.004-.001h.007l.003-.001h.011l.003-.001h.007l.004-.001h.007l.003-.001h.007l.004-.001h.01l.004-.001h.007l.003-.001h.007l.004-.001h.007a.03.03 0 00.003-.001h.011l.003-.001h.007l.004-.001h.007l.003-.001h.011l.003-.001h.007l.004-.001h.007l.003-.001h.007l.004-.001h.01l.004-.001h.007l.003-.001h.004a.03.03 0 01.003 0l.004-.001h.007l.003-.001h.011l.003-.001h.007l.004-.001h.007l.003-.001h.007l.004-.001h.003a.07.07 0 00.004 0h.003l.004-.001h.007l.003-.001h.007a.07.07 0 00.007-.001.07.07 0 00.004 0h.003l.004-.001h.003a.07.07 0 00.004 0l.003-.001h.007l.004-.001h.007l.003-.001h.007a.07.07 0 00.007-.001.07.07 0 00.007 0 .07.07 0 00.004-.001h.003a.07.07 0 00.004 0l.003-.001h.007l.004-.001h.01a.07.07 0 00.004-.001h.003a.07.07 0 00.004 0l.003-.001h.007l.004-.001h.003a.07.07 0 00.004 0l.003-.001a.07.07 0 00.004 0h.007l.003-.001a.07.07 0 00.004 0h.003a.07.07 0 00.007-.001.07.07 0 00.004 0l.003-.001h.007a.07.07 0 00.004-.001h.01l.004-.001h.007l.004-.001h.006a.07.07 0 00.008-.001h.003a.07.07 0 01.007-.001h.007a.07.07 0 01.004-.001h.007l.003-.001a.07.07 0 01.004 0h.003l.004-.001h.01a.07.07 0 01.004-.001h.007l.003-.001h.007a.07.07 0 01.007-.001.07.07 0 01.004 0l.003-.001h.011l.003-.001h.007l.004-.001h.007l.003-.001h.007a.07.07 0 01.007-.001h.007l.004-.001h.007l.003-.001h.007a.07.07 0 01.007-.001h.004l.003-.001a.07.07 0 01.004 0h.007l.003-.001a.07.07 0 01.004 0h.003l.004-.001h.007l.003-.001a.07.07 0 01.004 0h.007l.003-.001h.007a.07.07 0 01.007-.002h.014l.004-.001h.01l.004-.001h.007a.03.03 0 00.003-.001h.007l.004-.001h.007l.003-.001h.011l.003-.001h.007l.004-.001h.007l.003-.001h.007l.004-.001h.01l.004-.001h.007l.003-.001h.007l.004-.001h.007a.03.03 0 01.003-.001h.011l.003-.001h.007l.004-.001h.007l.003-.001h.011l.003-.001h.007l.004-.001h.007l.003-.001h.007l.004-.001h.01l.004-.001h.007l.003-.001h.007l.004-.001h.007l.003-.001a.07.07 0 00.007 0 .07.07 0 00.004 0l.003-.001a.07.07 0 00.004 0h.003l.004-.001h.007l.003-.001h.007l.004-.001h.003a.07.07 0 00.004 0h.003l.004-.001h.003a.07.07 0 00.004 0l.003-.001a.07.07 0 00.004 0h.003l.004-.001h.007l.003-.001h.011l.003-.001a.07.07 0 00.004 0h.003a.07.07 0 00.004-.001h.007l.003-.001h.011l.003-.001a.07.07 0 00.007 0l.004-.001h.007l.003-.001a.07.07 0 00.007 0 .07.07 0 00.004-.001h.01l.004-.001h.007l.003-.001h.007l.004-.001h.003a.07.07 0 00.004 0l.003-.001h.007a.07.07 0 00.004 0l.003-.001h.007l.004-.001h.003a.07.07 0 00.004 0l.003-.001h.007l.004-.001h.011l.003-.001h.007a.07.07 0 01.004-.001h.007l.003-.001h.007l.004-.001h.003a.07.07 0 01.004 0h.003l.004-.001h.003a.07.07 0 01.004 0l.003-.001a.07.07 0 01.004 0h.003l.004-.001h.003a.07.07 0 01.004 0h.003l.004-.001h.007l.003-.001h.007l.004-.001h.007l.003-.001h.007a.07.07 0 01.004 0l.003-.001h.007l.004-.001h.007l.003-.001h.007l.004-.001h.01a.07.07 0 01.004-.001h.007l.003-.001h.007l.004-.001h.007l.003-.001h.007a.07.07 0 01.004 0l.003-.001a.07.07 0 01.007 0l.004-.001h.003l-.177-1.992h-.014l-.004.001h-.01a.07.07 0 01-.004.001h-.007l-.003.001h-.007l-.004.001h-.007l-.003.001h-.011l-.003.001h-.007l-.004.001h-.007l-.003.001h-.007l-.004.001h-.01l-.004.001h-.007l-.003.001h-.007l-.004.001h-.01l-.004.001h-.007l-.003.001h-.007l-.004.001h-.007l-.003.001h-.011l-.003.001h-.007l-.004.001h-.007l-.003.001h-.007l-.004.001h-.01l-.004.001h-.007l-.003.001h-.007l-.004.001h-.007l-.003.001h-.011l-.003.001h-.007l-.004.001h-.007l-.003.001h-.007l-.004.001h-.003a.07.07 0 00-.004 0h-.003a.07.07 0 00-.004.001h-.003a.07.07 0 00-.004 0l-.003.001h-.007l-.004.001h-.003a.07.07 0 00-.004 0h-.003a.07.07 0 00-.004.001h-.007l-.003.001a.07.07 0 00-.004 0h-.003l-.004.001h-.007l-.003.001a.07.07 0 00-.004 0h-.007l-.003.001a.07.07 0 00-.004 0h-.003a.07.07 0 00-.004.001h-.003a.07.07 0 00-.004 0l-.003.001h-.007a.07.07 0 00-.004.001h-.01l-.004.001h-.003a.07.07 0 00-.004 0l-.003.001h-.007a.07.07 0 00-.007.001h-.004l-.003.001a.07.07 0 00-.004 0h-.007l-.003.001h-.007l-.004.001a178567208.238 178567208.238 0 01-.007 0l-.003.001a.07.07 0 00-.004 0h-.003l-.004.001h-.003a.07.07 0 00-.004 0h-.003l-.004.001h-.007l-.003.001a.07.07 0 00-.004 0h-.003l-.004.001h-.01a.07.07 0 00-.008.001h-.003a.07.07 0 01-.004.001h-.007l-.003.001h-.007a.07.07 0 01-.004.001h-.01l-.004.001h-.007l-.003.001h-.007l-.004.001h-.007l-.003.001a.07.07 0 01-.004 0h-.007l-.003.001a.07.07 0 01-.004 0h-.003l-.004.001h-.007l-.003.001h-.007l-.004.001h-.003a.07.07 0 01-.004 0h-.003l-.004.001h-.007l-.003.001h-.007l-.004.001h-.003a.07.07 0 01-.004 0h-.003l-.004.001h-.003a.07.07 0 01-.004 0l-.003.001h-.007l-.004.001h-.007l-.003.001h-.007a.07.07 0 01-.004 0l-.003.001h-.004a.07.07 0 01-.01.001h-.004l-.003.001h-.007l-.004.001h-.01l-.004.001h-.007l-.003.001h-.007l-.004.001h-.007l-.003.001h-.011l-.003.001h-.007l-.004.001h-.007l-.003.001h-.007l-.004.001h-.01l-.004.001h-.007l-.003.001h-.007l-.004.001h-.01l-.004.001h-.007l-.003.001h-.007l-.004.001h-.007l-.003.001h-.011l-.003.001h-.007l-.004.001h-.007l-.003.001h-.007l-.004.001h-.01l-.004.001h-.007l-.003.001h-.007l-.004.001h-.007l-.003.001h-.011l-.003.001a.07.07 0 00-.007 0 .07.07 0 00-.004.001h-.007l-.003.001h-.007l-.004.001h-.01l-.004.001h-.007l-.003.001a.07.07 0 00-.007 0 .07.07 0 00-.004.001h-.01l-.004.001a.03.03 0 01-.003 0h-.004l-.003.001h-.007a.07.07 0 00-.004.001h-.003a.07.07 0 00-.004 0l-.003.001a.07.07 0 00-.004 0h-.007l-.003.001h-.007l-.004.001h-.003a.07.07 0 00-.004 0l-.003.001h-.007a.07.07 0 00-.004.001h-.003a.07.07 0 00-.007 0 .07.07 0 00-.004.001h-.007l-.003.001h-.007l-.004.001h-.007l-.003.001h-.011l-.003.001a.07.07 0 00-.004 0h-.003l-.004.001h-.007l-.003.001h-.008l-.003.001h-.007a.07.07 0 01-.004 0l-.003.001h-.007l-.004.001h-.003a.07.07 0 01-.004 0l-.003.001h-.007a.07.07 0 01-.004 0l-.003.001h-.007a.07.07 0 01-.004.001h-.007l-.003.001h-.007l-.004.001h-.01a.07.07 0 01-.004.001h-.007l-.003.001h-.007l-.004.001h-.007l-.003.001h-.011l-.003.001a.07.07 0 01-.007 0l-.004.001h-.007l-.003.001h-.007a.07.07 0 01-.004.001h-.01l-.004.001h-.003a.07.07 0 01-.004 0l-.003.001h-.007l-.004.001h-.007l-.003.001h-.011l-.003.001h-.007a.07.07 0 01-.004.001h-.003a.07.07 0 01-.007.001h-.011l-.003.001h-.007l-.004.001h-.007l-.003.001h-.007l-.004.001h-.01l-.004.001h-.007l-.003.001h-.007l-.004.001h-.007l-.003.001h-.011l-.003.001h-.007l-.004.001h-.007l-.003.001h-.007l-.004.001h-.01l-.004.001h-.007l-.003.001h-.007l-.004.001h-.003l.177 1.992zm1.956-.184a11.106 11.106 0 011.794-.324l-.178-1.992a13.04 13.04 0 00-2.119.38l.503 1.936zm1.864-.333c1.628-.26 2.382-.044 2.67.198l1.284-1.532c-1.014-.85-2.574-.912-4.272-.64l.318 1.974zm2.67.198c.177.148.223.263.237.346.018.1.012.288-.133.605l1.818.837c.258-.562.392-1.168.286-1.78-.109-.63-.451-1.143-.924-1.54l-1.284 1.532zm.135.89c-.248.454-.997 1.093-2.593 1.825l.837 1.818c1.645-.755 2.931-1.62 3.512-2.683l-1.756-.96zm-2.615 1.836c-1.323.646-3.295 1.063-5.996 1.181l.09 1.998c2.819-.124 5.108-.562 6.787-1.383l-.881-1.796zm26.095 3.17l-.951-.311-.777 2.374 2.202-1.18-.474-.882zm3.247-2.09l-.542-.84-.067.042-.059.053.668.745zm12.631-8.333l.543.841.023-.015.023-.016-.589-.81zm6.308-.19l.828-.56-.079-.116-.107-.09-.642.766zm-1.163 3.173l.589.81.009-.007-.598-.803zm-3.59 2.302l-.493-.87.493.87zm-3.754 2.497l-.609-.794-.01.008.619.786zm-8.781 6.911l.597.803.011-.008.011-.009-.619-.786zm-8.798 6.733l-.62-.786-.009.007-.009.007.638.772zm-7.535 10.777l-.855-.518-.016.025-.014.026.885.467zm-10.008 17.499l.843.54.004-.006.003-.006-.85-.528zm-11.913 16.401l.748.665.014-.015.013-.017-.775-.633zm-5.829 5.569l-.626-.78-.042.033-.038.038.706.709zm-2.024 1.623l-.525-.852-.024.014-.022.016.571.822zm-2.594 1.311l.265.964.032-.008.03-.011-.327-.945zm-3.471-.419l.527-.85-.527.85zm-1.379-3.313l.998.066.005-.077-.007-.076-.996.087zm.872-4.413l.905.427.017-.035.014-.037-.936-.355zm5.251-10.035l.822.57.007-.01.007-.011-.836-.549zm6.798-8.907l-.748-.665-.005.006.753.659zm11.188-12.362l.736.677.006-.005.005-.006-.747-.666zm11.351-12.557l.738.676.046-.05.038-.055-.822-.571zm1.602-2.308l-.814-.582-.008.011.822.571zm1.749-2.683l.862.508.011-.018.009-.018-.882-.472zm5.072-10.02l.902.433.003-.007.004-.008-.909-.418zm5.024-10.558l.897.442.784-1.593-1.77.155.089.996zm-2.268.92l.669.746.012-.01.011-.012-.692-.723zm-1.338 1.202l.655.757.006-.006.007-.006-.668-.745zm-6.22 5.242l.626.78.009-.007-.635-.773zm-6.854 4.214l-.424-.907-.123.058-.104.089.651.76zm-2.251 1.1l-.089-.996-.074.006-.073.018.236.972zm-5.671-.769l-.641.766.018.015.019.015.604-.796zm-1.57-5.464l-.98-.202-.004.022-.004.023.988.157zm.952-3.516l.946.325-.946-.325zm1.327-3.368l-.909-.419-.005.011.914.408zm2.438-5.092l-.87-.496-.013.024-.012.024.895.448zm2.813-4.944l-.822-.571-.026.037-.022.038.87.496zm1.844-1.607l.4.917.065-.028.06-.037-.525-.852zm2.591.677l.93.367.264-.67-.553-.463-.641.766zm-.574 1.676l-.958-.289-.019.065-.011.067.988.157zm-.769 1.513l-.767-.643-.112.134-.06.163.939.346zm-2.538 6.004l.9.438-.9-.438zm-2.733 5.84l-.911-.412-.028.06-.019.063.958.29zm-.541 2.035l-.974-.232-.018.076-.006.078.998.078zm-.674 2.589l-.93-.368-.797 2.022 2.055-.71-.328-.944zm4.24-1.094l.452.893.062-.032.057-.04-.571-.821zm4.586-3.292l-.597-.803.597.803zm4.391-3.456l.64.77.018-.016.018-.016-.676-.738zm5.323-5.164l.72.696-.72-.696zm5.308-5.343l.701.714.035-.034.031-.037-.767-.642zm2.187-1.817l.474.881.05-.027.047-.032-.571-.822zm3.064-.088l.418-.908-.025-.011-.026-.01-.367.93zm.706 5.901l-.924-.382-.003.007-.003.008.93.367zm-3.422 8.25l.917.4-.917-.4zm-3.406 8.429l.767.643.11-.132.06-.16-.937-.351zm-.638.96l-.878-.48-.064.117-.031.13.973.232zm-23.646 32.785l.92.392-1.622-1.106.702.714zm-5.766 6.286l.75.663.009-.01.008-.01-.767-.643zm-5.701 7.004l.803.596-.803-.596zm-4.479 6.535l.851.528-.851-.528zm-2.454 4.913l-.958-.289-.854 2.841 2.401-1.743-.589-.809zm4.507-4.189l.725.689.011-.011.01-.011-.746-.667zm5.375-6.614l.801.6.009-.012.009-.013-.819-.575zm4.952-7.299l.837.549.007-.011.006-.01-.85-.528zm27.129-36.685a39.753 39.753 0 001.943-1.098l-1.049-1.704c-.433.266-1.044.612-1.842 1.04l.948 1.762zm1.943-1.098a10.428 10.428 0 001.499-1.13l-1.337-1.489a8.465 8.465 0 01-1.211.915l1.049 1.704zm1.373-1.033a335.622 335.622 0 006.334-4.179l-1.123-1.657a330.061 330.061 0 01-6.296 4.154l1.085 1.682zm6.334-4.179a332.889 332.889 0 016.297-4.154l-1.085-1.681a335.74 335.74 0 00-6.335 4.178l1.123 1.657zm6.343-4.185c.994-.722 2.046-1.12 3.17-1.219l-.177-1.992c-1.507.132-2.901.67-4.17 1.592l1.177 1.619zm3.17-1.219c.213-.018.494.034.867.266l1.053-1.699c-.647-.402-1.355-.624-2.097-.559l.177 1.992zm.867.266c.495.307.834.546 1.04.719l1.284-1.532c-.314-.263-.746-.56-1.271-.886l-1.053 1.699zm.854.513c.187.275.19.46.118.655-.097.266-.384.66-1.051 1.156l1.196 1.605c.802-.596 1.443-1.277 1.734-2.07.316-.863.166-1.718-.341-2.466l-1.656 1.12zm-.924 1.804a36.31 36.31 0 01-3.494 2.24l.986 1.742a38.56 38.56 0 003.686-2.363l-1.178-1.619zm-3.494 2.24a33.064 33.064 0 00-3.87 2.574l1.219 1.587a31.158 31.158 0 013.637-2.42l-.986-1.74zm-3.88 2.582l-8.782 6.911 1.239 1.572 8.782-6.912-1.239-1.571zm-8.76 6.895a405.27 405.27 0 00-8.82 6.749l1.239 1.572a401.89 401.89 0 018.776-6.716l-1.195-1.605zm-8.838 6.763c-1.886 1.557-3.386 3.344-4.488 5.361l1.756.96c.971-1.777 2.302-3.37 4.007-4.778l-1.275-1.543zm-4.488 5.361a145.578 145.578 0 01-3.264 5.67l1.711 1.037a147.334 147.334 0 003.309-5.747l-1.756-.96zm-3.294 5.721a286 286 0 01-9.973 17.438l1.7 1.056a287.668 287.668 0 0010.043-17.56l-1.77-.934zm-9.965 17.426a174.788 174.788 0 01-11.846 16.308l1.55 1.266a176.853 176.853 0 0011.981-16.494l-1.685-1.08zm-11.818 16.275a47.306 47.306 0 01-5.708 5.455l1.252 1.56a49.215 49.215 0 005.951-5.684l-1.495-1.331zm-5.788 5.526a10.279 10.279 0 01-1.843 1.48l1.05 1.704a12.245 12.245 0 002.205-1.766l-1.412-1.418zm-1.889 1.51a9.6 9.6 0 01-2.351 1.188l.655 1.89a11.56 11.56 0 002.838-1.435l-1.142-1.643zm-2.289 1.168c-1.06.291-1.924.165-2.678-.304l-1.054 1.699c1.286.798 2.736.952 4.263.534l-.531-1.929zm-2.678-.304c-.606-.376-.994-1.056-.908-2.397l-1.996-.131c-.116 1.808.416 3.336 1.85 4.227l1.054-1.699zm-.91-2.55c-.109-1.232.136-2.526.781-3.899l-1.81-.853c-.772 1.642-1.109 3.289-.963 4.926l1.992-.174zm.812-3.971a45.146 45.146 0 015.137-9.82l-1.644-1.141a47.134 47.134 0 00-5.364 10.252l1.871.709zm5.151-9.841a80.189 80.189 0 016.714-8.796l-1.505-1.319a81.886 81.886 0 00-6.881 9.016l1.672 1.099zm6.709-8.79c3.72-4.177 7.446-8.294 11.177-12.351l-1.473-1.354a1055.801 1055.801 0 00-11.199 12.374l1.495 1.331zm11.188-12.362c3.721-4.177 7.501-8.359 11.342-12.547l-1.475-1.352a1163.479 1163.479 0 00-11.362 12.568l1.495 1.331zm11.426-12.652l1.602-2.309-1.644-1.141-1.602 2.308 1.644 1.142zm1.594-2.297a37.129 37.129 0 001.797-2.757l-1.724-1.016a35.233 35.233 0 01-1.701 2.609l1.628 1.164zm1.817-2.793a254.984 254.984 0 005.092-10.06l-1.805-.865a253.794 253.794 0 01-5.051 9.98l1.764.945zm5.099-10.074a441.393 441.393 0 015.012-10.534l-1.795-.885a440.083 440.083 0 00-5.035 10.582l1.818.837zm4.026-11.972c-1.125.098-2.114.47-2.87 1.194l1.383 1.446c.353-.338.876-.58 1.664-.648l-.177-1.992zm-2.847 1.172l-.003.003-.003.002-.002.002a.06.06 0 01-.003.003l-.002.002a.06.06 0 01-.003.002l-.003.003-.002.002-.003.002-.003.003-.002.002-.003.002-.002.003-.003.002-.003.003-.002.002-.003.002-.002.003a201531379.68 201531379.68 0 00-.006.005l-.002.002-.003.002-.003.002-.002.003-.003.002-.002.002a.06.06 0 00-.003.003l-.003.002-.002.002-.003.003-.002.002-.003.002-.003.003-.002.002-.003.003-.002.002-.003.002-.003.002-.002.003a.06.06 0 00-.003.002l-.003.003-.002.002-.003.002-.002.003-.003.002-.003.002-.002.003-.003.002-.002.002-.003.003-.003.002-.002.002-.003.003-.003.002-.002.002-.003.003-.002.002-.003.002-.003.003-.002.002-.003.002-.002.003-.003.002-.003.002-.002.003a.06.06 0 00-.003.002l-.003.003-.002.002-.003.002-.002.003-.003.002-.003.002-.002.003-.003.002-.002.002-.003.003-.003.002-.002.002-.003.003-.003.002-.002.002-.003.003-.002.002a.06.06 0 01-.003.002l-.003.003-.002.002-.003.003-.002.002-.003.002-.003.002-.002.003-.003.002-.003.003-.002.002-.003.002-.002.003a.06.06 0 01-.003.002l-.003.002-.002.003-.003.002-.002.002-.003.003-.003.002-.002.002-.003.003-.003.002-.002.002-.003.003-.002.002a.06.06 0 01-.003.002l-.003.003-.002.002-.003.002-.002.003-.003.002-.003.002-.002.003-.003.002-.003.003-.002.002-.003.002-.002.003-.003.002-.003.002-.002.003-.003.002-.002.002-.003.003-.003.002-.002.002-.003.003-.003.002-.002.002-.003.003-.002.002-.003.002-.003.003-.002.002-.003.003-.002.002-.003.002-.003.002-.002.003-.003.002-.002.003-.003.002-.003.002-.002.003-.003.002-.003.002-.002.003-.003.002-.002.002-.003.003-.003.002-.002.002a.06.06 0 00-.003.003l-.003.002-.002.002-.003.003-.002.002-.003.002-.003.003-.002.002-.003.002-.002.003-.003.002-.003.002-.002.003-.003.002-.003.003-.002.002-.003.002-.002.003a.06.06 0 01-.003.002l-.003.002-.002.003-.003.002-.002.002-.003.003-.003.002-.002.002-.003.003-.002.002-.003.002-.003.003-.002.002-.003.002a.06.06 0 00-.003.003l-.002.002-.003.003-.002.002-.003.002-.003.002-.002.003-.003.002-.002.003a.06.06 0 00-.003.002l-.003.002-.002.003a.06.06 0 01-.003.002l-.003.002-.002.003-.003.002-.002.002-.003.003-.003.002-.002.002-.003.003-.002.002a.06.06 0 00-.003.002l-.003.003-.002.002-.003.002-.003.003-.002.002-.003.002-.002.003-.003.002-.003.002-.002.003-.003.002-.002.003-.003.002-.003.002-.002.003-.003.002a105564540.264 105564540.264 0 01-.005.005l-.003.002-.002.002-.003.003-.003.002-.002.002-.003.003-.002.002-.003.002-.003.003-.002.002-.003.002a.06.06 0 00-.003.003l-.002.002-.003.003-.002.002-.003.002-.003.002-.002.003-.003.002-.002.003-.003.002-.003.002-.002.003-.003.002a.06.06 0 00-.003.002l-.002.003-.003.002-.002.002-.003.003-.003.002-.002.002-.003.003-.002.002-.003.002-.003.003-.002.002-.003.003a.06.06 0 00-.003.002l-.002.002-.003.002-.002.003-.003.002-.003.002-.002.003-.003.002-.002.003-.003.002-.003.002-.002.003-.003.002a.06.06 0 00-.003.002l-.002.003-.003.002-.002.002-.003.003-.003.002-.002.002-.003.003-.002.002-.003.002-.003.003-.002.002a.06.06 0 01-.003.002l-.002.003-.003.002-.003.003-.002.002-.003.002-.003.002-.002.003-.003.002-.002.003-.003.002-.003.002-.002.003-.003.002-.002.002-.003.003-.003.002-.002.002-.003.003-.003.002-.002.002-.003.003-.002.002a.06.06 0 00-.003.002l-.003.003-.002.002-.003.003-.002.002-.003.002-.003.002-.002.003-.003.002a.06.06 0 01-.003.002l-.002.003-.003.002-.002.003a.06.06 0 00-.003.002l-.003.002-.002.003-.003.002-.002.002-.003.003-.003.002-.002.002-.003.003-.003.002-.002.002-.003.003-.002.002-.003.002-.003.003-.002.002-.003.002-.002.003-.003.002-.003.002-.002.003-.003.002-.003.002-.002.003-.003.002-.002.003-.003.002-.003.002-.002.003-.003.002-.002.002-.003.003a.06.06 0 00-.003.002l-.002.002-.003.003-.003.002-.002.002-.003.003-.002.002-.003.002-.003.003-.002.002-.003.003-.002.002a.06.06 0 01-.003.002l-.003.002-.002.003-.003.002-.003.002-.002.003-.003.002-.002.003-.003.002-.003.002-.002.003-.003.002-.002.002-.003.003-.003.002-.002.002-.003.003a.06.06 0 01-.003.002l-.002.002-.003.003-.002.002-.003.002-.003.003-.002.002-.003.002-.002.003-.003.002-.003.002-.002.003-.003.002a.06.06 0 01-.003.002l-.002.003-.003.002-.002.003-.003.002-.003.002-.002.003-.003.002-.002.002-.003.003-.003.002-.002.002-.003.003a.06.06 0 01-.003.002l-.002.002-.003.003-.002.002-.003.002-.003.003-.002.002-.003.003-.002.002-.003.002a.06.06 0 00-.003.002l-.002.003-.003.002-.003.002-.002.003-.003.002-.002.003-.003.002-.003.002-.002.003-.003.002-.002.002-.003.003a.06.06 0 00-.003.002l-.002.002-.003.003-.002.002-.003.002-.003.003-.002.002-.003.002-.003.003-.002.002-.003.002-.002.003a.06.06 0 01-.003.002l-.003.002-.002.003-.003.002-.002.002-.003.003-.003.002-.002.003-.003.002-.003.002-.002.003-.003.002-.002.002a.06.06 0 01-.003.003l-.003.002-.002.002-.003.003-.002.002-.003.002-.003.003-.002.002-.003.002-.003.003-.002.002-.003.003-.002.002-.003.002-.003.002-.002.003-.003.002-.002.002-.003.003-.003.002-.002.003-.003.002-.003.002-.002.003-.003.002-.002.002-.003.003-.003.002-.002.002-.003.003-.002.002-.003.002a.06.06 0 01-.003.003l-.002.002-.003.002-.003.003-.002.002-.003.002-.002.003-.003.002-.003.002-.002.003-.003.002-.002.002-.003.003-.003.002-.002.003-.003.002-.003.002-.002.003 1.337 1.489.003-.003.002-.002a.06.06 0 00.003-.002l.003-.003.002-.002.003-.002.002-.003.003-.002.003-.002.002-.003.003-.002.002-.002.003-.003.003-.002.002-.002a.06.06 0 00.003-.003l.003-.002.002-.003.003-.002.002-.002.003-.002.003-.003.002-.002.003-.003.002-.002.003-.002a.06.06 0 00.003-.003l.002-.002.003-.002.003-.003.002-.002.003-.002.002-.003.003-.002.003-.002.002-.003.003-.002.002-.002.003-.003.003-.002.002-.002a.06.06 0 00.003-.003l.003-.002.002-.002.003-.003.002-.002.003-.002.003-.003.002-.002.003-.003.002-.002.003-.002.003-.003.002-.002.003-.002.003-.003.002-.002a.06.06 0 01.003-.002l.002-.003a.06.06 0 01.003-.002l.003-.002.002-.003.003-.002.002-.002.003-.003.003-.002.002-.002.003-.003.003-.002.002-.003.003-.002.002-.002a105564540.264 105564540.264 0 00.006-.005l.002-.002.003-.003.002-.002.003-.002.003-.003.002-.002a.06.06 0 00.003-.002l.003-.003.002-.002.003-.002.002-.003.003-.002.003-.002.002-.003.003-.002.002-.002.003-.003.003-.002.002-.002a.06.06 0 00.003-.003l.003-.002.002-.002.003-.003.002-.002.003-.002.003-.003.002-.002.003-.003.002-.002.003-.002.003-.003.002-.002.003-.002.003-.003.002-.002.003-.002.002-.003.003-.002a105564540.264 105564540.264 0 01.005-.005l.003-.002.002-.002.003-.003.003-.002.002-.002a.06.06 0 00.003-.003l.003-.002.002-.003.003-.002.002-.002.003-.002.003-.003.002-.002.003-.003.002-.002.003-.002.003-.003.002-.002.003-.002.003-.003.002-.002.003-.002.002-.003.003-.002.003-.002.002-.003.003-.002.002-.002.003-.003.003-.002.002-.002.003-.003.003-.002.002-.002.003-.003.002-.002a.06.06 0 01.003-.002l.003-.003.002-.002.003-.003.002-.002.003-.002.003-.003.002-.002.003-.002.002-.003.003-.002a.06.06 0 01.003-.002l.002-.003a.06.06 0 01.003-.002l.003-.002.002-.003.003-.002.002-.002.003-.003.003-.002.002-.002.003-.003.002-.002a.06.06 0 00.003-.003l.003-.002.002-.002.003-.002.003-.003.002-.002.003-.003.002-.002.003-.002.003-.003.002-.002a.06.06 0 00.003-.002l.002-.003a.06.06 0 00.003-.002l.003-.002.002-.003.003-.002.003-.002.002-.003.003-.002.002-.002.003-.003.003-.002.002-.002.003-.003.002-.002a.06.06 0 00.003-.002l.003-.003.002-.002.003-.002.003-.003.002-.002.003-.003.002-.002.003-.002.003-.003.002-.002a.06.06 0 00.003-.002l.002-.003a.06.06 0 00.003-.002l.003-.002.002-.003.003-.002.003-.002.002-.003.003-.002.002-.002.003-.003.003-.002.002-.002.003-.003.002-.002.003-.003.003-.002.002-.002a.06.06 0 01.003-.002l.003-.003.002-.002.003-.003.002-.002.003-.002.003-.003.002-.002.003-.002.002-.003.003-.002.003-.002.002-.003.003-.002a.06.06 0 00.003-.002l.002-.003.003-.002.002-.002.003-.003.003-.002.002-.002.003-.003.002-.002.003-.002.003-.003.002-.002a.06.06 0 01.003-.002l.003-.003.002-.002.003-.003.002-.002.003-.002.003-.003.002-.002.003-.002.002-.003a.06.06 0 00.003-.002l.003-.002.002-.003.003-.002.002-.002.003-.003.003-.002.002-.002.003-.003.003-.002.002-.002.003-.003.002-.002a.06.06 0 00.003-.003l.003-.002.002-.002.003-.002.002-.003.003-.002.003-.003.002-.002.003-.002.003-.003.002-.002.003-.002.002-.003a.06.06 0 00.003-.002l.003-.002.002-.003.003-.002.003-.002.002-.003.003-.002.002-.002.003-.003.003-.002.002-.002.003-.003.002-.002a.06.06 0 00.003-.002l.003-.003.002-.002.003-.003.002-.002.003-.002.003-.003.002-.002.003-.002.003-.003.002-.002.003-.002.002-.003.003-.002.003-.002.002-.003.003-.002.002-.002a.06.06 0 01.003-.003l.003-.002.002-.002.003-.003.003-.002.002-.002.003-.003.002-.002.003-.003.003-.002.002-.002a.06.06 0 01.003-.002l.002-.003a.06.06 0 01.003-.002l.003-.003.002-.002.003-.002.003-.003.002-.002.003-.002.002-.003.003-.002.003-.002.002-.003a.06.06 0 01.003-.002l.002-.002a.06.06 0 01.003-.003l.003-.002.002-.002.003-.003.003-.002.002-.002.003-.003.002-.002a.06.06 0 00.003-.002l.003-.003.002-.002a105564540.264 105564540.264 0 00.005-.005l.003-.002.003-.003.002-.002.003-.002.003-.003.002-.002.003-.002.002-.003a.06.06 0 00.003-.002l.003-.002.002-.003.003-.002.002-.002.003-.003.003-.002.002-.002.003-.003.003-.002.002-.002.003-.003.002-.002a.06.06 0 00.003-.003l.003-.002.002-.002.003-.003.002-.002.003-.002.003-.003.002-.002.003-.002.003-.003.002-.002.003-.002.002-.003.003-.002.003-.002.002-.003a105564540.264 105564540.264 0 01.008-.007l.003-.002.002-.002.003-.003.003-.002.002-.002.003-.003.002-.002.003-.002.003-.003.002-.002.003-.003.002-.002a.06.06 0 01.003-.002l.003-.003.002-.002.003-.002.002-.003.003-.002.003-.002.002-.003.003-.002.003-.002.002-.003.003-.002.002-.002a.06.06 0 01.003-.003l.003-.002.002-.002.003-.003.002-.002.003-.002.003-.003.002-.002.003-.003.003-.002.002-.002.003-.003.002-.002a.06.06 0 01.003-.002l.003-.003.002-.002.003-.002.002-.003.003-.002.003-.002.002-.003.003-.002.003-.002.002-.003a201531379.68 201531379.68 0 00.005-.004l.003-.003.003-.002.002-.002.003-.003.002-.002.003-.002.003-.003.002-.002.003-.002.003-.003.002-.002.003-.003.002-.002.003-.002.003-.003.002-.002.003-.002.002-.003.003-.002.003-.002.002-.003.003-.002.003-.002.002-.003.003-.002.002-.002.003-.003a.06.06 0 00.003-.002l.002-.002.003-.003.002-.002.003-.002.003-.003.002-.002.003-.003.003-.002.002-.002.003-.003.002-.002.003-.002.003-.003.002-.002.003-.002.002-.003.003-.002.003-.002.002-.003.003-.002a105564540.264 105564540.264 0 01.005-.005l.003-.002.002-.002a.06.06 0 01.003-.003l.003-.002.002-.002.003-.003.002-.002.003-.002.003-.003.002-.002.003-.002-1.337-1.49zm-1.326 1.19a315.007 315.007 0 01-6.2 5.225l1.271 1.546a320.79 320.79 0 006.24-5.258l-1.311-1.513zm-6.191 5.218c-1.957 1.569-4.172 2.932-6.651 4.087l.848 1.813c2.611-1.217 4.965-2.663 7.056-4.34l-1.253-1.56zm-6.878 4.234c-.691.592-1.252.826-1.689.864l.178 1.992c.997-.087 1.938-.587 2.813-1.337l-1.302-1.52zm-1.836.888c-2.178.524-3.727.246-4.83-.592l-1.209 1.59c1.739 1.323 3.971 1.557 6.51.946l-.471-1.944zm-4.793-.563c-1.076-.901-1.575-2.317-1.224-4.54l-1.976-.315c-.42 2.662.129 4.89 1.917 6.387l1.283-1.532zm-1.232-4.495a27.67 27.67 0 01.918-3.394l-1.892-.65a29.833 29.833 0 00-.986 3.639l1.96.405zm.918-3.394a40.074 40.074 0 011.294-3.286l-1.827-.815a41.36 41.36 0 00-1.359 3.451l1.892.65zm1.289-3.275a174.533 174.533 0 012.425-5.063l-1.79-.895a173.188 173.188 0 00-2.452 5.121l1.817.837zm2.399-5.015l2.813-4.944-1.739-.99-2.813 4.943 1.739.991zm2.766-4.869c.452-.652.932-1.048 1.422-1.26l-.799-1.835c-.902.392-1.652 1.068-2.267 1.954l1.644 1.141zm1.547-1.325c.098-.06.455-.22 1.424.59l1.283-1.531c-1.114-.934-2.483-1.546-3.756-.763l1.049 1.704zm1.135-.543a22.08 22.08 0 00-.601 1.755l1.916.578c.179-.597.362-1.13.546-1.598l-1.861-.735zm-.631 1.887c-.04.255-.187.596-.548 1.027L253.426 72c.511-.609.876-1.276.99-1.998l-1.976-.314zm-.72 1.325a63.738 63.738 0 01-2.499 5.911l1.8.876a65.707 65.707 0 002.577-6.097l-1.878-.69zm-2.499 5.911a231.632 231.632 0 00-2.744 5.866l1.823.825a228.972 228.972 0 012.721-5.816l-1.8-.875zm-2.791 5.99a37.28 37.28 0 00-.557 2.09l1.947.466c.171-.723.347-1.382.526-1.979l-1.916-.578zm-.581 2.245c-.045.594-.234 1.355-.606 2.3l1.861.734c.414-1.051.674-2.016.74-2.878l-1.995-.156zm.652 3.612c.901-.311 1.579-.47 2.06-.512l-.177-1.992c-.715.063-1.569.279-2.538.613l.655 1.89zm2.06-.512a6.272 6.272 0 002.304-.634l-.904-1.785a4.286 4.286 0 01-1.577.427l.177 1.992zm2.423-.705a174.249 174.249 0 004.613-3.312l-1.195-1.605a173.19 173.19 0 01-4.56 3.273l1.142 1.644zm4.613-3.312a104.709 104.709 0 004.433-3.489l-1.28-1.538a102.623 102.623 0 01-4.348 3.422l1.195 1.605zm4.469-3.52a121.845 121.845 0 005.367-5.206l-1.439-1.391a120.284 120.284 0 01-5.279 5.12l1.351 1.477zm5.367-5.206a296.629 296.629 0 015.289-5.325l-1.403-1.427a298.109 298.109 0 00-5.325 5.36l1.439 1.392zm5.355-5.396c.581-.693 1.213-1.214 1.894-1.579l-.948-1.762c-.929.498-1.755 1.19-2.48 2.056l1.534 1.285zm1.991-1.638c.422-.293 1.058-.402 2.127.02l.733-1.86c-1.429-.563-2.835-.614-4.002.196l1.142 1.644zm2.076-.001c.554.255.842.643.92 1.291.088.733-.102 1.817-.721 3.32l1.849.764c.669-1.623 1.006-3.084.858-4.318-.158-1.32-.866-2.319-2.071-2.874l-.835 1.817zm.193 4.625a249.574 249.574 0 01-3.409 8.217l1.834.8a250.395 250.395 0 003.436-8.282l-1.861-.735zm-3.409 8.217a170.872 170.872 0 00-3.426 8.478l1.874.702a169.652 169.652 0 013.386-8.38l-1.834-.8zm-3.256 8.186c-.27.322-.518.7-.749 1.122l1.757.96c.183-.336.36-.598.526-.796l-1.534-1.286zm-.844 1.37c-.077.324-.251.908-.535 1.776l1.901.624c.285-.868.482-1.522.581-1.936l-1.947-.464zm-23.375 32.304c-1.909 1.877-3.853 3.997-5.831 6.358l1.534 1.285c1.943-2.319 3.843-4.39 5.7-6.216l-1.403-1.427zm-5.813 6.337a106.645 106.645 0 00-5.756 7.07l1.607 1.193a104.273 104.273 0 015.648-6.937l-1.499-1.326zm-5.756 7.07c-1.734 2.337-3.243 4.538-4.525 6.604l1.701 1.056c1.247-2.01 2.723-4.166 4.431-6.467l-1.607-1.193zm-4.525 6.604c-1.278 2.061-2.152 3.787-2.562 5.152l1.916.578c.334-1.11 1.096-2.659 2.347-4.674l-1.701-1.056zm-1.015 6.25c1.207-.877 2.76-2.327 4.643-4.309l-1.451-1.378c-1.862 1.959-3.314 3.302-4.369 4.068l1.177 1.619zm4.664-4.331c1.775-1.985 3.585-4.213 5.43-6.681l-1.603-1.199c-1.815 2.429-3.589 4.611-5.319 6.546l1.492 1.334zm5.448-6.706a281.282 281.282 0 004.97-7.325l-1.674-1.098a276.526 276.526 0 01-4.935 7.273l1.639 1.15zm4.983-7.346c1.596-2.573 2.813-4.832 3.636-6.772l-1.841-.784c-.77 1.813-1.93 3.978-3.495 6.5l1.7 1.056z"/></g></svg>