<svg xmlns="http://www.w3.org/2000/svg" fill="none" viewBox="0 0 118 67"><path fill="#38B" d="M22.574 47.702c.052-.074.03-.2.03-.2-.212-.093-.36-.197-.634-.278a12.752 12.752 0 00-5.498-.59c-2.24.2-4.498.663-6.422 1.912-3.337 2.083-3.727 5.4-1.028 8.174 1.36 1.45 2.97 2.466 4.682 3.334 6.12 3.015 12.568 3.828 19.204 2.398 2.32-.475 4.586-1.264 6.466-2.765 2.329-1.905 3.274-4.282 2.489-7.263-.208-.808-.467-1.542-.938-2.369-1.041-2.22-2.628-4.216-4.307-6-1.776-1.96-3.529-3.796-5.23-5.706-1.213-1.345-2.173-2.736-2.862-4.434-.99-2.295-.767-4.349.835-6.321a11.084 11.084 0 011.71-1.731c3.236-2.65 6.966-4.348 11.041-5.196a11.136 11.136 0 012.903-.122c1.62-.026 2.576.975 2.906 2.477a5.061 5.061 0 01-.178 3.41c-.627 1.606-1.328 3.159-2.23 4.683-1.316 2.116-2.832 4.203-4.286 6.28-.092.21-.437.466-.17.874.819-.144 1.234-.737 1.65-1.33a87.003 87.003 0 004.486-6.25c.79-1.05 1.387-2.455 1.892-3.648.586-1.468.697-3.048.304-4.538-.492-2.058-1.797-3.193-3.862-3.478-.812-.182-1.706-.09-2.462.044-4.393.515-8.25 2.234-11.846 4.688-1.327.949-2.558 2.076-3.482 3.473-1.546 2.288-1.776 4.668-.668 7.267 1.142 2.788 3.225 5.02 5.234 7.2 1.713 1.973 3.466 3.808 5.167 5.718 1.138 1.294 1.972 2.707 2.524 4.364.93 2.695.73 4.875-2.155 6.944-.051.074-.114.085-.24.107-1.454.971-2.974 1.564-4.602 1.916-4.241 1.008-8.408.963-12.616-.05-3.133-.812-6.132-1.973-8.738-3.853-.975-.738-1.813-1.435-2.317-2.45-.76-1.362-.581-2.563.535-3.604a7.575 7.575 0 013.18-1.861c1.743-.437 3.593-.634 5.317-.808 1.41-.118 2.807-.3 4.216-.418zm37.981-13.066c.03.905.078 1.546.115 2.125-.012 1.041-.034 2.02.133 2.965.2 1.135 1.004 1.643 2.128 1.38.44-.078.808-.208 1.038-.378 1.546-1.183 3.114-2.239 4.586-3.473 1.557-1.12 1.172-2.936-1.16-1.42-1.097.778-2.162 1.746-3.248 2.587-.471.278-1.016.504-1.654.941-.04-.967-.089-1.609-.01-2.272.003-.716.081-1.38.033-2.02-.177-2.114-1.33-2.756-3.11-1.792-.356.193-.838.408-1.046.704a35.595 35.595 0 00-2.937 3.248c-1.008 1.282-1.994 2.691-3.055 4.048-.197.36-.33.708-.897.808.675-2.069 1.435-4.023 2.195-5.976 3.023-7.552 7.533-18.095 11.538-25.235.812-.923-.853-2.254-1.661-.942-2.407 3.674-5.637 11.522-7.502 15.685-2.763 6.076-5.092 12.4-7.17 18.68-.215.624-.378 1.172-.33 1.814-.133.348.156.882.441 1.027.234.218.738.13 1.157-.074.367-.13.616-.564.886-.871 1.298-1.854 2.67-3.656 4.031-5.52 1.309-1.79 2.596-3.707 4.235-5.101.333-.319.69-.511 1.264-.938zm25.322-1.02c.523-.352.119-.801-.345-.85-.389.004-.712.386-1.004.568-1.098.778-2.162 1.745-3.126 2.175-3.645 1.813-1.434-4.816-1.119-5.976.174-.486.297-.897.282-1.35-.004-.389-.185-.682-.419-.9-.274-.082-.715-.004-.956.103-.241.108-.438.467-.583.753-.467.667-.923 1.397-1.39 2.065-.3.507-.782.722-1.235.737-3.07.282-5.476 1.746-7.349 4.025-.426.53-.674.964-.964 1.535-.33.708-.397 1.435.178 2.113.5.627 1.301.746 2.098.475.556-.163 1.239-.348 1.676-.815 2.006-1.524 3.779-3.266 5.688-4.967.019.841.015 1.557.137 2.25.767 4.349 6.851.157 8.43-1.941zm-16.443 3.679c1.072-2.399 3.968-4.404 6.455-5.038-1.412 1.94-4.075 4.163-6.455 5.038zm26.78-4.267c3.879-.49 4.161-2.944 1.8-2.332-.442.078-.935.23-1.313.296-.997.241-1.346.107-1.702-.805-.226-.545-.4-1.164-.7-1.76-.59-1.131-1.498-1.491-2.703-.954a3.23 3.23 0 00-1.568 1.056c-.668.638-1.239 1.454-1.947 2.228-.104.149-.323.382-.541.616.23-1.276.545-2.436.923-3.607.07-.338.13-.738.064-1.116.018-.264-.227-.545-.438-.638-.211-.093-.567.1-.67.248a4.79 4.79 0 00-.62 1.28c-1.076 3.113-2.077 6.28-3.153 9.393-.07.338-.278.634-.211 1.013.255 1.45 1.92.57 2.265-.79.5-1.583 1.443-3.244 2.681-4.697.79-1.049 3.093-4.574 4.587-2.368.633 1.383 1.208 3.166 3.247 2.937zm15.014-4.727c-1.476 1.95-9.065 4.978-10.993 3.628-.667-.467-.79-1.16.471-1.383.82-.145 1.691-.363 2.414-.686.953-.493 1.831-1.037 2.562-1.686.512-.415.664-1.027.426-1.635-.237-.608-.808-.897-1.449-.85-1.513.267-3.17.82-4.56 1.78-1.254 1-1.491 1.497-1.77 3.236-.282 3.56 3.229 3.2 5.476 2.674 3.307-.778 6.629-2.209 9.44-4.33a.823.823 0 00.189-1.137c-.33-.397-.656-.404-1.149-.253-.356.193-.712.386-1.057.642zm-6.688-.706c-.842 1.123-3.2 2.124-4.483 2.22 1.836-1.753 5.362-3.87 4.483-2.22z"/></svg>